G04*
G04 #@! TF.GenerationSoftware,Altium Limited,Altium Designer,19.1.8 (144)*
G04*
G04 Layer_Color=128*
%FSTAX44Y44*%
%MOMM*%
G71*
G01*
G75*
%ADD117C,0.0508*%
D117*
X00223846Y0016383D02*
X00232846D01*
X00228346Y0015933D02*
Y0016833D01*
X00198446Y0016383D02*
X00207446D01*
X00202946Y0015933D02*
Y0016833D01*
X00113646Y00594868D02*
X00123646D01*
X00118646Y00589868D02*
Y00599868D01*
X00053646Y00594868D02*
X00063646D01*
X00058646Y00589868D02*
Y00599868D01*
X00083646Y00547868D02*
X00093646D01*
X00088646Y00542868D02*
Y00552868D01*
X0003868Y00709106D02*
X0004418D01*
X0004143Y00706356D02*
Y00711856D01*
X0003868Y00759106D02*
X0004418D01*
X0004143Y00756356D02*
Y00761856D01*
X0001193Y00699106D02*
X0001693D01*
X0001443Y00696606D02*
Y00701606D01*
X0001193Y00769106D02*
X0001693D01*
X0001443Y00766606D02*
Y00771606D01*
X0021727Y0087376D02*
X0022627D01*
X0022177Y0086926D02*
Y0087826D01*
X0019727Y0087376D02*
X0020627D01*
X0020177Y0086926D02*
Y0087826D01*
X0017727Y0087376D02*
X0018627D01*
X0018177Y0086926D02*
Y0087826D01*
X003203Y0087376D02*
X003293D01*
X003248Y0086926D02*
Y0087826D01*
X003003Y0087376D02*
X003093D01*
X003048Y0086926D02*
Y0087826D01*
X002803Y0087376D02*
X002893D01*
X002848Y0086926D02*
Y0087826D01*
X00505824Y00850392D02*
X00514824D01*
X00510324Y00845892D02*
Y00854892D01*
X00555824Y00850392D02*
X00564824D01*
X00560324Y00845892D02*
Y00854892D01*
X0031808Y00094488D02*
X0032708D01*
X0032258Y00089988D02*
Y00098988D01*
X0031808Y00119888D02*
X0032708D01*
X0032258Y00115388D02*
Y00124388D01*
X0047048Y0009398D02*
X0047948D01*
X0047498Y0008948D02*
Y0009848D01*
X0047048Y0011938D02*
X0047948D01*
X0047498Y0011488D02*
Y0012388D01*
X0011424Y0087376D02*
X0012324D01*
X0011874Y0086926D02*
Y0087826D01*
X0009424Y0087376D02*
X0010324D01*
X0009874Y0086926D02*
Y0087826D01*
X0007424Y0087376D02*
X0008324D01*
X0007874Y0086926D02*
Y0087826D01*
X00525598Y00595376D02*
X00534598D01*
X00530098Y00590876D02*
Y00599876D01*
X00525598Y00620776D02*
X00534598D01*
X00530098Y00616276D02*
Y00625276D01*
X0047048Y0014478D02*
X0047948D01*
X0047498Y0014028D02*
Y0014928D01*
X0047048Y0017018D02*
X0047948D01*
X0047498Y0016568D02*
Y0017468D01*
X0047048Y0019558D02*
X0047948D01*
X0047498Y0019108D02*
Y0020008D01*
X0047048Y0022098D02*
X0047948D01*
X0047498Y0021648D02*
Y0022548D01*
X0047048Y0024638D02*
X0047948D01*
X0047498Y0024188D02*
Y0025088D01*
X0047048Y0027178D02*
X0047948D01*
X0047498Y0026728D02*
Y0027628D01*
X0047048Y0029718D02*
X0047948D01*
X0047498Y0029268D02*
Y0030168D01*
X0047048Y0032258D02*
X0047948D01*
X0047498Y0031808D02*
Y0032708D01*
X0047048Y0034798D02*
X0047948D01*
X0047498Y0034348D02*
Y0035248D01*
X0047048Y0037338D02*
X0047948D01*
X0047498Y0036888D02*
Y0037788D01*
X0047048Y0039878D02*
X0047948D01*
X0047498Y0039428D02*
Y0040328D01*
X0047048Y0042418D02*
X0047948D01*
X0047498Y0041968D02*
Y0042868D01*
X0047048Y0044958D02*
X0047948D01*
X0047498Y0044508D02*
Y0045408D01*
X0047048Y0047498D02*
X0047948D01*
X0047498Y0047048D02*
Y0047948D01*
X0047048Y0006858D02*
X0047948D01*
X0047498Y0006408D02*
Y0007308D01*
X0054922Y0009398D02*
X0055822D01*
X0055372Y0008948D02*
Y0009848D01*
X0052382Y0009398D02*
X0053282D01*
X0052832Y0008948D02*
Y0009848D01*
X0031808Y00069088D02*
X0032708D01*
X0032258Y00064588D02*
Y00073588D01*
X0031808Y00475488D02*
X0032708D01*
X0032258Y00470988D02*
Y00479988D01*
X0031808Y00450088D02*
X0032708D01*
X0032258Y00445588D02*
Y00454588D01*
X0031808Y00424688D02*
X0032708D01*
X0032258Y00420188D02*
Y00429188D01*
X0031808Y00399288D02*
X0032708D01*
X0032258Y00394788D02*
Y00403788D01*
X0031808Y00373888D02*
X0032708D01*
X0032258Y00369388D02*
Y00378388D01*
X0031808Y00348488D02*
X0032708D01*
X0032258Y00343988D02*
Y00352988D01*
X0031808Y00323088D02*
X0032708D01*
X0032258Y00318588D02*
Y00327588D01*
X0031808Y00297688D02*
X0032708D01*
X0032258Y00293188D02*
Y00302188D01*
X0031808Y00272288D02*
X0032708D01*
X0032258Y00267788D02*
Y00276788D01*
X0031808Y00246888D02*
X0032708D01*
X0032258Y00242388D02*
Y00251388D01*
X0031808Y00221488D02*
X0032708D01*
X0032258Y00216988D02*
Y00225988D01*
X0031808Y00196088D02*
X0032708D01*
X0032258Y00191588D02*
Y00200588D01*
X0031808Y00170688D02*
X0032708D01*
X0032258Y00166188D02*
Y00175188D01*
X0031808Y00145288D02*
X0032708D01*
X0032258Y00140788D02*
Y00149788D01*
X00474726Y00755142D02*
X00481838D01*
X00478282Y00751586D02*
Y00758698D01*
X00426974Y00743712D02*
X00434086D01*
X0043053Y00740156D02*
Y00747268D01*
X00409956Y00743204D02*
X00417068D01*
X00413512Y00739648D02*
Y0074676D01*
X00383286Y00523494D02*
X00390398D01*
X00386842Y00519938D02*
Y0052705D01*
X00326644Y006477D02*
X00333756D01*
X003302Y00644144D02*
Y00651256D01*
X00326644Y0056515D02*
X00333756D01*
X003302Y00561594D02*
Y00568706D01*
X00542544Y0076835D02*
X00549656D01*
X005461Y00764794D02*
Y00771906D01*
X00165583Y00725423D02*
X00172695D01*
X00169139Y00721867D02*
Y00728979D01*
X00225044Y00607012D02*
X00232156D01*
X002286Y00603456D02*
Y00610568D01*
X00207452Y00623758D02*
X00214564D01*
X00211008Y00620202D02*
Y00627314D01*
X00548894Y006731D02*
X00556006D01*
X0055245Y00669544D02*
Y00676656D01*
X00555244Y005715D02*
X00562356D01*
X005588Y00567944D02*
Y00575056D01*
X00542544Y0046355D02*
X00549656D01*
X005461Y00459994D02*
Y00467106D01*
X00218694Y000762D02*
X00225806D01*
X0022225Y00072644D02*
Y00079756D01*
X00388874Y0085278D02*
X00395986D01*
X0039243Y00849224D02*
Y00856336D01*
X00029464Y0086868D02*
X00036576D01*
X0003302Y00865124D02*
Y00872236D01*
X00085598Y0012573D02*
X0009271D01*
X00089154Y00122174D02*
Y00129286D01*
X0009271Y00415798D02*
X00099822D01*
X00096266Y00412242D02*
Y00419354D01*
X00168656Y00788924D02*
X00175768D01*
X00172212Y00785368D02*
Y0079248D01*
X00355092Y00495554D02*
X00362204D01*
X00358648Y00491998D02*
Y0049911D01*
X00441706Y0053721D02*
X00448818D01*
X00445262Y00533654D02*
Y00540766D01*
X00446786Y00500126D02*
X00453898D01*
X00450342Y0049657D02*
Y00503682D01*
X00459994Y007112D02*
X00467106D01*
X0046355Y00707644D02*
Y00714756D01*
X00459994Y006858D02*
X00467106D01*
X0046355Y00682244D02*
Y00689356D01*
X00486664Y0081534D02*
X00493776D01*
X0049022Y00811784D02*
Y00818896D01*
X00395224Y0073152D02*
X00402336D01*
X0039878Y00727964D02*
Y00735076D01*
X00059944Y0017285D02*
X00067056D01*
X000635Y00169294D02*
Y00176406D01*
X00390144Y0083312D02*
X00397256D01*
X003937Y00829564D02*
Y00836676D01*
X00400304Y0080772D02*
X00407416D01*
X0040386Y00804164D02*
Y00811276D01*
X00374904Y008128D02*
X00382016D01*
X0037846Y00809244D02*
Y00816356D01*
X00506984Y008128D02*
X00514096D01*
X0051054Y00809244D02*
Y00816356D01*
X00362204Y0076708D02*
X00369316D01*
X0036576Y00763524D02*
Y00770636D01*
X00443409Y00772111D02*
X00445409D01*
X00444409Y00771111D02*
Y00773111D01*
X00451159Y0078486D02*
X00453159D01*
X00452159Y0078386D02*
Y0078586D01*
X00443409Y00797611D02*
X00445409D01*
X00444409Y00796611D02*
Y00798611D01*
X00435659Y0078486D02*
X00437659D01*
X00436659Y0078386D02*
Y0078586D01*
X0014886Y0012022D02*
X0015086D01*
X0014986Y0011922D02*
Y0012122D01*
X0014886Y0010922D02*
X0015086D01*
X0014986Y0010822D02*
Y0011022D01*
M02*
