G04*
G04 #@! TF.GenerationSoftware,Altium Limited,Altium Designer,19.1.8 (144)*
G04*
G04 Layer_Physical_Order=2*
G04 Layer_Color=16711680*
%FSTAX44Y44*%
%MOMM*%
G71*
G01*
G75*
%ADD17R,1.4000X1.5000*%
%ADD87C,0.5000*%
%ADD89C,1.0160*%
%ADD90C,0.2540*%
%ADD91C,0.5080*%
%ADD92C,0.7620*%
%ADD95C,1.2700*%
%ADD99R,1.5000X1.5000*%
%ADD100C,1.5000*%
%ADD101R,1.5000X4.0000*%
%ADD102R,1.5000X3.5000*%
%ADD103R,3.5000X1.5000*%
%ADD104O,0.9500X1.2500*%
%ADD105O,1.5500X0.9000*%
%ADD106R,1.3500X1.3500*%
%ADD107C,1.3500*%
%ADD108C,0.4500*%
%ADD109R,1.5000X1.5000*%
%ADD110C,1.2700*%
%ADD111R,1.0000X0.8000*%
%ADD112R,0.7000X1.5000*%
G36*
X0005588Y00826262D02*
X0006985D01*
Y0060325D01*
X001143Y005588D01*
X0018415D01*
Y002032D01*
X001778Y0019685D01*
X0003175D01*
Y00139954D01*
X00106172D01*
X00106172Y00070866D01*
X00180504D01*
X00252879Y0015875D01*
X005207D01*
Y00585844D01*
X0053963D01*
Y00604908D01*
X005207D01*
Y00615381D01*
X00520864Y00615471D01*
X0052197Y00615711D01*
X005233Y00613978D01*
X00525291Y0061245D01*
X0052761Y00611489D01*
X00530098Y00611162D01*
X00532586Y00611489D01*
X00534905Y0061245D01*
X00536896Y00613978D01*
X00538424Y00615969D01*
X00539385Y00618288D01*
X00539712Y00620776D01*
X00539385Y00623264D01*
X00538424Y00625583D01*
X00536896Y00627574D01*
X00534905Y00629102D01*
X00532586Y00630063D01*
X00530098Y0063039D01*
X0052761Y00630063D01*
X00525291Y00629102D01*
X005233Y00627574D01*
X0052197Y00625841D01*
X00520864Y00626081D01*
X005207Y00626171D01*
Y008255D01*
X0059055D01*
Y000127D01*
X005842D01*
Y000127D01*
X00003048D01*
X00003048Y00697209D01*
X00004318Y00697292D01*
X00004321Y00697268D01*
X00005031Y00695556D01*
X00006159Y00694085D01*
X0000763Y00692957D01*
X00009342Y00692247D01*
X0001118Y00692005D01*
X0001316D01*
Y00699106D01*
Y00706207D01*
X0001118D01*
X00009342Y00705965D01*
X0000763Y00705255D01*
X00006159Y00704127D01*
X00005031Y00702656D01*
X00004321Y00700944D01*
X00004318Y00700919D01*
X00003048Y00701003D01*
Y00767209D01*
X00004318Y00767292D01*
X00004321Y00767268D01*
X00005031Y00765556D01*
X00006159Y00764085D01*
X0000763Y00762957D01*
X00009342Y00762247D01*
X0001118Y00762005D01*
X0001316D01*
Y00769106D01*
Y00776207D01*
X0001118D01*
X00009342Y00775965D01*
X0000763Y00775255D01*
X00006159Y00774127D01*
X00005031Y00772656D01*
X00004321Y00770944D01*
X00004318Y00770919D01*
X00003048Y00771003D01*
Y00826262D01*
X0001016D01*
Y0089662D01*
X0005588D01*
Y00826262D01*
D02*
G37*
%LPC*%
G36*
X0001768Y00776207D02*
X000157D01*
Y00770376D01*
X00024613D01*
X00024539Y00770944D01*
X00023829Y00772656D01*
X00022701Y00774127D01*
X0002123Y00775255D01*
X00019518Y00775965D01*
X0001768Y00776207D01*
D02*
G37*
G36*
X0054737Y0077715D02*
Y0076962D01*
X00554899D01*
X00554761Y00770671D01*
X00553865Y00772833D01*
X0055244Y0077469D01*
X00550583Y00776115D01*
X00548421Y00777011D01*
X0054737Y0077715D01*
D02*
G37*
G36*
X0054483D02*
X00543779Y00777011D01*
X00541617Y00776115D01*
X0053976Y0077469D01*
X00538335Y00772833D01*
X00537439Y00770671D01*
X005373Y0076962D01*
X0054483D01*
Y0077715D01*
D02*
G37*
G36*
X00024613Y00767836D02*
X000157D01*
Y00762005D01*
X0001768D01*
X00019518Y00762247D01*
X0002123Y00762957D01*
X00022701Y00764085D01*
X00023829Y00765556D01*
X00024539Y00767268D01*
X00024613Y00767836D01*
D02*
G37*
G36*
X000427Y00767792D02*
Y00760376D01*
X00048783D01*
Y00760606D01*
X00048532Y00762509D01*
X00047798Y00764283D01*
X00046629Y00765805D01*
X00045107Y00766974D01*
X00043333Y00767708D01*
X000427Y00767792D01*
D02*
G37*
G36*
X0004016D02*
X00039527Y00767708D01*
X00037754Y00766974D01*
X00036231Y00765805D01*
X00035062Y00764283D01*
X00034328Y00762509D01*
X00034077Y00760606D01*
Y00760376D01*
X0004016D01*
Y00767792D01*
D02*
G37*
G36*
X00554899Y0076708D02*
X0054737D01*
Y0075955D01*
X00548421Y00759689D01*
X00550583Y00760585D01*
X0055244Y0076201D01*
X00553865Y00763867D01*
X00554761Y00766029D01*
X00554899Y0076708D01*
D02*
G37*
G36*
X0054483D02*
X005373D01*
X00537439Y00766029D01*
X00538335Y00763867D01*
X0053976Y0076201D01*
X00541617Y00760585D01*
X00543779Y00759689D01*
X0054483Y0075955D01*
Y0076708D01*
D02*
G37*
G36*
X00048783Y00757836D02*
X000427D01*
Y0075042D01*
X00043333Y00750504D01*
X00045107Y00751238D01*
X00046629Y00752407D01*
X00047798Y0075393D01*
X00048532Y00755703D01*
X00048783Y00757606D01*
Y00757836D01*
D02*
G37*
G36*
X0004016D02*
X00034077D01*
Y00757606D01*
X00034328Y00755703D01*
X00035062Y0075393D01*
X00036231Y00752407D01*
X00037754Y00751238D01*
X00039527Y00750504D01*
X0004016Y0075042D01*
Y00757836D01*
D02*
G37*
G36*
X0001768Y00706207D02*
X000157D01*
Y00700376D01*
X00024613D01*
X00024539Y00700944D01*
X00023829Y00702656D01*
X00022701Y00704127D01*
X0002123Y00705255D01*
X00019518Y00705965D01*
X0001768Y00706207D01*
D02*
G37*
G36*
X00024613Y00697836D02*
X000157D01*
Y00692005D01*
X0001768D01*
X00019518Y00692247D01*
X0002123Y00692957D01*
X00022701Y00694085D01*
X00023829Y00695556D01*
X00024539Y00697268D01*
X00024613Y00697836D01*
D02*
G37*
G36*
X0055372Y00681899D02*
Y0067437D01*
X0056125D01*
X00561111Y00675421D01*
X00560215Y00677583D01*
X0055879Y0067944D01*
X00556933Y00680865D01*
X00554771Y00681761D01*
X0055372Y00681899D01*
D02*
G37*
G36*
X0055118D02*
X00550129Y00681761D01*
X00547967Y00680865D01*
X0054611Y0067944D01*
X00544685Y00677583D01*
X00543789Y00675421D01*
X00543651Y0067437D01*
X0055118D01*
Y00681899D01*
D02*
G37*
G36*
X0056125Y0067183D02*
X0055372D01*
Y00664301D01*
X00554771Y00664439D01*
X00556933Y00665335D01*
X0055879Y0066676D01*
X00560215Y00668617D01*
X00561111Y00670779D01*
X0056125Y0067183D01*
D02*
G37*
G36*
X0055118D02*
X00543651D01*
X00543789Y00670779D01*
X00544685Y00668617D01*
X0054611Y0066676D01*
X00547967Y00665335D01*
X00550129Y00664439D01*
X0055118Y00664301D01*
Y0067183D01*
D02*
G37*
G36*
X0056007Y00580299D02*
Y0057277D01*
X00567599D01*
X00567461Y00573821D01*
X00566565Y00575983D01*
X0056514Y0057784D01*
X00563283Y00579265D01*
X00561121Y00580161D01*
X0056007Y00580299D01*
D02*
G37*
G36*
X0055753D02*
X00556479Y00580161D01*
X00554317Y00579265D01*
X0055246Y0057784D01*
X00551035Y00575983D01*
X00550139Y00573821D01*
X0055Y0057277D01*
X0055753D01*
Y00580299D01*
D02*
G37*
G36*
X00567599Y0057023D02*
X0056007D01*
Y00562701D01*
X00561121Y00562839D01*
X00563283Y00563735D01*
X0056514Y0056516D01*
X00566565Y00567017D01*
X00567461Y00569179D01*
X00567599Y0057023D01*
D02*
G37*
G36*
X0055753D02*
X0055D01*
X00550139Y00569179D01*
X00551035Y00567017D01*
X0055246Y0056516D01*
X00554317Y00563735D01*
X00556479Y00562839D01*
X0055753Y00562701D01*
Y0057023D01*
D02*
G37*
G36*
X0054737Y0047235D02*
Y0046482D01*
X00554899D01*
X00554761Y00465871D01*
X00553865Y00468033D01*
X0055244Y0046989D01*
X00550583Y00471315D01*
X00548421Y00472211D01*
X0054737Y0047235D01*
D02*
G37*
G36*
X0054483D02*
X00543779Y00472211D01*
X00541617Y00471315D01*
X0053976Y0046989D01*
X00538335Y00468033D01*
X00537439Y00465871D01*
X005373Y0046482D01*
X0054483D01*
Y0047235D01*
D02*
G37*
G36*
X00554899Y0046228D02*
X0054737D01*
Y00454751D01*
X00548421Y00454889D01*
X00550583Y00455785D01*
X0055244Y0045721D01*
X00553865Y00459067D01*
X00554761Y00461229D01*
X00554899Y0046228D01*
D02*
G37*
G36*
X0054483D02*
X005373D01*
X00537439Y00461229D01*
X00538335Y00459067D01*
X0053976Y0045721D01*
X00541617Y00455785D01*
X00543779Y00454889D01*
X0054483Y00454751D01*
Y0046228D01*
D02*
G37*
G36*
X00097536Y00424598D02*
Y00417068D01*
X00105065D01*
X00104927Y00418119D01*
X00104031Y00420281D01*
X00102606Y00422138D01*
X00100749Y00423563D01*
X00098587Y00424459D01*
X00097536Y00424598D01*
D02*
G37*
G36*
X00094996D02*
X00093945Y00424459D01*
X00091783Y00423563D01*
X00089926Y00422138D01*
X00088501Y00420281D01*
X00087605Y00418119D01*
X00087466Y00417068D01*
X00094996D01*
Y00424598D01*
D02*
G37*
G36*
X00105065Y00414528D02*
X00097536D01*
Y00406998D01*
X00098587Y00407137D01*
X00100749Y00408033D01*
X00102606Y00409458D01*
X00104031Y00411315D01*
X00104927Y00413477D01*
X00105065Y00414528D01*
D02*
G37*
G36*
X00094996D02*
X00087466D01*
X00087605Y00413477D01*
X00088501Y00411315D01*
X00089926Y00409458D01*
X00091783Y00408033D01*
X00093945Y00407137D01*
X00094996Y00406998D01*
Y00414528D01*
D02*
G37*
G36*
X0032258Y00154902D02*
X00320092Y00154575D01*
X00317773Y00153614D01*
X00315782Y00152086D01*
X00314254Y00150095D01*
X00313293Y00147776D01*
X00312966Y00145288D01*
X00313293Y001428D01*
X00314254Y00140481D01*
X00315782Y0013849D01*
X00317773Y00136962D01*
X00320092Y00136001D01*
X0032258Y00135674D01*
X00325068Y00136001D01*
X00327387Y00136962D01*
X00329378Y0013849D01*
X00330906Y00140481D01*
X00331867Y001428D01*
X00332194Y00145288D01*
X00331867Y00147776D01*
X00330906Y00150095D01*
X00329378Y00152086D01*
X00327387Y00153614D01*
X00325068Y00154575D01*
X0032258Y00154902D01*
D02*
G37*
G36*
X0047498Y00154394D02*
X00472492Y00154067D01*
X00470173Y00153106D01*
X00468182Y00151578D01*
X00466654Y00149587D01*
X00465693Y00147268D01*
X00465366Y0014478D01*
X00465693Y00142292D01*
X00466654Y00139973D01*
X00468182Y00137982D01*
X00470173Y00136454D01*
X00472492Y00135493D01*
X0047498Y00135166D01*
X00477468Y00135493D01*
X00479787Y00136454D01*
X00481778Y00137982D01*
X00483306Y00139973D01*
X00484267Y00142292D01*
X00484594Y0014478D01*
X00484267Y00147268D01*
X00483306Y00149587D01*
X00481778Y00151578D01*
X00479787Y00153106D01*
X00477468Y00154067D01*
X0047498Y00154394D01*
D02*
G37*
G36*
X00090424Y00134529D02*
Y00127D01*
X00097954D01*
X00097815Y00128051D01*
X00096919Y00130213D01*
X00095494Y0013207D01*
X00093637Y00133495D01*
X00091475Y00134391D01*
X00090424Y00134529D01*
D02*
G37*
G36*
X00087884D02*
X00086833Y00134391D01*
X00084671Y00133495D01*
X00082814Y0013207D01*
X00081389Y00130213D01*
X00080493Y00128051D01*
X00080354Y00127D01*
X00087884D01*
Y00134529D01*
D02*
G37*
G36*
X00097954Y0012446D02*
X00090424D01*
Y00116931D01*
X00091475Y00117069D01*
X00093637Y00117965D01*
X00095494Y0011939D01*
X00096919Y00121247D01*
X00097815Y00123409D01*
X00097954Y0012446D01*
D02*
G37*
G36*
X00087884D02*
X00080354D01*
X00080493Y00123409D01*
X00081389Y00121247D01*
X00082814Y0011939D01*
X00084671Y00117965D01*
X00086833Y00117069D01*
X00087884Y00116931D01*
Y0012446D01*
D02*
G37*
G36*
X0032258Y00129502D02*
X00320092Y00129175D01*
X00317773Y00128214D01*
X00315782Y00126686D01*
X00314254Y00124695D01*
X00313293Y00122376D01*
X00312966Y00119888D01*
X00313293Y001174D01*
X00314254Y00115081D01*
X00315782Y0011309D01*
X00317773Y00111562D01*
X00320092Y00110601D01*
X0032258Y00110274D01*
X00325068Y00110601D01*
X00327387Y00111562D01*
X00329378Y0011309D01*
X00330906Y00115081D01*
X00331867Y001174D01*
X00332194Y00119888D01*
X00331867Y00122376D01*
X00330906Y00124695D01*
X00329378Y00126686D01*
X00327387Y00128214D01*
X00325068Y00129175D01*
X0032258Y00129502D01*
D02*
G37*
G36*
X0047498Y00128994D02*
X00472492Y00128667D01*
X00470173Y00127706D01*
X00468182Y00126178D01*
X00466654Y00124187D01*
X00465693Y00121868D01*
X00465366Y0011938D01*
X00465693Y00116892D01*
X00466654Y00114573D01*
X00468182Y00112582D01*
X00470173Y00111054D01*
X00472492Y00110093D01*
X0047498Y00109766D01*
X00477468Y00110093D01*
X00479787Y00111054D01*
X00481778Y00112582D01*
X00483306Y00114573D01*
X00484267Y00116892D01*
X00484594Y0011938D01*
X00484267Y00121868D01*
X00483306Y00124187D01*
X00481778Y00126178D01*
X00479787Y00127706D01*
X00477468Y00128667D01*
X0047498Y00128994D01*
D02*
G37*
G36*
X0032258Y00104102D02*
X00320092Y00103775D01*
X00317773Y00102814D01*
X00315782Y00101286D01*
X00314254Y00099295D01*
X00313293Y00096976D01*
X00312966Y00094488D01*
X00313293Y00092D01*
X00314254Y00089681D01*
X00315782Y0008769D01*
X00317773Y00086162D01*
X00320092Y00085201D01*
X0032258Y00084874D01*
X00325068Y00085201D01*
X00327387Y00086162D01*
X00329378Y0008769D01*
X00330906Y00089681D01*
X00331867Y00092D01*
X00332194Y00094488D01*
X00331867Y00096976D01*
X00330906Y00099295D01*
X00329378Y00101286D01*
X00327387Y00102814D01*
X00325068Y00103775D01*
X0032258Y00104102D01*
D02*
G37*
G36*
X00537852Y00103512D02*
X00518788D01*
Y00084448D01*
X00537852D01*
Y00103512D01*
D02*
G37*
G36*
X0055372Y00103594D02*
X00551232Y00103267D01*
X00548913Y00102306D01*
X00546922Y00100778D01*
X00545394Y00098787D01*
X00544433Y00096468D01*
X00544106Y0009398D01*
X00544433Y00091492D01*
X00545394Y00089173D01*
X00546922Y00087182D01*
X00548913Y00085654D01*
X00551232Y00084693D01*
X0055372Y00084366D01*
X00556208Y00084693D01*
X00558527Y00085654D01*
X00560518Y00087182D01*
X00562046Y00089173D01*
X00563007Y00091492D01*
X00563334Y0009398D01*
X00563007Y00096468D01*
X00562046Y00098787D01*
X00560518Y00100778D01*
X00558527Y00102306D01*
X00556208Y00103267D01*
X0055372Y00103594D01*
D02*
G37*
G36*
X0047498D02*
X00472492Y00103267D01*
X00470173Y00102306D01*
X00468182Y00100778D01*
X00466654Y00098787D01*
X00465693Y00096468D01*
X00465366Y0009398D01*
X00465693Y00091492D01*
X00466654Y00089173D01*
X00468182Y00087182D01*
X00470173Y00085654D01*
X00472492Y00084693D01*
X0047498Y00084366D01*
X00477468Y00084693D01*
X00479787Y00085654D01*
X00481778Y00087182D01*
X00483306Y00089173D01*
X00484267Y00091492D01*
X00484594Y0009398D01*
X00484267Y00096468D01*
X00483306Y00098787D01*
X00481778Y00100778D01*
X00479787Y00102306D01*
X00477468Y00103267D01*
X0047498Y00103594D01*
D02*
G37*
G36*
X0022352Y00085D02*
Y0007747D01*
X00231049D01*
X00230911Y00078521D01*
X00230015Y00080683D01*
X0022859Y0008254D01*
X00226733Y00083965D01*
X00224571Y00084861D01*
X0022352Y00085D01*
D02*
G37*
G36*
X0022098D02*
X00219929Y00084861D01*
X00217767Y00083965D01*
X0021591Y0008254D01*
X00214485Y00080683D01*
X00213589Y00078521D01*
X00213451Y0007747D01*
X0022098D01*
Y00085D01*
D02*
G37*
G36*
X00231049Y0007493D02*
X0022352D01*
Y000674D01*
X00224571Y00067539D01*
X00226733Y00068435D01*
X0022859Y0006986D01*
X00230015Y00071717D01*
X00230911Y00073879D01*
X00231049Y0007493D01*
D02*
G37*
G36*
X0022098D02*
X00213451D01*
X00213589Y00073879D01*
X00214485Y00071717D01*
X0021591Y0006986D01*
X00217767Y00068435D01*
X00219929Y00067539D01*
X0022098Y000674D01*
Y0007493D01*
D02*
G37*
%LPD*%
D17*
X00173722Y0076962D02*
D03*
X00203722D02*
D03*
D87*
X00444409Y00772111D02*
D03*
X00452159Y0078486D02*
D03*
X00444409Y00797611D02*
D03*
X00436659Y0078486D02*
D03*
X0014986Y0012022D02*
D03*
Y0010922D02*
D03*
D89*
X003248Y0087376D02*
X0037145D01*
X0039243Y0085278D01*
D90*
X00478252Y00755172D02*
Y00823438D01*
X00482854Y0082804D01*
X00478252Y00755172D02*
X00478282Y00755142D01*
X00490982Y00262382D02*
Y00814578D01*
X0047498Y0024638D02*
X00490982Y00262382D01*
X0049022Y0081534D02*
X00490982Y00814578D01*
X0043053Y0024003D02*
X0047498Y0019558D01*
X0043053Y0024003D02*
Y00743712D01*
X00413512Y00231648D02*
X0047498Y0017018D01*
X00413512Y00231648D02*
Y00743204D01*
X00168123Y00745183D02*
X00170715Y00747775D01*
X00168123Y00745183D02*
X00169139Y00744167D01*
X0020177Y0087376D02*
X0021701Y00889D01*
X00172212Y0077113D02*
X00173722Y0076962D01*
X00449834Y00500126D02*
X00450342D01*
X0044958Y0050038D02*
X00449834Y00500126D01*
X0044958Y0029718D02*
Y0050038D01*
X00482854Y0082804D02*
X0051562D01*
X0039878Y00730032D02*
X00400268Y0073152D01*
X0039878D02*
X00400268D01*
X0039624Y00320548D02*
X0039878Y00323088D01*
Y00730032D01*
X0044958Y0029718D02*
X0047498Y0027178D01*
X0032258Y00246888D02*
X0039624Y00320548D01*
X00205461Y00747521D02*
X00205715Y00747775D01*
X000635Y0017285D02*
X0013449D01*
X00199136Y0013462D02*
X00228346Y0016383D01*
X0017272Y0013462D02*
X00199136D01*
X0013449Y0017285D02*
X0017272Y0013462D01*
X00416143Y0081788D02*
X0041656Y00817464D01*
X0054356Y00889D02*
X00550324Y00882236D01*
X003048Y0087376D02*
X0031496Y0088392D01*
X0021701Y00889D02*
X0054356D01*
X0011906Y0089408D02*
X0054864D01*
X0009874Y0087376D02*
X0011906Y0089408D01*
X0050038Y0088392D02*
X00505324Y00878976D01*
X0031496Y0088392D02*
X0050038D01*
X0054864Y0089408D02*
X00565006Y00877714D01*
X0051562Y0082804D02*
X00520324Y00832744D01*
Y00867892D01*
X0051054Y0025654D02*
Y008128D01*
X0047498Y0022098D02*
X0051054Y0025654D01*
X00505324Y00867892D02*
Y00878976D01*
X00550324Y00867892D02*
Y00882236D01*
X00565006Y0086821D02*
X00565324Y00867892D01*
X00565006Y0086821D02*
Y00877714D01*
X0021987Y0083566D02*
X0022352D01*
D91*
X00169139Y00725423D02*
Y00744167D01*
X002286Y00607012D02*
Y0071882D01*
X0018796Y00744064D02*
X00211008Y00721016D01*
Y00623758D02*
Y00721016D01*
X00203722Y0076962D02*
X00243332D01*
X00193253D02*
X00203722D01*
X0018796Y00764327D02*
X00193253Y0076962D01*
X0018796Y00744064D02*
Y00764327D01*
X00172212Y0077113D02*
Y00788924D01*
X00243332Y0076962D02*
X0027559Y00737362D01*
X0020574Y00746506D02*
X00234696D01*
X00258318Y00722884D02*
X00352044D01*
X00234696Y00746506D02*
X00258318Y00722884D01*
X0020574Y0074168D02*
X002286Y0071882D01*
X0040386Y007747D02*
Y0080772D01*
X00352044Y00722884D02*
X0040386Y007747D01*
X00353822Y00737362D02*
X0037846Y00762D01*
Y008128D01*
X0027559Y00737362D02*
X00353822D01*
D92*
X003302Y0056515D02*
Y006477D01*
X00202946Y00558546D02*
X0041656Y0077216D01*
X00202946Y0016383D02*
Y00558546D01*
X0041656Y0077216D02*
Y00817464D01*
X003937Y0083312D02*
X00394672Y00832148D01*
X00401875D02*
X00416143Y0081788D01*
X00394672Y00832148D02*
X00401875D01*
D95*
X002848Y0083566D02*
Y0087376D01*
X0022352Y0083566D02*
X002848D01*
X0032004D01*
X00181923Y0083566D02*
X00181923Y0083566D01*
X00181923Y0083566D02*
Y00873607D01*
X001016Y0083566D02*
X0021987D01*
X00386842Y00523494D02*
Y00523494D01*
X00358902Y00495554D02*
X00386842Y00523494D01*
X0007874Y0085852D02*
X001016Y0083566D01*
X0018177Y0087376D02*
X00181923Y00873607D01*
X00358648Y00495554D02*
X00358902D01*
X0036576Y0076708D02*
Y0078994D01*
X0032004Y0083566D02*
X0036576Y0078994D01*
X0007874Y0085852D02*
Y0087376D01*
D99*
X00170715Y00747775D02*
D03*
X00205715D02*
D03*
X00228346Y0016383D02*
D03*
X0052832Y0009398D02*
D03*
D100*
X00202946Y0016383D02*
D03*
X0032258Y00094488D02*
D03*
Y00119888D02*
D03*
X0047498Y0009398D02*
D03*
Y0011938D02*
D03*
X00530098Y00620776D02*
D03*
X0047498Y0014478D02*
D03*
Y0017018D02*
D03*
Y0019558D02*
D03*
Y0022098D02*
D03*
Y0024638D02*
D03*
Y0027178D02*
D03*
Y0029718D02*
D03*
Y0032258D02*
D03*
Y0034798D02*
D03*
Y0037338D02*
D03*
Y0039878D02*
D03*
Y0042418D02*
D03*
Y0044958D02*
D03*
Y0047498D02*
D03*
X0055372Y0009398D02*
D03*
X0032258Y00475488D02*
D03*
Y00450088D02*
D03*
Y00424688D02*
D03*
Y00399288D02*
D03*
Y00373888D02*
D03*
Y00348488D02*
D03*
Y00323088D02*
D03*
Y00297688D02*
D03*
Y00272288D02*
D03*
Y00246888D02*
D03*
Y00221488D02*
D03*
Y00196088D02*
D03*
Y00170688D02*
D03*
Y00145288D02*
D03*
D101*
X00118646Y00594868D02*
D03*
D102*
X00058646D02*
D03*
D103*
X00088646Y00547868D02*
D03*
D104*
X0004143Y00709106D02*
D03*
Y00759106D02*
D03*
D105*
X0001443Y00699106D02*
D03*
Y00769106D02*
D03*
D106*
X0022177Y0087376D02*
D03*
X003248D02*
D03*
X0011874D02*
D03*
D107*
X0020177D02*
D03*
X0018177D02*
D03*
X003048D02*
D03*
X002848D02*
D03*
X0009874D02*
D03*
X0007874D02*
D03*
D108*
X00510324Y00850392D02*
D03*
X00560324D02*
D03*
D109*
X00530098Y00595376D02*
D03*
X0047498Y0006858D02*
D03*
X0032258Y00069088D02*
D03*
D110*
X00478282Y00755142D02*
D03*
X0043053Y00743712D02*
D03*
X00413512Y00743204D02*
D03*
X00386842Y00523494D02*
D03*
X003302Y006477D02*
D03*
Y0056515D02*
D03*
X005461Y0076835D02*
D03*
X00169139Y00725423D02*
D03*
X002286Y00607012D02*
D03*
X00211008Y00623758D02*
D03*
X0055245Y006731D02*
D03*
X005588Y005715D02*
D03*
X005461Y0046355D02*
D03*
X0022225Y000762D02*
D03*
X0039243Y0085278D02*
D03*
X0003302Y0086868D02*
D03*
X00089154Y0012573D02*
D03*
X00096266Y00415798D02*
D03*
X00172212Y00788924D02*
D03*
X00358648Y00495554D02*
D03*
X00445262Y0053721D02*
D03*
X00450342Y00500126D02*
D03*
X0046355Y007112D02*
D03*
Y006858D02*
D03*
X0049022Y0081534D02*
D03*
X0039878Y0073152D02*
D03*
X000635Y0017285D02*
D03*
X003937Y0083312D02*
D03*
X0040386Y0080772D02*
D03*
X0037846Y008128D02*
D03*
X0051054D02*
D03*
X0036576Y0076708D02*
D03*
D111*
X00483824Y00860892D02*
D03*
Y00839892D02*
D03*
X00586824Y00842492D02*
D03*
Y00860892D02*
D03*
D112*
X00505324Y00867892D02*
D03*
X00520324D02*
D03*
X00550324D02*
D03*
X00565324D02*
D03*
M02*
