G04*
G04 #@! TF.GenerationSoftware,Altium Limited,Altium Designer,19.1.8 (144)*
G04*
G04 Layer_Color=32896*
%FSTAX44Y44*%
%MOMM*%
G71*
G01*
G75*
%ADD11C,0.2000*%
%ADD12C,0.1270*%
%ADD13R,0.2040X1.3000*%
%ADD115C,0.1000*%
%ADD116C,0.4000*%
G36*
X00158242Y00529082D02*
Y0052705D01*
X00160274D01*
Y00525018D01*
Y00522986D01*
Y00520954D01*
Y00518922D01*
Y0051689D01*
X00162306D01*
Y00514858D01*
X00164338D01*
Y00512826D01*
X00168402D01*
Y00510794D01*
X00170434D01*
Y00508762D01*
X00172466D01*
Y0050673D01*
X00174498D01*
Y00504698D01*
X0017653D01*
Y00502666D01*
X00178562D01*
Y00500634D01*
X00180594D01*
Y00498602D01*
X00182626D01*
Y0049657D01*
X00184658D01*
Y00494538D01*
X0018669D01*
Y00492506D01*
X00188722D01*
Y00490474D01*
X00192786D01*
Y00488442D01*
X00194818D01*
Y0048641D01*
X0019685D01*
Y00484378D01*
X00198882D01*
Y00482346D01*
X00200914D01*
Y00480314D01*
X00209042D01*
Y00478282D01*
X00213106D01*
Y0047625D01*
X00215138D01*
Y00474218D01*
Y00472186D01*
X0021717D01*
Y00470154D01*
Y00468122D01*
X00215138D01*
Y0046609D01*
Y00464058D01*
X00213106D01*
Y00462026D01*
X00211074D01*
Y00459994D01*
X00209042D01*
Y00457962D01*
X0020701D01*
Y00459994D01*
X00200914D01*
Y00457962D01*
Y0045593D01*
Y00453898D01*
X00198882D01*
Y0045593D01*
X0019685D01*
Y00457962D01*
X00198882D01*
Y00459994D01*
Y00462026D01*
X0019685D01*
Y00464058D01*
X00194818D01*
Y0046609D01*
X00188722D01*
Y00464058D01*
X00182626D01*
Y00462026D01*
X00178562D01*
Y00459994D01*
X00168402D01*
Y00457962D01*
X00162306D01*
Y0045593D01*
X00158242D01*
Y00453898D01*
X00152146D01*
Y00451866D01*
X00148082D01*
Y00449834D01*
X0014605D01*
Y00447802D01*
Y0044577D01*
X00144018D01*
Y00443738D01*
Y00441706D01*
Y00439674D01*
X0014605D01*
Y00437642D01*
X00148082D01*
Y0043561D01*
Y00433578D01*
X00150114D01*
Y00431546D01*
X00152146D01*
Y00429514D01*
Y00427482D01*
X00154178D01*
Y0042545D01*
Y00423418D01*
X00152146D01*
Y0042545D01*
X00150114D01*
Y00427482D01*
Y00429514D01*
X00148082D01*
Y00431546D01*
X0014605D01*
Y00433578D01*
X00144018D01*
Y0043561D01*
X00141986D01*
Y00437642D01*
X00144018D01*
Y00439674D01*
X00129794D01*
Y00441706D01*
X0012573D01*
Y00443738D01*
Y0044577D01*
Y00447802D01*
X00121666D01*
Y00449834D01*
X0005461D01*
Y00447802D01*
Y0044577D01*
Y00443738D01*
Y00441706D01*
Y00439674D01*
X00056642D01*
Y00437642D01*
X00058674D01*
Y0043561D01*
Y00433578D01*
Y00431546D01*
X00060706D01*
Y00429514D01*
Y00427482D01*
X0006477D01*
Y0042545D01*
Y00423418D01*
X00066802D01*
Y00421386D01*
Y00419354D01*
X00068834D01*
Y00417322D01*
Y0041529D01*
X00070866D01*
Y00413258D01*
X00072898D01*
Y00411226D01*
Y00409194D01*
Y00407162D01*
X0007493D01*
Y0040513D01*
X00076962D01*
Y00403098D01*
Y00401066D01*
X00078994D01*
Y00399034D01*
X00081026D01*
Y00397002D01*
Y0039497D01*
X00091186D01*
Y00397002D01*
X00093218D01*
Y00399034D01*
X0009525D01*
Y00401066D01*
X00097282D01*
Y00403098D01*
Y0040513D01*
X00099314D01*
Y00407162D01*
X00101346D01*
Y00409194D01*
X00103378D01*
Y00411226D01*
Y00413258D01*
X0010541D01*
Y0041529D01*
Y00417322D01*
X00107442D01*
Y00419354D01*
X00109474D01*
Y00421386D01*
X00111506D01*
Y00423418D01*
Y0042545D01*
X00113538D01*
Y00427482D01*
X0011557D01*
Y00429514D01*
Y00431546D01*
X00117602D01*
Y00433578D01*
Y0043561D01*
X00119634D01*
Y00437642D01*
X00121666D01*
Y00439674D01*
X00123698D01*
Y00441706D01*
X0012573D01*
Y00439674D01*
Y00437642D01*
Y0043561D01*
X00123698D01*
Y00433578D01*
X00121666D01*
Y00431546D01*
X00119634D01*
Y00429514D01*
X00117602D01*
Y00427482D01*
Y0042545D01*
X0011557D01*
Y00423418D01*
X00113538D01*
Y00421386D01*
Y00419354D01*
X00111506D01*
Y00417322D01*
X00109474D01*
Y0041529D01*
Y00413258D01*
X00107442D01*
Y00411226D01*
X0010541D01*
Y00409194D01*
Y00407162D01*
X00103378D01*
Y0040513D01*
X00101346D01*
Y00403098D01*
X00099314D01*
Y00401066D01*
Y00399034D01*
X00097282D01*
Y00397002D01*
Y0039497D01*
X0009525D01*
Y00392938D01*
X00093218D01*
Y00390906D01*
Y00388874D01*
X0009525D01*
Y00386842D01*
X00097282D01*
Y0038481D01*
X00103378D01*
Y00386842D01*
X00117602D01*
Y00388874D01*
X00131826D01*
Y00390906D01*
X00148082D01*
Y00392938D01*
X00162306D01*
Y0039497D01*
X00170434D01*
Y00397002D01*
Y00399034D01*
Y00401066D01*
X00168402D01*
Y00403098D01*
X0017653D01*
Y0040513D01*
X00180594D01*
Y00407162D01*
X00182626D01*
Y00409194D01*
Y00411226D01*
Y00413258D01*
X00184658D01*
Y00411226D01*
Y00409194D01*
Y00407162D01*
Y0040513D01*
Y00403098D01*
X0018669D01*
Y00401066D01*
X00188722D01*
Y00399034D01*
X00190754D01*
Y00397002D01*
Y0039497D01*
X0019685D01*
Y00397002D01*
X00209042D01*
Y00399034D01*
X00225298D01*
Y00401066D01*
Y00403098D01*
X0022733D01*
Y0040513D01*
Y00407162D01*
X00229362D01*
Y00409194D01*
Y00411226D01*
X0022733D01*
Y00413258D01*
Y0041529D01*
X00225298D01*
Y00417322D01*
Y00419354D01*
Y00421386D01*
X00223266D01*
Y00423418D01*
Y0042545D01*
X00221234D01*
Y00427482D01*
Y00429514D01*
X00223266D01*
Y00427482D01*
X00225298D01*
Y0042545D01*
Y00423418D01*
X0022733D01*
Y00421386D01*
Y00419354D01*
Y00417322D01*
X00229362D01*
Y0041529D01*
Y00413258D01*
X00231394D01*
Y00411226D01*
X00233426D01*
Y00409194D01*
X00239522D01*
Y00407162D01*
X00243586D01*
Y0040513D01*
Y00403098D01*
X00245618D01*
Y00401066D01*
Y00399034D01*
Y00397002D01*
Y0039497D01*
X00243586D01*
Y00392938D01*
X00241554D01*
Y00390906D01*
X00239522D01*
Y00388874D01*
Y00386842D01*
Y0038481D01*
Y00382778D01*
Y00380746D01*
Y00378714D01*
Y00376682D01*
Y0037465D01*
Y00372618D01*
Y00370586D01*
X00241554D01*
Y00368554D01*
Y00366522D01*
Y0036449D01*
Y00362458D01*
Y00360426D01*
Y00358394D01*
Y00356362D01*
Y0035433D01*
Y00352298D01*
Y00350266D01*
Y00348234D01*
Y00346202D01*
Y0034417D01*
Y00342138D01*
X00243586D01*
Y00340106D01*
Y00338074D01*
Y00336042D01*
X00245618D01*
Y0033401D01*
X0024765D01*
Y00331978D01*
Y00329946D01*
X00249682D01*
Y00327914D01*
Y00325882D01*
Y0032385D01*
Y00321818D01*
Y00319786D01*
X0024765D01*
Y00317754D01*
X00245618D01*
Y00315722D01*
X00235458D01*
Y00317754D01*
X00233426D01*
Y00319786D01*
X00231394D01*
Y00321818D01*
Y0032385D01*
X00158242D01*
Y00325882D01*
X00139954D01*
Y0032385D01*
X00137922D01*
Y00321818D01*
Y00319786D01*
X00133858D01*
Y00317754D01*
X00123698D01*
Y00319786D01*
X00113538D01*
Y00317754D01*
X00109474D01*
Y00315722D01*
X00103378D01*
Y0031369D01*
X00101346D01*
Y00311658D01*
X0009525D01*
Y00309626D01*
X00091186D01*
Y00307594D01*
X0008509D01*
Y00305562D01*
X00078994D01*
Y0030353D01*
X00076962D01*
Y00301498D01*
X0007493D01*
Y00299466D01*
X00070866D01*
Y00297434D01*
X00066802D01*
Y00299466D01*
X00062738D01*
Y00301498D01*
Y0030353D01*
Y00305562D01*
X00058674D01*
Y00307594D01*
Y00309626D01*
X00056642D01*
Y00311658D01*
Y0031369D01*
Y00315722D01*
Y00317754D01*
Y00319786D01*
X0005461D01*
Y00321818D01*
Y0032385D01*
X00052578D01*
Y00325882D01*
Y00327914D01*
X00050546D01*
Y00329946D01*
Y00331978D01*
X00048514D01*
Y0033401D01*
Y00336042D01*
Y00338074D01*
X00046482D01*
Y00340106D01*
Y00342138D01*
X0004445D01*
Y0034417D01*
Y00346202D01*
X00042418D01*
Y00348234D01*
X00040386D01*
Y00350266D01*
Y00352298D01*
X00038354D01*
Y0035433D01*
Y00356362D01*
X00036322D01*
Y00358394D01*
Y00360426D01*
Y00362458D01*
X00032258D01*
Y0036449D01*
X00030226D01*
Y00366522D01*
X00028194D01*
Y00368554D01*
X00026162D01*
Y00370586D01*
Y00372618D01*
X0002413D01*
Y0037465D01*
X00022098D01*
Y00376682D01*
X0002413D01*
Y00378714D01*
Y00380746D01*
X00026162D01*
Y00382778D01*
X00028194D01*
Y0038481D01*
X00032258D01*
Y00386842D01*
X00036322D01*
Y00388874D01*
Y00390906D01*
Y00392938D01*
Y0039497D01*
Y00397002D01*
Y00399034D01*
Y00401066D01*
Y00403098D01*
Y0040513D01*
Y00407162D01*
Y00409194D01*
Y00411226D01*
Y00413258D01*
Y0041529D01*
X00038354D01*
Y00417322D01*
Y00419354D01*
Y00421386D01*
Y00423418D01*
Y0042545D01*
Y00427482D01*
Y00429514D01*
Y00431546D01*
X00040386D01*
Y00433578D01*
Y0043561D01*
Y00437642D01*
Y00439674D01*
Y00441706D01*
Y00443738D01*
Y0044577D01*
X00036322D01*
Y00447802D01*
Y00449834D01*
Y00451866D01*
Y00453898D01*
Y0045593D01*
X00038354D01*
Y00457962D01*
X00040386D01*
Y00459994D01*
X00050546D01*
Y00462026D01*
X00052578D01*
Y00464058D01*
X0005461D01*
Y0046609D01*
X00056642D01*
Y00468122D01*
Y00470154D01*
X00058674D01*
Y00472186D01*
X00060706D01*
Y00474218D01*
X00062738D01*
Y0047625D01*
X0006477D01*
Y00478282D01*
X00066802D01*
Y00480314D01*
X00068834D01*
Y00482346D01*
Y00484378D01*
X00070866D01*
Y0048641D01*
X00072898D01*
Y00488442D01*
X0007493D01*
Y00490474D01*
X00076962D01*
Y00492506D01*
X00078994D01*
Y00494538D01*
Y0049657D01*
X00076962D01*
Y00498602D01*
X0007493D01*
Y00500634D01*
Y00502666D01*
Y00504698D01*
Y0050673D01*
X00076962D01*
Y00508762D01*
Y00510794D01*
X00078994D01*
Y00512826D01*
X00081026D01*
Y00514858D01*
X00091186D01*
Y00512826D01*
X0009525D01*
Y00510794D01*
X00103378D01*
Y00512826D01*
X00111506D01*
Y00514858D01*
X0011557D01*
Y0051689D01*
X00123698D01*
Y00518922D01*
X00129794D01*
Y00520954D01*
X0013589D01*
Y00522986D01*
X00144018D01*
Y00525018D01*
X0014605D01*
Y0052705D01*
X00148082D01*
Y00529082D01*
X00150114D01*
Y00531114D01*
X00158242D01*
Y00529082D01*
D02*
G37*
G36*
X00198882Y00451866D02*
Y00449834D01*
Y00447802D01*
X0019685D01*
Y00449834D01*
Y00451866D01*
Y00453898D01*
X00198882D01*
Y00451866D01*
D02*
G37*
G36*
X0019685Y0044577D02*
Y00443738D01*
X00194818D01*
Y0044577D01*
Y00447802D01*
X0019685D01*
Y0044577D01*
D02*
G37*
G36*
X00194818Y00441706D02*
Y00439674D01*
X00192786D01*
Y00441706D01*
Y00443738D01*
X00194818D01*
Y00441706D01*
D02*
G37*
G36*
X00213106Y00451866D02*
Y00449834D01*
X00215138D01*
Y00447802D01*
Y0044577D01*
X0021717D01*
Y00443738D01*
Y00441706D01*
Y00439674D01*
X00219202D01*
Y00437642D01*
X00221234D01*
Y0043561D01*
X00219202D01*
Y00433578D01*
X0021717D01*
Y0043561D01*
Y00437642D01*
X00215138D01*
Y00439674D01*
Y00441706D01*
X00213106D01*
Y00443738D01*
Y0044577D01*
X00211074D01*
Y00447802D01*
Y00449834D01*
Y00451866D01*
Y00453898D01*
X00213106D01*
Y00451866D01*
D02*
G37*
G36*
X00192786Y00437642D02*
Y0043561D01*
Y00433578D01*
Y00431546D01*
Y00429514D01*
X00190754D01*
Y00427482D01*
Y0042545D01*
Y00423418D01*
X00188722D01*
Y00421386D01*
Y00419354D01*
X0018669D01*
Y00417322D01*
Y0041529D01*
Y00413258D01*
X00184658D01*
Y0041529D01*
X00182626D01*
Y00417322D01*
X00184658D01*
Y00419354D01*
Y00421386D01*
Y00423418D01*
X0018669D01*
Y0042545D01*
Y00427482D01*
X00188722D01*
Y00429514D01*
Y00431546D01*
Y00433578D01*
X00190754D01*
Y0043561D01*
Y00437642D01*
Y00439674D01*
X00192786D01*
Y00437642D01*
D02*
G37*
G36*
X00158242Y00419354D02*
X00160274D01*
Y00417322D01*
Y0041529D01*
X00162306D01*
Y00413258D01*
X00164338D01*
Y00411226D01*
X0016637D01*
Y00409194D01*
X00168402D01*
Y00407162D01*
Y0040513D01*
X00164338D01*
Y00407162D01*
Y00409194D01*
X00162306D01*
Y00411226D01*
X00160274D01*
Y00413258D01*
X00158242D01*
Y0041529D01*
Y00417322D01*
X0015621D01*
Y00419354D01*
Y00421386D01*
X00158242D01*
Y00419354D01*
D02*
G37*
G36*
X00060706Y00266954D02*
Y00264922D01*
Y0026289D01*
Y00260858D01*
X00048514D01*
Y0026289D01*
Y00264922D01*
Y00266954D01*
Y00268986D01*
X00060706D01*
Y00266954D01*
D02*
G37*
G36*
X00131826Y00250698D02*
Y00248666D01*
Y00246634D01*
Y00244602D01*
Y0024257D01*
Y00240538D01*
Y00238506D01*
Y00236474D01*
Y00234442D01*
Y0023241D01*
Y00230378D01*
Y00228346D01*
Y00226314D01*
Y00224282D01*
Y0022225D01*
Y00220218D01*
Y00218186D01*
Y00216154D01*
Y00214122D01*
Y0021209D01*
X00129794D01*
Y00210058D01*
X00117602D01*
Y0021209D01*
Y00214122D01*
Y00216154D01*
Y00218186D01*
Y00220218D01*
Y0022225D01*
Y00224282D01*
Y00226314D01*
Y00228346D01*
Y00230378D01*
Y0023241D01*
Y00234442D01*
Y00236474D01*
Y00238506D01*
Y00240538D01*
Y0024257D01*
X0011557D01*
Y00244602D01*
X00111506D01*
Y0024257D01*
Y00240538D01*
Y00238506D01*
Y00236474D01*
Y00234442D01*
Y0023241D01*
Y00230378D01*
Y00228346D01*
Y00226314D01*
Y00224282D01*
Y0022225D01*
Y00220218D01*
Y00218186D01*
Y00216154D01*
Y00214122D01*
Y0021209D01*
Y00210058D01*
X00097282D01*
Y0021209D01*
Y00214122D01*
Y00216154D01*
Y00218186D01*
Y00220218D01*
Y0022225D01*
Y00224282D01*
Y00226314D01*
Y00228346D01*
Y00230378D01*
Y0023241D01*
Y00234442D01*
Y00236474D01*
Y00238506D01*
Y00240538D01*
Y0024257D01*
Y00244602D01*
Y00246634D01*
Y00248666D01*
Y00250698D01*
X00101346D01*
Y0025273D01*
X00113538D01*
Y00250698D01*
X00117602D01*
Y0025273D01*
X00131826D01*
Y00250698D01*
D02*
G37*
G36*
X00221234Y0026289D02*
Y00260858D01*
Y00258826D01*
X00219202D01*
Y00256794D01*
Y00254762D01*
Y0025273D01*
Y00250698D01*
Y00248666D01*
Y00246634D01*
Y00244602D01*
X0021717D01*
Y0024257D01*
Y00240538D01*
Y00238506D01*
Y00236474D01*
X00215138D01*
Y00234442D01*
Y0023241D01*
Y00230378D01*
X00213106D01*
Y00228346D01*
Y00226314D01*
Y00224282D01*
Y0022225D01*
X00211074D01*
Y00220218D01*
Y00218186D01*
Y00216154D01*
X00209042D01*
Y00214122D01*
Y0021209D01*
Y00210058D01*
X00192786D01*
Y0021209D01*
Y00214122D01*
Y00216154D01*
Y00218186D01*
X00190754D01*
Y00220218D01*
Y0022225D01*
Y00224282D01*
X00188722D01*
Y00226314D01*
Y00228346D01*
Y00230378D01*
Y0023241D01*
X0018669D01*
Y00234442D01*
Y00236474D01*
Y00238506D01*
X00184658D01*
Y00240538D01*
Y0024257D01*
Y00244602D01*
Y00246634D01*
Y00248666D01*
Y00250698D01*
Y0025273D01*
X00182626D01*
Y00254762D01*
Y00256794D01*
Y00258826D01*
Y00260858D01*
X00180594D01*
Y0026289D01*
Y00264922D01*
X00194818D01*
Y0026289D01*
X00192786D01*
Y00260858D01*
Y00258826D01*
X00194818D01*
Y00256794D01*
Y00254762D01*
Y0025273D01*
Y00250698D01*
Y00248666D01*
X0019685D01*
Y00246634D01*
Y00244602D01*
Y0024257D01*
Y00240538D01*
Y00238506D01*
X00198882D01*
Y00236474D01*
Y00234442D01*
Y0023241D01*
Y00230378D01*
X00202946D01*
Y0023241D01*
Y00234442D01*
Y00236474D01*
Y00238506D01*
X00204978D01*
Y00240538D01*
Y0024257D01*
Y00244602D01*
Y00246634D01*
X0020701D01*
Y00248666D01*
Y00250698D01*
Y0025273D01*
Y00254762D01*
Y00256794D01*
Y00258826D01*
X00209042D01*
Y00260858D01*
Y0026289D01*
Y00264922D01*
X00221234D01*
Y0026289D01*
D02*
G37*
G36*
X00170434Y00250698D02*
X00172466D01*
Y00248666D01*
Y00246634D01*
Y00244602D01*
X00174498D01*
Y0024257D01*
Y00240538D01*
Y00238506D01*
Y00236474D01*
Y00234442D01*
Y0023241D01*
Y00230378D01*
Y00228346D01*
Y00226314D01*
Y00224282D01*
Y0022225D01*
Y00220218D01*
Y00218186D01*
X00172466D01*
Y00216154D01*
Y00214122D01*
X00170434D01*
Y0021209D01*
X00168402D01*
Y00210058D01*
X0014605D01*
Y0021209D01*
X00141986D01*
Y00214122D01*
X00139954D01*
Y00216154D01*
Y00218186D01*
Y00220218D01*
Y0022225D01*
Y00224282D01*
X00150114D01*
Y0022225D01*
X00152146D01*
Y00220218D01*
Y00218186D01*
X00160274D01*
Y00220218D01*
Y0022225D01*
Y00224282D01*
Y00226314D01*
Y00228346D01*
X00139954D01*
Y00230378D01*
Y0023241D01*
Y00234442D01*
Y00236474D01*
Y00238506D01*
Y00240538D01*
Y0024257D01*
Y00244602D01*
Y00246634D01*
Y00248666D01*
Y00250698D01*
X00144018D01*
Y0025273D01*
X00170434D01*
Y00250698D01*
D02*
G37*
G36*
X0008509Y00258826D02*
Y00256794D01*
Y00254762D01*
Y0025273D01*
X00091186D01*
Y00250698D01*
Y00248666D01*
Y00246634D01*
Y00244602D01*
X0008509D01*
Y0024257D01*
Y00240538D01*
Y00238506D01*
Y00236474D01*
Y00234442D01*
Y0023241D01*
Y00230378D01*
Y00228346D01*
Y00226314D01*
Y00224282D01*
Y0022225D01*
Y00220218D01*
Y00218186D01*
X00087122D01*
Y00216154D01*
X0008509D01*
Y00214122D01*
X00083058D01*
Y0021209D01*
X00078994D01*
Y00210058D01*
X00066802D01*
Y0021209D01*
Y00214122D01*
Y00216154D01*
Y00218186D01*
X00068834D01*
Y00220218D01*
X00072898D01*
Y0022225D01*
Y00224282D01*
Y00226314D01*
Y00228346D01*
Y00230378D01*
Y0023241D01*
Y00234442D01*
Y00236474D01*
Y00238506D01*
Y00240538D01*
Y0024257D01*
Y00244602D01*
X00066802D01*
Y00246634D01*
Y00248666D01*
Y00250698D01*
Y0025273D01*
X00072898D01*
Y00254762D01*
Y00256794D01*
Y00258826D01*
Y00260858D01*
X0008509D01*
Y00258826D01*
D02*
G37*
G36*
X00060706Y00250698D02*
Y00248666D01*
Y00246634D01*
Y00244602D01*
Y0024257D01*
Y00240538D01*
Y00238506D01*
Y00236474D01*
Y00234442D01*
Y0023241D01*
Y00230378D01*
Y00228346D01*
Y00226314D01*
Y00224282D01*
Y0022225D01*
Y00220218D01*
Y00218186D01*
Y00216154D01*
Y00214122D01*
Y0021209D01*
Y00210058D01*
X00048514D01*
Y0021209D01*
Y00214122D01*
Y00216154D01*
Y00218186D01*
Y00220218D01*
Y0022225D01*
Y00224282D01*
Y00226314D01*
Y00228346D01*
Y00230378D01*
Y0023241D01*
Y00234442D01*
Y00236474D01*
Y00238506D01*
Y00240538D01*
Y0024257D01*
Y00244602D01*
Y00246634D01*
Y00248666D01*
Y00250698D01*
Y0025273D01*
X00060706D01*
Y00250698D01*
D02*
G37*
%LPC*%
G36*
X00148082Y00518922D02*
X00139954D01*
Y0051689D01*
X00127762D01*
Y00514858D01*
X00119634D01*
Y00512826D01*
X00113538D01*
Y00510794D01*
X00107442D01*
Y00508762D01*
X00101346D01*
Y0050673D01*
X00097282D01*
Y00504698D01*
Y00502666D01*
Y00500634D01*
Y00498602D01*
Y0049657D01*
X00099314D01*
Y00494538D01*
Y00492506D01*
X00101346D01*
Y00490474D01*
X00103378D01*
Y00488442D01*
X0010541D01*
Y0048641D01*
X00107442D01*
Y00484378D01*
X00109474D01*
Y00482346D01*
X00111506D01*
Y00480314D01*
X00113538D01*
Y00478282D01*
X0011557D01*
Y0047625D01*
X00117602D01*
Y00474218D01*
Y00472186D01*
X00119634D01*
Y00470154D01*
X00121666D01*
Y00468122D01*
X00123698D01*
Y0046609D01*
X0012573D01*
Y00464058D01*
X00127762D01*
Y00462026D01*
X00129794D01*
Y00464058D01*
X0013589D01*
Y0046609D01*
X00137922D01*
Y00468122D01*
X00139954D01*
Y0046609D01*
Y00464058D01*
Y00462026D01*
X00144018D01*
Y00459994D01*
Y00457962D01*
X0014605D01*
Y0045593D01*
X00154178D01*
Y00457962D01*
X00160274D01*
Y00459994D01*
X0016637D01*
Y00462026D01*
X00170434D01*
Y00464058D01*
X0017653D01*
Y0046609D01*
X00182626D01*
Y00468122D01*
X00190754D01*
Y00470154D01*
X00192786D01*
Y00472186D01*
X0019685D01*
Y00474218D01*
Y0047625D01*
X00198882D01*
Y00478282D01*
Y00480314D01*
X00194818D01*
Y00482346D01*
X00192786D01*
Y00484378D01*
X00190754D01*
Y0048641D01*
X00188722D01*
Y00488442D01*
X0018669D01*
Y00490474D01*
X00182626D01*
Y00492506D01*
X00180594D01*
Y00494538D01*
Y0049657D01*
X00178562D01*
Y00498602D01*
X0017653D01*
Y00500634D01*
X00174498D01*
Y00502666D01*
X00170434D01*
Y00504698D01*
X00168402D01*
Y0050673D01*
Y00508762D01*
X00164338D01*
Y00510794D01*
X00162306D01*
Y00512826D01*
X00160274D01*
Y00514858D01*
X00158242D01*
Y0051689D01*
X00154178D01*
Y00514858D01*
X00152146D01*
Y00512826D01*
X00154178D01*
Y00510794D01*
X00152146D01*
Y00508762D01*
Y0050673D01*
Y00504698D01*
Y00502666D01*
X00150114D01*
Y00500634D01*
Y00498602D01*
Y0049657D01*
X00148082D01*
Y00494538D01*
Y00492506D01*
Y00490474D01*
Y00488442D01*
X0014605D01*
Y0048641D01*
Y00484378D01*
Y00482346D01*
X00144018D01*
Y00480314D01*
Y00478282D01*
Y0047625D01*
Y00474218D01*
X00141986D01*
Y00472186D01*
Y00470154D01*
Y00468122D01*
X00139954D01*
Y00470154D01*
Y00472186D01*
Y00474218D01*
Y0047625D01*
X00141986D01*
Y00478282D01*
Y00480314D01*
Y00482346D01*
Y00484378D01*
X00144018D01*
Y0048641D01*
Y00488442D01*
X00141986D01*
Y00490474D01*
X00144018D01*
Y00492506D01*
Y00494538D01*
Y0049657D01*
Y00498602D01*
X0014605D01*
Y00500634D01*
Y00502666D01*
Y00504698D01*
Y0050673D01*
X00148082D01*
Y00508762D01*
Y00510794D01*
Y00512826D01*
X00150114D01*
Y00514858D01*
Y0051689D01*
X00148082D01*
Y00518922D01*
D02*
G37*
G36*
X00097282Y00494538D02*
X00089154D01*
Y00492506D01*
X00083058D01*
Y00490474D01*
X00081026D01*
Y00488442D01*
X00078994D01*
Y0048641D01*
X00076962D01*
Y00484378D01*
X0007493D01*
Y00482346D01*
X00072898D01*
Y00480314D01*
X00070866D01*
Y00478282D01*
Y0047625D01*
X00068834D01*
Y00474218D01*
X00066802D01*
Y00472186D01*
X0006477D01*
Y00470154D01*
X00062738D01*
Y00468122D01*
X00058674D01*
Y0046609D01*
Y00464058D01*
Y00462026D01*
X00056642D01*
Y00459994D01*
X0005461D01*
Y00457962D01*
Y0045593D01*
Y00453898D01*
X00123698D01*
Y0045593D01*
Y00457962D01*
Y00459994D01*
Y00462026D01*
X00121666D01*
Y00464058D01*
X00119634D01*
Y0046609D01*
Y00468122D01*
X00117602D01*
Y00470154D01*
X0011557D01*
Y00472186D01*
X00113538D01*
Y00474218D01*
X00111506D01*
Y0047625D01*
X00109474D01*
Y00478282D01*
Y00480314D01*
X00107442D01*
Y00482346D01*
X0010541D01*
Y00484378D01*
X00103378D01*
Y0048641D01*
X00101346D01*
Y00488442D01*
X00099314D01*
Y00490474D01*
Y00492506D01*
X00097282D01*
Y00494538D01*
D02*
G37*
G36*
X00225298Y00397002D02*
X00221234D01*
Y0039497D01*
X00209042D01*
Y00392938D01*
X0019685D01*
Y00390906D01*
X0018669D01*
Y00388874D01*
Y00386842D01*
Y0038481D01*
Y00382778D01*
X00188722D01*
Y00380746D01*
X00190754D01*
Y00378714D01*
X00192786D01*
Y00376682D01*
X00194818D01*
Y0037465D01*
X0019685D01*
Y00372618D01*
X00198882D01*
Y00370586D01*
X00200914D01*
Y00368554D01*
X00202946D01*
Y00366522D01*
X00204978D01*
Y0036449D01*
Y00362458D01*
X0020701D01*
Y00360426D01*
X00209042D01*
Y00358394D01*
X00211074D01*
Y00356362D01*
X00213106D01*
Y0035433D01*
X00215138D01*
Y00352298D01*
X0021717D01*
Y00350266D01*
X00219202D01*
Y00348234D01*
X00221234D01*
Y00346202D01*
X00223266D01*
Y0034417D01*
X00225298D01*
Y00342138D01*
Y00340106D01*
X0022733D01*
Y00338074D01*
X00229362D01*
Y00336042D01*
X00235458D01*
Y00338074D01*
X00239522D01*
Y00340106D01*
Y00342138D01*
Y0034417D01*
Y00346202D01*
Y00348234D01*
Y00350266D01*
Y00352298D01*
Y0035433D01*
Y00356362D01*
X0023749D01*
Y00358394D01*
Y00360426D01*
Y00362458D01*
Y0036449D01*
Y00366522D01*
Y00368554D01*
Y00370586D01*
Y00372618D01*
Y0037465D01*
Y00376682D01*
Y00378714D01*
Y00380746D01*
Y00382778D01*
X00235458D01*
Y0038481D01*
Y00386842D01*
Y00388874D01*
Y00390906D01*
X00229362D01*
Y00392938D01*
X0022733D01*
Y0039497D01*
X00225298D01*
Y00397002D01*
D02*
G37*
G36*
X00048514Y00443738D02*
X0004445D01*
Y00441706D01*
Y00439674D01*
X00046482D01*
Y00437642D01*
X0004445D01*
Y0043561D01*
Y00433578D01*
Y00431546D01*
Y00429514D01*
Y00427482D01*
Y0042545D01*
Y00423418D01*
X00042418D01*
Y00421386D01*
Y00419354D01*
Y00417322D01*
Y0041529D01*
Y00413258D01*
Y00411226D01*
Y00409194D01*
X00040386D01*
Y00407162D01*
Y0040513D01*
Y00403098D01*
Y00401066D01*
Y00399034D01*
Y00397002D01*
Y0039497D01*
Y00392938D01*
X00038354D01*
Y00390906D01*
Y00388874D01*
Y00386842D01*
Y0038481D01*
Y00382778D01*
X00040386D01*
Y00380746D01*
X00042418D01*
Y00378714D01*
Y00376682D01*
Y0037465D01*
X00050546D01*
Y00376682D01*
X00056642D01*
Y0037465D01*
X00052578D01*
Y00372618D01*
X00048514D01*
Y00370586D01*
X0004445D01*
Y00368554D01*
X00042418D01*
Y00366522D01*
X00040386D01*
Y0036449D01*
Y00362458D01*
Y00360426D01*
Y00358394D01*
X00042418D01*
Y00356362D01*
X0004445D01*
Y0035433D01*
Y00352298D01*
X00046482D01*
Y00350266D01*
X0004445D01*
Y00348234D01*
Y00346202D01*
X00046482D01*
Y0034417D01*
Y00342138D01*
X00048514D01*
Y00340106D01*
X00050546D01*
Y00338074D01*
Y00336042D01*
X00052578D01*
Y0033401D01*
Y00331978D01*
X0005461D01*
Y00329946D01*
Y00327914D01*
X00056642D01*
Y00325882D01*
X00058674D01*
Y0032385D01*
X00056642D01*
Y00321818D01*
X00060706D01*
Y0032385D01*
X0006477D01*
Y00325882D01*
X00070866D01*
Y00327914D01*
Y00329946D01*
X00072898D01*
Y00327914D01*
Y00325882D01*
Y0032385D01*
Y00321818D01*
X00076962D01*
Y00319786D01*
Y00317754D01*
X00078994D01*
Y00315722D01*
Y0031369D01*
Y00311658D01*
Y00309626D01*
X0008509D01*
Y00311658D01*
X00089154D01*
Y0031369D01*
X00093218D01*
Y00315722D01*
X00101346D01*
Y00317754D01*
X00107442D01*
Y00319786D01*
X00111506D01*
Y00321818D01*
X0011557D01*
Y0032385D01*
X00117602D01*
Y00325882D01*
Y00327914D01*
Y00329946D01*
X00119634D01*
Y00331978D01*
Y0033401D01*
Y00336042D01*
X0011557D01*
Y00338074D01*
X00117602D01*
Y00340106D01*
X00113538D01*
Y00342138D01*
Y0034417D01*
X00117602D01*
Y00342138D01*
Y00340106D01*
X00119634D01*
Y00338074D01*
X00121666D01*
Y00336042D01*
X00131826D01*
Y00338074D01*
X00133858D01*
Y00340106D01*
X0013589D01*
Y00342138D01*
Y0034417D01*
X00137922D01*
Y00346202D01*
X00139954D01*
Y00348234D01*
X00141986D01*
Y00350266D01*
X00144018D01*
Y00352298D01*
Y0035433D01*
X0014605D01*
Y00356362D01*
X00148082D01*
Y00358394D01*
X00150114D01*
Y00360426D01*
X00154178D01*
Y00362458D01*
Y0036449D01*
Y00366522D01*
X0015621D01*
Y00368554D01*
X00158242D01*
Y00370586D01*
X00160274D01*
Y00372618D01*
X00164338D01*
Y0037465D01*
Y00376682D01*
X0016637D01*
Y00378714D01*
X00168402D01*
Y00380746D01*
X00170434D01*
Y00382778D01*
Y0038481D01*
Y00386842D01*
Y00388874D01*
X0016637D01*
Y00390906D01*
X00154178D01*
Y00388874D01*
X00139954D01*
Y00386842D01*
X0012573D01*
Y0038481D01*
X00111506D01*
Y00382778D01*
X00099314D01*
Y00380746D01*
X00097282D01*
Y00378714D01*
X0009525D01*
Y00376682D01*
Y0037465D01*
X00097282D01*
Y00372618D01*
Y00370586D01*
X00099314D01*
Y00368554D01*
Y00366522D01*
X00101346D01*
Y0036449D01*
X00103378D01*
Y00362458D01*
Y00360426D01*
X0010541D01*
Y00358394D01*
X00107442D01*
Y00356362D01*
X00109474D01*
Y0035433D01*
X00111506D01*
Y00352298D01*
Y00350266D01*
X00113538D01*
Y00348234D01*
Y00346202D01*
X00109474D01*
Y00348234D01*
Y00350266D01*
X00107442D01*
Y00352298D01*
X0010541D01*
Y0035433D01*
X00103378D01*
Y00356362D01*
Y00358394D01*
X00101346D01*
Y00360426D01*
Y00362458D01*
X00099314D01*
Y0036449D01*
X00097282D01*
Y00366522D01*
Y00368554D01*
X0009525D01*
Y00370586D01*
X00093218D01*
Y00372618D01*
X00087122D01*
Y00370586D01*
X0008509D01*
Y00368554D01*
Y00366522D01*
X00083058D01*
Y0036449D01*
Y00362458D01*
Y00360426D01*
X00081026D01*
Y00358394D01*
Y00356362D01*
Y0035433D01*
Y00352298D01*
X00078994D01*
Y00350266D01*
Y00348234D01*
Y00346202D01*
Y0034417D01*
X00076962D01*
Y00342138D01*
Y00340106D01*
Y00338074D01*
Y00336042D01*
X0007493D01*
Y0033401D01*
Y00331978D01*
Y00329946D01*
X00072898D01*
Y00331978D01*
Y0033401D01*
Y00336042D01*
Y00338074D01*
Y00340106D01*
X0007493D01*
Y00342138D01*
Y0034417D01*
Y00346202D01*
X00076962D01*
Y00348234D01*
Y00350266D01*
Y00352298D01*
X0007493D01*
Y0035433D01*
X00076962D01*
Y00356362D01*
Y00358394D01*
Y00360426D01*
Y00362458D01*
X00078994D01*
Y0036449D01*
Y00366522D01*
Y00368554D01*
Y00370586D01*
Y00372618D01*
Y0037465D01*
X00076962D01*
Y00376682D01*
Y00378714D01*
X0007493D01*
Y00380746D01*
X00070866D01*
Y00378714D01*
X00066802D01*
Y00376682D01*
X00056642D01*
Y00378714D01*
X00060706D01*
Y00380746D01*
X0006477D01*
Y00382778D01*
X00070866D01*
Y0038481D01*
X0007493D01*
Y00386842D01*
Y00388874D01*
X00076962D01*
Y00390906D01*
Y00392938D01*
Y0039497D01*
Y00397002D01*
X0007493D01*
Y00399034D01*
X00076962D01*
Y00401066D01*
X0007493D01*
Y00403098D01*
Y0040513D01*
X00070866D01*
Y00407162D01*
Y00409194D01*
X00068834D01*
Y00411226D01*
Y00413258D01*
X00066802D01*
Y0041529D01*
X0006477D01*
Y00417322D01*
Y00419354D01*
X00062738D01*
Y00421386D01*
Y00423418D01*
Y0042545D01*
X00058674D01*
Y00427482D01*
Y00429514D01*
Y00431546D01*
X00056642D01*
Y00433578D01*
X0005461D01*
Y0043561D01*
X00052578D01*
Y00437642D01*
Y00439674D01*
X00050546D01*
Y00441706D01*
X00048514D01*
Y00443738D01*
D02*
G37*
G36*
X00184658Y00382778D02*
X00174498D01*
Y00380746D01*
X00172466D01*
Y00378714D01*
X00170434D01*
Y00376682D01*
X00168402D01*
Y0037465D01*
X0016637D01*
Y00372618D01*
Y00370586D01*
X00164338D01*
Y00368554D01*
X00162306D01*
Y00366522D01*
X00160274D01*
Y0036449D01*
X00158242D01*
Y00362458D01*
X0015621D01*
Y00360426D01*
Y00358394D01*
X00154178D01*
Y00356362D01*
X00152146D01*
Y0035433D01*
X00150114D01*
Y00352298D01*
X00148082D01*
Y00350266D01*
Y00348234D01*
X0014605D01*
Y00346202D01*
X00144018D01*
Y0034417D01*
X00141986D01*
Y00342138D01*
X00139954D01*
Y00340106D01*
X00137922D01*
Y00338074D01*
Y00336042D01*
X0013589D01*
Y0033401D01*
Y00331978D01*
X00137922D01*
Y00329946D01*
Y00327914D01*
X00229362D01*
Y00329946D01*
Y00331978D01*
Y0033401D01*
X0022733D01*
Y00336042D01*
X00225298D01*
Y00338074D01*
X00223266D01*
Y00340106D01*
X00221234D01*
Y00342138D01*
X00219202D01*
Y0034417D01*
Y00346202D01*
X0021717D01*
Y00348234D01*
X00213106D01*
Y00350266D01*
X00211074D01*
Y00352298D01*
Y0035433D01*
Y00356362D01*
X0020701D01*
Y00358394D01*
X00204978D01*
Y00360426D01*
X00202946D01*
Y00362458D01*
X00200914D01*
Y0036449D01*
X00198882D01*
Y00366522D01*
X0019685D01*
Y00368554D01*
X00194818D01*
Y00370586D01*
X00192786D01*
Y00372618D01*
Y0037465D01*
Y00376682D01*
X00188722D01*
Y00378714D01*
X0018669D01*
Y00380746D01*
X00184658D01*
Y00382778D01*
D02*
G37*
G36*
X00160274Y00244602D02*
X00152146D01*
Y0024257D01*
Y00240538D01*
Y00238506D01*
Y00236474D01*
Y00234442D01*
X00160274D01*
Y00236474D01*
Y00238506D01*
Y00240538D01*
Y0024257D01*
Y00244602D01*
D02*
G37*
%LPD*%
D11*
X00564324Y00879392D02*
G03*
X00566324Y00879392I00001J0D01*
G01*
D02*
G03*
X00564324Y00879392I-00001J0D01*
G01*
X0016177Y0088376D02*
X0022177D01*
X0016177Y0083376D02*
Y0088376D01*
Y0083376D02*
X0024177D01*
Y0087376D01*
X002648Y0088376D02*
X003248D01*
X002648Y0083376D02*
Y0088376D01*
Y0083376D02*
X003448D01*
Y0087376D01*
X0005874Y0088376D02*
X0011874D01*
X0005874Y0083376D02*
Y0088376D01*
Y0083376D02*
X0013874D01*
Y0087376D01*
X00182185Y00739775D02*
X00194245D01*
X00182185Y00755775D02*
X00194245D01*
X00193722Y0076312D02*
Y0077612D01*
X00182722Y0076312D02*
X00193722D01*
X00182722Y0077612D02*
X00193722D01*
D12*
X00468454Y00852063D02*
X00464222D01*
X00466338D01*
Y00845715D01*
X00462106D02*
Y00852063D01*
X0045999Y00849947D01*
X00457874Y00852063D01*
Y00845715D01*
X00455758D02*
Y00852063D01*
X00452584D01*
X00451526Y00851005D01*
Y00848889D01*
X00452584Y00847831D01*
X00455758D01*
X0044941Y00844657D02*
X00445178D01*
X0043883Y00851005D02*
X00439888Y00852063D01*
X00442004D01*
X00443062Y00851005D01*
Y00849947D01*
X00442004Y00848889D01*
X00439888D01*
X0043883Y00847831D01*
Y00846773D01*
X00439888Y00845715D01*
X00442004D01*
X00443062Y00846773D01*
X00432482Y00852063D02*
X00436714D01*
Y00845715D01*
X00432482D01*
X00436714Y00848889D02*
X00434598D01*
X00430366Y00852063D02*
Y00845715D01*
X00426134D01*
X00153557Y00751415D02*
X00154615Y00752473D01*
X00156731D01*
X00157789Y00751415D01*
Y00750357D01*
X00156731Y00749299D01*
X00154615D01*
X00153557Y00748241D01*
Y00747183D01*
X00154615Y00746125D01*
X00156731D01*
X00157789Y00747183D01*
X00151441Y00752473D02*
X00147209D01*
X00149325D01*
Y00746125D01*
X00145093D02*
Y00750357D01*
X00142977Y00752473D01*
X00140861Y00750357D01*
Y00746125D01*
Y00749299D01*
X00145093D01*
X00138745Y00752473D02*
X00134513D01*
X00136629D01*
Y00746125D01*
X00128165D02*
X00132397D01*
X00128165Y00750357D01*
Y00751415D01*
X00129223Y00752473D01*
X00131339D01*
X00132397Y00751415D01*
X00153794Y00772244D02*
X00154852Y00773302D01*
X00156968D01*
X00158026Y00772244D01*
Y00771186D01*
X00156968Y00770128D01*
X00154852D01*
X00153794Y0076907D01*
Y00768012D01*
X00154852Y00766954D01*
X00156968D01*
X00158026Y00768012D01*
X00151678Y00773302D02*
X00147446D01*
X00149562D01*
Y00766954D01*
X0014533D02*
Y00771186D01*
X00143214Y00773302D01*
X00141098Y00771186D01*
Y00766954D01*
Y00770128D01*
X0014533D01*
X00138982Y00773302D02*
X0013475D01*
X00136866D01*
Y00766954D01*
X00132634D02*
X00130518D01*
X00131576D01*
Y00773302D01*
X00132634Y00772244D01*
X00116412Y00856614D02*
Y00850266D01*
X00113238D01*
X0011218Y00851324D01*
Y00852382D01*
X00113238Y0085344D01*
X00116412D01*
X00113238D01*
X0011218Y00854498D01*
Y00855556D01*
X00113238Y00856614D01*
X00116412D01*
X00110064Y00850266D02*
Y00854498D01*
X00107948Y00856614D01*
X00105832Y00854498D01*
Y00850266D01*
Y0085344D01*
X00110064D01*
X00103716Y00856614D02*
X00099484D01*
X001016D01*
Y00850266D01*
X00097368Y00856614D02*
X00093136D01*
X00095252D01*
Y00850266D01*
X0009102Y00855556D02*
X00089962Y00856614D01*
X00087846D01*
X00086788Y00855556D01*
Y00854498D01*
X00087846Y0085344D01*
X00088904D01*
X00087846D01*
X00086788Y00852382D01*
Y00851324D01*
X00087846Y00850266D01*
X00089962D01*
X0009102Y00851324D01*
X00218012Y00856614D02*
Y00850266D01*
X00214838D01*
X0021378Y00851324D01*
Y00852382D01*
X00214838Y0085344D01*
X00218012D01*
X00214838D01*
X0021378Y00854498D01*
Y00855556D01*
X00214838Y00856614D01*
X00218012D01*
X00211664Y00850266D02*
Y00854498D01*
X00209548Y00856614D01*
X00207432Y00854498D01*
Y00850266D01*
Y0085344D01*
X00211664D01*
X00205316Y00856614D02*
X00201084D01*
X002032D01*
Y00850266D01*
X00198968Y00856614D02*
X00194736D01*
X00196852D01*
Y00850266D01*
X00188388D02*
X0019262D01*
X00188388Y00854498D01*
Y00855556D01*
X00189446Y00856614D01*
X00191562D01*
X0019262Y00855556D01*
X00318554Y00856614D02*
Y00850266D01*
X0031538D01*
X00314322Y00851324D01*
Y00852382D01*
X0031538Y0085344D01*
X00318554D01*
X0031538D01*
X00314322Y00854498D01*
Y00855556D01*
X0031538Y00856614D01*
X00318554D01*
X00312206Y00850266D02*
Y00854498D01*
X0031009Y00856614D01*
X00307974Y00854498D01*
Y00850266D01*
Y0085344D01*
X00312206D01*
X00305858Y00856614D02*
X00301626D01*
X00303742D01*
Y00850266D01*
X0029951Y00856614D02*
X00295278D01*
X00297394D01*
Y00850266D01*
X00293162D02*
X00291046D01*
X00292104D01*
Y00856614D01*
X00293162Y00855556D01*
D13*
X00192282Y0076947D02*
D03*
D115*
X00493324Y00837392D02*
X00577324D01*
X00490324Y00863392D02*
X00499324D01*
X00571324D02*
X00580324D01*
X00526324D02*
X00544324D01*
D116*
X00218215Y00739775D02*
Y00755775D01*
M02*
