M48
;Layer_Color=9474304
;FILE_FORMAT=4:4
METRIC,LZ
;TYPE=PLATED
T1F00S00C0.2000
T4F00S00C0.7112
T5F00S00C0.9000
;TYPE=NON_PLATED
T7F00S00C0.9000
%
T01
X0014986Y0010922
Y0012022
X00444409Y00772111
X00452159Y0078486
X00436659
X00444409Y00797611
T04
X00089154Y0012573
X0022225Y000762
X005461Y0046355
X00450342Y00500126
X00445262Y0053721
X00386842Y00523494
X00358648Y00495554
X00096266Y00415798
X000635Y0017285
X0003302Y0086868
X00172212Y00788924
X00169139Y00725423
X00211008Y00623758
X002286Y00607012
X003302Y006477
Y0056515
X0039878Y0073152
X00413512Y00743204
X0043053Y00743712
X00478282Y00755142
X0046355Y007112
Y006858
X0049022Y0081534
X0051054Y008128
X0040386Y0080772
X0037846Y008128
X003937Y0083312
X0039243Y0085278
X0036576Y0076708
X005461Y0076835
X0055245Y006731
X005588Y005715
T05
X0032258Y00069088
Y00094488
Y00119888
X0047498Y0011938
Y0009398
Y0006858
X0052832Y0009398
X0055372
X0047498Y0014478
Y0017018
Y0019558
Y0022098
Y0024638
Y0027178
Y0029718
Y0032258
Y0034798
Y0037338
Y0039878
Y0042418
Y0044958
Y0047498
X0032258Y00475488
Y00450088
Y00424688
Y00399288
Y00373888
Y00348488
Y00323088
Y00297688
Y00272288
Y00246888
Y00221488
Y00196088
Y00170688
Y00145288
X00228346Y0016383
X00202946
X0011874Y0087376
X0009874
X0007874
X0018177
X0020177
X0022177
X002848
X003048
X003248
X00530098Y00620776
Y00595376
T07
X00510324Y00850392
X00560324
M30
