G04*
G04 #@! TF.GenerationSoftware,Altium Limited,Altium Designer,19.1.8 (144)*
G04*
G04 Layer_Color=8421504*
%FSTAX44Y44*%
%MOMM*%
G71*
G01*
G75*
%ADD14R,0.7800X0.2970*%
%ADD15R,0.9170X1.3280*%
%ADD16R,1.6800X2.9500*%
%ADD17R,1.4000X1.5000*%
%ADD18R,1.3500X1.0000*%
%ADD19R,1.8000X1.2500*%
%ADD20R,1.5000X1.4000*%
%ADD21R,1.4500X1.2000*%
%ADD22R,1.3500X0.4000*%
%ADD23R,1.5500X1.5000*%
G04:AMPARAMS|DCode=24|XSize=0.24mm|YSize=0.6mm|CornerRadius=0.0504mm|HoleSize=0mm|Usage=FLASHONLY|Rotation=270.000|XOffset=0mm|YOffset=0mm|HoleType=Round|Shape=RoundedRectangle|*
%AMROUNDEDRECTD24*
21,1,0.2400,0.4992,0,0,270.0*
21,1,0.1392,0.6000,0,0,270.0*
1,1,0.1008,-0.2496,-0.0696*
1,1,0.1008,-0.2496,0.0696*
1,1,0.1008,0.2496,0.0696*
1,1,0.1008,0.2496,-0.0696*
%
%ADD24ROUNDEDRECTD24*%
%ADD25R,1.1000X1.3500*%
%ADD26R,1.2000X0.4500*%
%ADD27R,0.8000X0.8000*%
%ADD28R,1.2000X1.4500*%
G04:AMPARAMS|DCode=29|XSize=0.24mm|YSize=0.6mm|CornerRadius=0.0504mm|HoleSize=0mm|Usage=FLASHONLY|Rotation=180.000|XOffset=0mm|YOffset=0mm|HoleType=Round|Shape=RoundedRectangle|*
%AMROUNDEDRECTD29*
21,1,0.2400,0.4992,0,0,180.0*
21,1,0.1392,0.6000,0,0,180.0*
1,1,0.1008,-0.0696,0.2496*
1,1,0.1008,0.0696,0.2496*
1,1,0.1008,0.0696,-0.2496*
1,1,0.1008,-0.0696,-0.2496*
%
%ADD29ROUNDEDRECTD29*%
%ADD30R,0.8500X0.8500*%
%ADD31R,1.1000X1.7000*%
%ADD32R,0.8000X1.0000*%
%ADD33R,1.2500X1.5000*%
%ADD34R,1.3500X1.5500*%
%ADD35R,1.0000X1.5000*%
%ADD36R,0.9500X1.3500*%
G04:AMPARAMS|DCode=37|XSize=0.45mm|YSize=0.3mm|CornerRadius=0.0495mm|HoleSize=0mm|Usage=FLASHONLY|Rotation=0.000|XOffset=0mm|YOffset=0mm|HoleType=Round|Shape=RoundedRectangle|*
%AMROUNDEDRECTD37*
21,1,0.4500,0.2010,0,0,0.0*
21,1,0.3510,0.3000,0,0,0.0*
1,1,0.0990,0.1755,-0.1005*
1,1,0.0990,-0.1755,-0.1005*
1,1,0.0990,-0.1755,0.1005*
1,1,0.0990,0.1755,0.1005*
%
%ADD37ROUNDEDRECTD37*%
%ADD38R,1.3500X0.9500*%
%ADD39R,1.3500X1.1000*%
%ADD40R,1.4000X0.3000*%
%ADD41R,1.5700X1.8800*%
%ADD42R,1.5500X1.2000*%
%ADD43R,1.5500X1.2000*%
G36*
X0014486Y0011322D02*
Y00113319D01*
X00144936Y00113503D01*
X00145077Y00113644D01*
X0014526Y0011372D01*
X0014536D01*
D01*
X0015436D01*
X00154459D01*
X00154643Y00113644D01*
X00154784Y00113503D01*
X0015486Y00113319D01*
Y0011322D01*
D01*
Y0010722D01*
Y00107121D01*
X00154784Y00106937D01*
X00154643Y00106796D01*
X00154459Y0010672D01*
X0015436D01*
D01*
X0014536D01*
X0014526D01*
X00145077Y00106796D01*
X00144936Y00106937D01*
X0014486Y00107121D01*
Y0010722D01*
D01*
Y0011322D01*
D02*
G37*
G36*
X0015436Y0012272D02*
X00154459D01*
X00154643Y00122644D01*
X00154784Y00122503D01*
X0015486Y00122319D01*
Y0012222D01*
D01*
Y0011622D01*
Y00116121D01*
X00154784Y00115937D01*
X00154643Y00115796D01*
X00154459Y0011572D01*
X0015436D01*
D01*
X0014536D01*
X0014526D01*
X00145077Y00115796D01*
X00144936Y00115937D01*
X0014486Y00116121D01*
Y0011622D01*
D01*
Y0012222D01*
Y00122319D01*
X00144936Y00122503D01*
X00145077Y00122644D01*
X0014526Y0012272D01*
X0014536D01*
D01*
X0015436D01*
D02*
G37*
D14*
X0044441Y00767096D02*
D03*
Y00802626D02*
D03*
D15*
X00449994Y00792501D02*
D03*
X00438824D02*
D03*
Y00777221D02*
D03*
X00449994D02*
D03*
D16*
X00066854Y00804164D02*
D03*
X00019054D02*
D03*
X00066826Y00671068D02*
D03*
X00019026D02*
D03*
D17*
X0011962Y00473868D02*
D03*
X0014962D02*
D03*
Y0036068D02*
D03*
X0011962D02*
D03*
X0014962Y00397933D02*
D03*
X0011962D02*
D03*
X0014962Y00435187D02*
D03*
X0011962D02*
D03*
D18*
X00550418Y00527668D02*
D03*
Y00509668D02*
D03*
X0035052Y0031264D02*
D03*
Y0029464D02*
D03*
X0037592Y0031264D02*
D03*
Y0029464D02*
D03*
X00528828Y00508872D02*
D03*
Y00490872D02*
D03*
D19*
X00381Y0058419D02*
D03*
Y0061469D02*
D03*
D20*
X0037084Y0083378D02*
D03*
Y0085278D02*
D03*
X0041402Y0083378D02*
D03*
Y0085278D02*
D03*
X00454569Y00841401D02*
D03*
Y00860401D02*
D03*
X00525689Y00796241D02*
D03*
Y00777241D02*
D03*
D21*
X004191Y007185D02*
D03*
Y006985D02*
D03*
D22*
X0004143Y00747106D02*
D03*
Y00740606D02*
D03*
Y00734106D02*
D03*
Y00727606D02*
D03*
Y00721106D02*
D03*
D23*
X0001443Y00744106D02*
D03*
Y00724106D02*
D03*
D24*
X00427909Y0077236D02*
D03*
Y0076736D02*
D03*
Y0080236D02*
D03*
Y0079736D02*
D03*
Y0079236D02*
D03*
Y0078736D02*
D03*
Y0078236D02*
D03*
Y0077736D02*
D03*
X00460909Y0076736D02*
D03*
Y0077236D02*
D03*
Y0077736D02*
D03*
Y0078236D02*
D03*
Y0078736D02*
D03*
Y0079236D02*
D03*
Y0079736D02*
D03*
Y0080236D02*
D03*
D25*
X00315356Y0058674D02*
D03*
X00301356D02*
D03*
X0045847Y00519176D02*
D03*
X0044447D02*
D03*
D26*
X0035774Y0060482D02*
D03*
Y0059832D02*
D03*
Y0059182D02*
D03*
Y0058532D02*
D03*
X0033274D02*
D03*
Y0059182D02*
D03*
Y0059832D02*
D03*
Y0060482D02*
D03*
D27*
X00096654Y00796544D02*
D03*
X00119154D02*
D03*
X00119814Y00724916D02*
D03*
X00142314D02*
D03*
D28*
X00121572Y00748792D02*
D03*
X00141572D02*
D03*
X00141694Y00771144D02*
D03*
X00121694D02*
D03*
D29*
X0043691Y00763361D02*
D03*
X0045191D02*
D03*
Y00806361D02*
D03*
X0043691D02*
D03*
D30*
X00324105Y00740919D02*
D03*
X00335605D02*
D03*
D31*
X0033608Y00766826D02*
D03*
X0030908D02*
D03*
D32*
X00533189Y00723901D02*
D03*
X00518189D02*
D03*
D33*
X00541269Y00746761D02*
D03*
X00520269D02*
D03*
D34*
X00355095Y00720599D02*
D03*
X00335095D02*
D03*
D35*
X0017196Y00473868D02*
D03*
X0020396D02*
D03*
X0017196Y0036068D02*
D03*
X0020396D02*
D03*
X0017196Y00398409D02*
D03*
X0020396D02*
D03*
X0017196Y00436139D02*
D03*
X0020396D02*
D03*
D36*
X0055118Y0012192D02*
D03*
X0053568D02*
D03*
X00175136Y00162306D02*
D03*
X00159636D02*
D03*
X0019838Y0005842D02*
D03*
X0018288D02*
D03*
Y0008128D02*
D03*
X0019838D02*
D03*
D37*
X0014011Y0012122D02*
D03*
Y0011472D02*
D03*
Y0010822D02*
D03*
X0015961D02*
D03*
Y0011472D02*
D03*
Y0012122D02*
D03*
D38*
X0008382Y0017285D02*
D03*
Y0015735D02*
D03*
X0021844Y00096927D02*
D03*
Y00112427D02*
D03*
X0004318Y0017285D02*
D03*
Y0015735D02*
D03*
D39*
X00197093Y00097677D02*
D03*
Y00111677D02*
D03*
D40*
X0046568Y0055864D02*
D03*
Y0055364D02*
D03*
Y0054864D02*
D03*
Y0054364D02*
D03*
Y0053864D02*
D03*
X0050968D02*
D03*
Y0054364D02*
D03*
Y0054864D02*
D03*
Y0055364D02*
D03*
Y0055864D02*
D03*
D41*
X0048768Y0054864D02*
D03*
D42*
X0001443Y00763106D02*
D03*
D43*
X0001443Y00705106D02*
D03*
M02*
