G04*
G04 #@! TF.GenerationSoftware,Altium Limited,Altium Designer,19.1.8 (144)*
G04*
G04 Layer_Color=255*
%FSTAX44Y44*%
%MOMM*%
G71*
G01*
G75*
%ADD16R,1.6800X2.9500*%
%ADD17R,1.4000X1.5000*%
%ADD18R,1.3500X1.0000*%
%ADD19R,1.8000X1.2500*%
%ADD20R,1.5000X1.4000*%
%ADD21R,1.4500X1.2000*%
%ADD22R,1.3500X0.4000*%
%ADD23R,1.5500X1.5000*%
G04:AMPARAMS|DCode=24|XSize=0.24mm|YSize=0.6mm|CornerRadius=0.0504mm|HoleSize=0mm|Usage=FLASHONLY|Rotation=270.000|XOffset=0mm|YOffset=0mm|HoleType=Round|Shape=RoundedRectangle|*
%AMROUNDEDRECTD24*
21,1,0.2400,0.4992,0,0,270.0*
21,1,0.1392,0.6000,0,0,270.0*
1,1,0.1008,-0.2496,-0.0696*
1,1,0.1008,-0.2496,0.0696*
1,1,0.1008,0.2496,0.0696*
1,1,0.1008,0.2496,-0.0696*
%
%ADD24ROUNDEDRECTD24*%
%ADD25R,1.1000X1.3500*%
%ADD26R,1.2000X0.4500*%
%ADD27R,0.8000X0.8000*%
%ADD28R,1.2000X1.4500*%
G04:AMPARAMS|DCode=29|XSize=0.24mm|YSize=0.6mm|CornerRadius=0.0504mm|HoleSize=0mm|Usage=FLASHONLY|Rotation=180.000|XOffset=0mm|YOffset=0mm|HoleType=Round|Shape=RoundedRectangle|*
%AMROUNDEDRECTD29*
21,1,0.2400,0.4992,0,0,180.0*
21,1,0.1392,0.6000,0,0,180.0*
1,1,0.1008,-0.0696,0.2496*
1,1,0.1008,0.0696,0.2496*
1,1,0.1008,0.0696,-0.2496*
1,1,0.1008,-0.0696,-0.2496*
%
%ADD29ROUNDEDRECTD29*%
%ADD30R,0.8500X0.8500*%
%ADD31R,1.1000X1.7000*%
%ADD32R,0.8000X1.0000*%
%ADD33R,1.2500X1.5000*%
%ADD34R,1.3500X1.5500*%
%ADD35R,1.0000X1.5000*%
%ADD36R,0.9500X1.3500*%
G04:AMPARAMS|DCode=37|XSize=0.45mm|YSize=0.3mm|CornerRadius=0.0495mm|HoleSize=0mm|Usage=FLASHONLY|Rotation=0.000|XOffset=0mm|YOffset=0mm|HoleType=Round|Shape=RoundedRectangle|*
%AMROUNDEDRECTD37*
21,1,0.4500,0.2010,0,0,0.0*
21,1,0.3510,0.3000,0,0,0.0*
1,1,0.0990,0.1755,-0.1005*
1,1,0.0990,-0.1755,-0.1005*
1,1,0.0990,-0.1755,0.1005*
1,1,0.0990,0.1755,0.1005*
%
%ADD37ROUNDEDRECTD37*%
%ADD38R,1.3500X0.9500*%
%ADD39R,1.3500X1.1000*%
%ADD40R,1.4000X0.3000*%
%ADD41R,1.5700X1.8800*%
G04:AMPARAMS|DCode=57|XSize=0.3mm|YSize=0.3mm|CornerRadius=0.0495mm|HoleSize=0mm|Usage=FLASHONLY|Rotation=270.000|XOffset=0mm|YOffset=0mm|HoleType=Round|Shape=RoundedRectangle|*
%AMROUNDEDRECTD57*
21,1,0.3000,0.2010,0,0,270.0*
21,1,0.2010,0.3000,0,0,270.0*
1,1,0.0990,-0.1005,-0.1005*
1,1,0.0990,-0.1005,0.1005*
1,1,0.0990,0.1005,0.1005*
1,1,0.0990,0.1005,-0.1005*
%
%ADD57ROUNDEDRECTD57*%
G04:AMPARAMS|DCode=65|XSize=1mm|YSize=1.6mm|CornerRadius=0.05mm|HoleSize=0mm|Usage=FLASHONLY|Rotation=0.000|XOffset=0mm|YOffset=0mm|HoleType=Round|Shape=RoundedRectangle|*
%AMROUNDEDRECTD65*
21,1,1.0000,1.5000,0,0,0.0*
21,1,0.9000,1.6000,0,0,0.0*
1,1,0.1000,0.4500,-0.7500*
1,1,0.1000,-0.4500,-0.7500*
1,1,0.1000,-0.4500,0.7500*
1,1,0.1000,0.4500,0.7500*
%
%ADD65ROUNDEDRECTD65*%
%ADD99R,1.5000X1.5000*%
%ADD100C,1.5000*%
%ADD101R,1.5000X4.0000*%
%ADD102R,1.5000X3.5000*%
%ADD103R,3.5000X1.5000*%
%ADD104O,0.9500X1.2500*%
%ADD105O,1.5500X0.9000*%
%ADD106R,1.3500X1.3500*%
%ADD107C,1.3500*%
%ADD108C,0.4500*%
%ADD109R,1.5000X1.5000*%
D16*
X00066854Y00804164D02*
D03*
X00019054D02*
D03*
X00066826Y00671068D02*
D03*
X00019026D02*
D03*
D17*
X0011962Y00473868D02*
D03*
X0014962D02*
D03*
Y0036068D02*
D03*
X0011962D02*
D03*
X0014962Y00397933D02*
D03*
X0011962D02*
D03*
X0014962Y00435187D02*
D03*
X0011962D02*
D03*
D18*
X00550418Y00527668D02*
D03*
Y00509668D02*
D03*
X0035052Y0031264D02*
D03*
Y0029464D02*
D03*
X0037592Y0031264D02*
D03*
Y0029464D02*
D03*
X00528828Y00508872D02*
D03*
Y00490872D02*
D03*
D19*
X00381Y0058419D02*
D03*
Y0061469D02*
D03*
D20*
X0037084Y0083378D02*
D03*
Y0085278D02*
D03*
X0041402Y0083378D02*
D03*
Y0085278D02*
D03*
X00454569Y00841401D02*
D03*
Y00860401D02*
D03*
X00525689Y00796241D02*
D03*
Y00777241D02*
D03*
D21*
X004191Y007185D02*
D03*
Y006985D02*
D03*
D22*
X0004143Y00747106D02*
D03*
Y00740606D02*
D03*
Y00734106D02*
D03*
Y00727606D02*
D03*
Y00721106D02*
D03*
D23*
X0001443Y00744106D02*
D03*
Y00724106D02*
D03*
D24*
X00427909Y0077236D02*
D03*
Y0076736D02*
D03*
Y0080236D02*
D03*
Y0079736D02*
D03*
Y0079236D02*
D03*
Y0078736D02*
D03*
Y0078236D02*
D03*
Y0077736D02*
D03*
X00460909Y0076736D02*
D03*
Y0077236D02*
D03*
Y0077736D02*
D03*
Y0078236D02*
D03*
Y0078736D02*
D03*
Y0079236D02*
D03*
Y0079736D02*
D03*
Y0080236D02*
D03*
D25*
X00315356Y0058674D02*
D03*
X00301356D02*
D03*
X0045847Y00519176D02*
D03*
X0044447D02*
D03*
D26*
X0035774Y0060482D02*
D03*
Y0059832D02*
D03*
Y0059182D02*
D03*
Y0058532D02*
D03*
X0033274D02*
D03*
Y0059182D02*
D03*
Y0059832D02*
D03*
Y0060482D02*
D03*
D27*
X00096654Y00796544D02*
D03*
X00119154D02*
D03*
X00119814Y00724916D02*
D03*
X00142314D02*
D03*
D28*
X00121572Y00748792D02*
D03*
X00141572D02*
D03*
X00141694Y00771144D02*
D03*
X00121694D02*
D03*
D29*
X0043691Y00763361D02*
D03*
X0045191D02*
D03*
Y00806361D02*
D03*
X0043691D02*
D03*
D30*
X00324105Y00740919D02*
D03*
X00335605D02*
D03*
D31*
X0033608Y00766826D02*
D03*
X0030908D02*
D03*
D32*
X00533189Y00723901D02*
D03*
X00518189D02*
D03*
D33*
X00541269Y00746761D02*
D03*
X00520269D02*
D03*
D34*
X00355095Y00720599D02*
D03*
X00335095D02*
D03*
D35*
X0017196Y00473868D02*
D03*
X0020396D02*
D03*
X0017196Y0036068D02*
D03*
X0020396D02*
D03*
X0017196Y00398409D02*
D03*
X0020396D02*
D03*
X0017196Y00436139D02*
D03*
X0020396D02*
D03*
D36*
X0055118Y0012192D02*
D03*
X0053568D02*
D03*
X00175136Y00162306D02*
D03*
X00159636D02*
D03*
X0019838Y0005842D02*
D03*
X0018288D02*
D03*
Y0008128D02*
D03*
X0019838D02*
D03*
D37*
X0014011Y0012122D02*
D03*
Y0011472D02*
D03*
Y0010822D02*
D03*
X0015961D02*
D03*
Y0011472D02*
D03*
Y0012122D02*
D03*
D38*
X0008382Y0017285D02*
D03*
Y0015735D02*
D03*
X0021844Y00096927D02*
D03*
Y00112427D02*
D03*
X0004318Y0017285D02*
D03*
Y0015735D02*
D03*
D39*
X00197093Y00097677D02*
D03*
Y00111677D02*
D03*
D40*
X0046568Y0055864D02*
D03*
Y0055364D02*
D03*
Y0054864D02*
D03*
Y0054364D02*
D03*
Y0053864D02*
D03*
X0050968D02*
D03*
Y0054364D02*
D03*
Y0054864D02*
D03*
Y0055364D02*
D03*
Y0055864D02*
D03*
D41*
X0048768Y0054864D02*
D03*
D57*
X0044441Y0078486D02*
D03*
D65*
X0014986Y0011472D02*
D03*
D99*
X00228346Y0016383D02*
D03*
X0052832Y0009398D02*
D03*
D100*
X00202946Y0016383D02*
D03*
X0032258Y00094488D02*
D03*
Y00119888D02*
D03*
X0047498Y0009398D02*
D03*
Y0011938D02*
D03*
X00530098Y00620776D02*
D03*
X0047498Y0014478D02*
D03*
Y0017018D02*
D03*
Y0019558D02*
D03*
Y0022098D02*
D03*
Y0024638D02*
D03*
Y0027178D02*
D03*
Y0029718D02*
D03*
Y0032258D02*
D03*
Y0034798D02*
D03*
Y0037338D02*
D03*
Y0039878D02*
D03*
Y0042418D02*
D03*
Y0044958D02*
D03*
Y0047498D02*
D03*
X0055372Y0009398D02*
D03*
X0032258Y00475488D02*
D03*
Y00450088D02*
D03*
Y00424688D02*
D03*
Y00399288D02*
D03*
Y00373888D02*
D03*
Y00348488D02*
D03*
Y00323088D02*
D03*
Y00297688D02*
D03*
Y00272288D02*
D03*
Y00246888D02*
D03*
Y00221488D02*
D03*
Y00196088D02*
D03*
Y00170688D02*
D03*
Y00145288D02*
D03*
D101*
X00118646Y00594868D02*
D03*
D102*
X00058646D02*
D03*
D103*
X00088646Y00547868D02*
D03*
D104*
X0004143Y00709106D02*
D03*
Y00759106D02*
D03*
D105*
X0001443Y00699106D02*
D03*
Y00769106D02*
D03*
D106*
X0022177Y0087376D02*
D03*
X003248D02*
D03*
X0011874D02*
D03*
D107*
X0020177D02*
D03*
X0018177D02*
D03*
X003048D02*
D03*
X002848D02*
D03*
X0009874D02*
D03*
X0007874D02*
D03*
D108*
X00510324Y00850392D02*
D03*
X00560324D02*
D03*
D109*
X00530098Y00595376D02*
D03*
X0047498Y0006858D02*
D03*
X0032258Y00069088D02*
D03*
M02*
