G04*
G04 #@! TF.GenerationSoftware,Altium Limited,Altium Designer,19.1.8 (144)*
G04*
G04 Layer_Color=32896*
%FSTAX44Y44*%
%MOMM*%
G71*
G01*
G75*
G36*
X0021971Y00988568D02*
X00221742D01*
Y00986536D01*
Y00984504D01*
Y00982472D01*
Y0098044D01*
Y00978408D01*
X00223774D01*
Y00976376D01*
X00225806D01*
Y00974344D01*
X0022987D01*
Y00972312D01*
X00231902D01*
Y0097028D01*
Y00968248D01*
X00233934D01*
Y00966216D01*
X00237998D01*
Y00964184D01*
Y00962152D01*
X0024003D01*
Y0096012D01*
X00244094D01*
Y00958088D01*
X00246126D01*
Y00956056D01*
Y00954024D01*
X0025019D01*
Y00951992D01*
X00252222D01*
Y0094996D01*
X00254254D01*
Y00947928D01*
X00256286D01*
Y00945896D01*
X00258318D01*
Y00943864D01*
X0026035D01*
Y00945896D01*
X00262382D01*
Y00943864D01*
X00268478D01*
Y00941832D01*
X0027051D01*
Y009398D01*
Y00937768D01*
X00272542D01*
Y00935736D01*
Y00933704D01*
X0027051D01*
Y00931672D01*
X00268478D01*
Y0092964D01*
X00266446D01*
Y00927608D01*
X00264414D01*
Y00925576D01*
X00266446D01*
Y00923544D01*
Y00921512D01*
X00268478D01*
Y0091948D01*
Y00917448D01*
X0027051D01*
Y00915416D01*
Y00913384D01*
X00272542D01*
Y00911352D01*
Y0090932D01*
Y00907288D01*
X00274574D01*
Y00905256D01*
Y00903224D01*
X00272542D01*
Y00905256D01*
Y00907288D01*
X0027051D01*
Y0090932D01*
Y00911352D01*
X00268478D01*
Y00913384D01*
Y00915416D01*
Y00917448D01*
X00266446D01*
Y0091948D01*
Y00921512D01*
X00264414D01*
Y00923544D01*
Y00925576D01*
X00262382D01*
Y00927608D01*
X00258318D01*
Y00925576D01*
Y00923544D01*
Y00921512D01*
X00256286D01*
Y0091948D01*
Y00917448D01*
X00254254D01*
Y0091948D01*
Y00921512D01*
Y00923544D01*
Y00925576D01*
X00256286D01*
Y00927608D01*
Y0092964D01*
X00254254D01*
Y00931672D01*
X00252222D01*
Y00933704D01*
X00248158D01*
Y00931672D01*
X00242062D01*
Y0092964D01*
X00237998D01*
Y00927608D01*
X00231902D01*
Y00925576D01*
X00223774D01*
Y00923544D01*
X00217678D01*
Y00921512D01*
X00213614D01*
Y0091948D01*
X0020955D01*
Y00917448D01*
X00207518D01*
Y00915416D01*
Y00913384D01*
Y00911352D01*
Y0090932D01*
Y00907288D01*
X0020955D01*
Y00905256D01*
Y00903224D01*
X00211582D01*
Y00901192D01*
X00213614D01*
Y0089916D01*
X00215646D01*
Y00897128D01*
Y00895096D01*
Y00893064D01*
X00213614D01*
Y00895096D01*
X00211582D01*
Y00897128D01*
Y0089916D01*
X0020955D01*
Y00901192D01*
Y00903224D01*
X00207518D01*
Y00905256D01*
X00205486D01*
Y00907288D01*
Y0090932D01*
X00193294D01*
Y00911352D01*
X00191262D01*
Y0090932D01*
Y00907288D01*
X0018923D01*
Y0090932D01*
Y00911352D01*
Y00913384D01*
Y00915416D01*
X00187198D01*
Y00917448D01*
X00126238D01*
Y00915416D01*
Y00913384D01*
Y00911352D01*
Y0090932D01*
X0012827D01*
Y00907288D01*
Y00905256D01*
X00130302D01*
Y00903224D01*
Y00901192D01*
X00132334D01*
Y0089916D01*
X00134366D01*
Y00897128D01*
X00136398D01*
Y00895096D01*
X00134366D01*
Y00893064D01*
X00136398D01*
Y00891032D01*
X0013843D01*
Y00889D01*
Y00886968D01*
X00140462D01*
Y00884936D01*
X00142494D01*
Y00882904D01*
Y00880872D01*
Y0087884D01*
X00146558D01*
Y00876808D01*
Y00874776D01*
X0014859D01*
Y00872744D01*
Y00870712D01*
X00150622D01*
Y0086868D01*
X00160782D01*
Y00870712D01*
Y00872744D01*
X00162814D01*
Y00870712D01*
X00164846D01*
Y0086868D01*
X00162814D01*
Y00866648D01*
X00160782D01*
Y00864616D01*
Y00862584D01*
X00164846D01*
Y00860552D01*
X00170942D01*
Y00862584D01*
X00195326D01*
Y00864616D01*
X0020955D01*
Y00866648D01*
X00223774D01*
Y0086868D01*
X0022987D01*
Y00870712D01*
Y00872744D01*
X00227838D01*
Y00874776D01*
Y00876808D01*
X00225806D01*
Y0087884D01*
Y00880872D01*
X00227838D01*
Y0087884D01*
X0022987D01*
Y00876808D01*
X00237998D01*
Y0087884D01*
X0024003D01*
Y00880872D01*
Y00882904D01*
Y00884936D01*
X00242062D01*
Y00886968D01*
Y00889D01*
X00244094D01*
Y00886968D01*
Y00884936D01*
Y00882904D01*
Y00880872D01*
Y0087884D01*
Y00876808D01*
Y00874776D01*
X00246126D01*
Y00872744D01*
Y00870712D01*
X00248158D01*
Y0086868D01*
X00262382D01*
Y00870712D01*
X00272542D01*
Y00872744D01*
X0028067D01*
Y00874776D01*
Y00876808D01*
X00282702D01*
Y0087884D01*
X00284734D01*
Y00880872D01*
Y00882904D01*
X00286766D01*
Y00880872D01*
X00292862D01*
Y0087884D01*
X00294894D01*
Y00876808D01*
X00296926D01*
Y00874776D01*
Y00872744D01*
Y00870712D01*
Y0086868D01*
X00294894D01*
Y00866648D01*
X00292862D01*
Y00864616D01*
Y00862584D01*
Y00860552D01*
Y0085852D01*
Y00856488D01*
Y00854456D01*
Y00852424D01*
Y00850392D01*
Y0084836D01*
Y00846328D01*
X00294894D01*
Y00844296D01*
Y00842264D01*
Y00840232D01*
Y008382D01*
Y00836168D01*
Y00834136D01*
Y00832104D01*
Y00830072D01*
Y0082804D01*
Y00826008D01*
Y00823976D01*
Y00821944D01*
Y00819912D01*
Y0081788D01*
Y00815848D01*
X00296926D01*
Y00813816D01*
X00298958D01*
Y00811784D01*
Y00809752D01*
X00303022D01*
Y0080772D01*
X0030099D01*
Y00805688D01*
Y00803656D01*
X00303022D01*
Y00801624D01*
X0030099D01*
Y00799592D01*
X00298958D01*
Y0079756D01*
X00288798D01*
Y00799592D01*
X00286766D01*
Y00801624D01*
X00284734D01*
Y00803656D01*
Y00805688D01*
X00217678D01*
Y0080772D01*
X00203454D01*
Y00805688D01*
X0019939D01*
Y00803656D01*
X00201422D01*
Y00801624D01*
X0019939D01*
Y00799592D01*
X0018923D01*
Y00801624D01*
X00183134D01*
Y00799592D01*
X00177038D01*
Y0079756D01*
X00170942D01*
Y00795528D01*
X00166878D01*
Y00793496D01*
X00162814D01*
Y00791464D01*
X00154686D01*
Y00789432D01*
X00152654D01*
Y007874D01*
X00146558D01*
Y00785368D01*
X00144526D01*
Y00783336D01*
X00140462D01*
Y00781304D01*
X00136398D01*
Y00783336D01*
X00132334D01*
Y00785368D01*
Y007874D01*
X00130302D01*
Y00789432D01*
Y00791464D01*
X0012827D01*
Y00793496D01*
Y00795528D01*
Y0079756D01*
Y00799592D01*
Y00801624D01*
X00126238D01*
Y00803656D01*
Y00805688D01*
X00124206D01*
Y0080772D01*
Y00809752D01*
Y00811784D01*
X00122174D01*
Y00813816D01*
X00120142D01*
Y00815848D01*
Y0081788D01*
X0011811D01*
Y00819912D01*
Y00821944D01*
X00116078D01*
Y00823976D01*
Y00826008D01*
Y0082804D01*
X00114046D01*
Y00830072D01*
X00112014D01*
Y00832104D01*
Y00834136D01*
X00109982D01*
Y00836168D01*
Y008382D01*
X0010795D01*
Y00840232D01*
X00105918D01*
Y00842264D01*
X00103886D01*
Y00844296D01*
X00101854D01*
Y00846328D01*
Y0084836D01*
X00099822D01*
Y00850392D01*
X0009779D01*
Y00852424D01*
X00099822D01*
Y00854456D01*
Y00856488D01*
X00101854D01*
Y0085852D01*
X00103886D01*
Y00860552D01*
X0010795D01*
Y00862584D01*
X00109982D01*
Y00864616D01*
Y00866648D01*
Y0086868D01*
Y00870712D01*
Y00872744D01*
X0010795D01*
Y00874776D01*
X00109982D01*
Y00876808D01*
Y0087884D01*
Y00880872D01*
Y00882904D01*
Y00884936D01*
Y00886968D01*
X00112014D01*
Y00889D01*
Y00891032D01*
Y00893064D01*
Y00895096D01*
Y00897128D01*
Y0089916D01*
Y00901192D01*
X00114046D01*
Y00903224D01*
Y00905256D01*
Y00907288D01*
Y0090932D01*
Y00911352D01*
Y00913384D01*
X00112014D01*
Y00915416D01*
X00109982D01*
Y00917448D01*
Y0091948D01*
Y00921512D01*
Y00923544D01*
X00112014D01*
Y00925576D01*
X00114046D01*
Y00927608D01*
X00124206D01*
Y0092964D01*
X00126238D01*
Y00931672D01*
X0012827D01*
Y00933704D01*
Y00935736D01*
X00130302D01*
Y00937768D01*
X00132334D01*
Y009398D01*
X00134366D01*
Y00941832D01*
X00136398D01*
Y00943864D01*
X0013843D01*
Y00945896D01*
Y00947928D01*
X00140462D01*
Y0094996D01*
X00142494D01*
Y00951992D01*
X00144526D01*
Y00954024D01*
X00146558D01*
Y00956056D01*
X0014859D01*
Y00958088D01*
Y0096012D01*
X00146558D01*
Y00962152D01*
X00144526D01*
Y00964184D01*
Y00966216D01*
Y00968248D01*
X00146558D01*
Y0097028D01*
X00144526D01*
Y00972312D01*
X00146558D01*
Y00974344D01*
X0014859D01*
Y00976376D01*
X00160782D01*
Y00974344D01*
X00177038D01*
Y00976376D01*
X00181102D01*
Y00978408D01*
X00187198D01*
Y0098044D01*
X00197358D01*
Y00982472D01*
X00205486D01*
Y00984504D01*
X0020955D01*
Y00986536D01*
Y00988568D01*
X00211582D01*
Y009906D01*
X0021971D01*
Y00988568D01*
D02*
G37*
G36*
X00254254Y00913384D02*
Y00911352D01*
X00252222D01*
Y0090932D01*
X0025019D01*
Y00911352D01*
Y00913384D01*
X00252222D01*
Y00915416D01*
X00254254D01*
Y00913384D01*
D02*
G37*
G36*
X0025019Y00905256D02*
Y00903224D01*
Y00901192D01*
Y0089916D01*
X00248158D01*
Y00901192D01*
X00246126D01*
Y00903224D01*
X00248158D01*
Y00905256D01*
Y00907288D01*
X0025019D01*
Y00905256D01*
D02*
G37*
G36*
X00248158Y00897128D02*
Y00895096D01*
X00246126D01*
Y00897128D01*
Y0089916D01*
X00248158D01*
Y00897128D01*
D02*
G37*
G36*
X0018923Y00905256D02*
X00187198D01*
Y00903224D01*
Y00901192D01*
X00185166D01*
Y0089916D01*
X00183134D01*
Y00897128D01*
Y00895096D01*
X0017907D01*
Y00897128D01*
X00181102D01*
Y0089916D01*
Y00901192D01*
X00183134D01*
Y00903224D01*
Y00905256D01*
X00185166D01*
Y00907288D01*
X0018923D01*
Y00905256D01*
D02*
G37*
G36*
X00278638Y00897128D02*
X0028067D01*
Y00895096D01*
Y00893064D01*
Y00891032D01*
Y00889D01*
X00278638D01*
Y00891032D01*
Y00893064D01*
X00276606D01*
Y00895096D01*
Y00897128D01*
Y0089916D01*
X00278638D01*
Y00897128D01*
D02*
G37*
G36*
X00246126Y00891032D02*
Y00889D01*
X00244094D01*
Y00891032D01*
Y00893064D01*
X00246126D01*
Y00891032D01*
D02*
G37*
G36*
X0017907Y00893064D02*
Y00891032D01*
Y00889D01*
X00175006D01*
Y00886968D01*
Y00884936D01*
X00172974D01*
Y00886968D01*
Y00889D01*
Y00891032D01*
X00177038D01*
Y00893064D01*
Y00895096D01*
X0017907D01*
Y00893064D01*
D02*
G37*
G36*
X0021971Y00891032D02*
X00221742D01*
Y00889D01*
Y00886968D01*
X00223774D01*
Y00884936D01*
Y00882904D01*
X00221742D01*
Y00884936D01*
X0021971D01*
Y00886968D01*
Y00889D01*
X00217678D01*
Y00891032D01*
Y00893064D01*
X0021971D01*
Y00891032D01*
D02*
G37*
G36*
X00172974Y00882904D02*
X00170942D01*
Y00880872D01*
Y0087884D01*
X0016891D01*
Y00876808D01*
X00166878D01*
Y00874776D01*
Y00872744D01*
X00162814D01*
Y00874776D01*
X00164846D01*
Y00876808D01*
Y0087884D01*
X00166878D01*
Y00880872D01*
X0016891D01*
Y00882904D01*
Y00884936D01*
X00172974D01*
Y00882904D01*
D02*
G37*
G36*
X00132334Y00752856D02*
Y00750824D01*
Y00748792D01*
Y0074676D01*
X00120142D01*
Y00748792D01*
Y00750824D01*
Y00752856D01*
Y00754888D01*
X00132334D01*
Y00752856D01*
D02*
G37*
G36*
X00195326Y00738632D02*
Y007366D01*
Y00734568D01*
Y00732536D01*
Y00730504D01*
Y00728472D01*
Y0072644D01*
Y00724408D01*
Y00722376D01*
Y00720344D01*
Y00718312D01*
Y0071628D01*
Y00714248D01*
Y00712216D01*
Y00710184D01*
Y00708152D01*
Y0070612D01*
Y00704088D01*
X00193294D01*
Y00702056D01*
X00183134D01*
Y00704088D01*
Y0070612D01*
Y00708152D01*
Y00710184D01*
Y00712216D01*
Y00714248D01*
Y0071628D01*
Y00718312D01*
Y00720344D01*
Y00722376D01*
Y00724408D01*
Y0072644D01*
Y00728472D01*
Y00730504D01*
Y00732536D01*
X00177038D01*
Y00730504D01*
Y00728472D01*
Y0072644D01*
Y00724408D01*
Y00722376D01*
Y00720344D01*
Y00718312D01*
Y0071628D01*
Y00714248D01*
Y00712216D01*
Y00710184D01*
Y00708152D01*
Y0070612D01*
Y00704088D01*
Y00702056D01*
X00164846D01*
Y00704088D01*
Y0070612D01*
Y00708152D01*
Y00710184D01*
Y00712216D01*
Y00714248D01*
Y0071628D01*
Y00718312D01*
Y00720344D01*
Y00722376D01*
Y00724408D01*
Y0072644D01*
Y00728472D01*
Y00730504D01*
Y00732536D01*
Y00734568D01*
Y007366D01*
Y00738632D01*
X0016891D01*
Y00740664D01*
X0017907D01*
Y00738632D01*
X00183134D01*
Y00740664D01*
X00195326D01*
Y00738632D01*
D02*
G37*
G36*
X00276606Y00748792D02*
Y0074676D01*
X00274574D01*
Y00744728D01*
Y00742696D01*
Y00740664D01*
Y00738632D01*
X00272542D01*
Y007366D01*
Y00734568D01*
Y00732536D01*
Y00730504D01*
Y00728472D01*
Y0072644D01*
X0027051D01*
Y00724408D01*
Y00722376D01*
Y00720344D01*
X00268478D01*
Y00718312D01*
Y0071628D01*
Y00714248D01*
X00266446D01*
Y00712216D01*
Y00710184D01*
Y00708152D01*
Y0070612D01*
Y00704088D01*
Y00702056D01*
X0025019D01*
Y00704088D01*
Y0070612D01*
Y00708152D01*
Y00710184D01*
X00248158D01*
Y00712216D01*
Y00714248D01*
Y0071628D01*
Y00718312D01*
Y00720344D01*
Y00722376D01*
X00246126D01*
Y00724408D01*
Y0072644D01*
Y00728472D01*
X00244094D01*
Y00730504D01*
Y00732536D01*
Y00734568D01*
X00242062D01*
Y007366D01*
Y00738632D01*
Y00740664D01*
X0024003D01*
Y00742696D01*
Y00744728D01*
Y0074676D01*
Y00748792D01*
Y00750824D01*
X00252222D01*
Y00748792D01*
X0025019D01*
Y0074676D01*
Y00744728D01*
X00252222D01*
Y00742696D01*
Y00740664D01*
Y00738632D01*
Y007366D01*
X00254254D01*
Y00734568D01*
Y00732536D01*
Y00730504D01*
Y00728472D01*
X00256286D01*
Y0072644D01*
Y00724408D01*
Y00722376D01*
Y00720344D01*
X0026035D01*
Y00722376D01*
Y00724408D01*
Y0072644D01*
Y00728472D01*
X00262382D01*
Y00730504D01*
Y00732536D01*
Y00734568D01*
Y007366D01*
Y00738632D01*
Y00740664D01*
Y00742696D01*
Y00744728D01*
X00264414D01*
Y0074676D01*
Y00748792D01*
Y00750824D01*
X00276606D01*
Y00748792D01*
D02*
G37*
G36*
X0022987Y00738632D02*
X00231902D01*
Y007366D01*
Y00734568D01*
X00233934D01*
Y00732536D01*
Y00730504D01*
Y00728472D01*
Y0072644D01*
Y00724408D01*
Y00722376D01*
Y00720344D01*
Y00718312D01*
Y0071628D01*
Y00714248D01*
Y00712216D01*
Y00710184D01*
X00231902D01*
Y00708152D01*
Y0070612D01*
Y00704088D01*
X00227838D01*
Y00702056D01*
X0020955D01*
Y00704088D01*
X00205486D01*
Y0070612D01*
X00203454D01*
Y00708152D01*
Y00710184D01*
Y00712216D01*
Y00714248D01*
X00213614D01*
Y00712216D01*
Y00710184D01*
X00221742D01*
Y00712216D01*
Y00714248D01*
Y0071628D01*
Y00718312D01*
X00203454D01*
Y00720344D01*
Y00722376D01*
Y00724408D01*
Y0072644D01*
Y00728472D01*
Y00730504D01*
Y00732536D01*
Y00734568D01*
Y007366D01*
Y00738632D01*
X00207518D01*
Y00740664D01*
X0022987D01*
Y00738632D01*
D02*
G37*
G36*
X00154686Y0074676D02*
Y00744728D01*
Y00742696D01*
Y00740664D01*
X0015875D01*
Y00738632D01*
Y007366D01*
Y00734568D01*
Y00732536D01*
X00154686D01*
Y00730504D01*
Y00728472D01*
Y0072644D01*
Y00724408D01*
Y00722376D01*
Y00720344D01*
Y00718312D01*
Y0071628D01*
Y00714248D01*
Y00712216D01*
Y00710184D01*
Y00708152D01*
X00152654D01*
Y0070612D01*
X00150622D01*
Y00704088D01*
X0014859D01*
Y00702056D01*
X0013843D01*
Y00704088D01*
Y0070612D01*
Y00708152D01*
Y00710184D01*
Y00712216D01*
X00142494D01*
Y00714248D01*
Y0071628D01*
Y00718312D01*
Y00720344D01*
Y00722376D01*
Y00724408D01*
Y0072644D01*
Y00728472D01*
Y00730504D01*
Y00732536D01*
X0013843D01*
Y00734568D01*
Y007366D01*
Y00738632D01*
X00136398D01*
Y00740664D01*
X00142494D01*
Y00742696D01*
Y00744728D01*
Y0074676D01*
Y00748792D01*
X00154686D01*
Y0074676D01*
D02*
G37*
G36*
X00132334Y00738632D02*
Y007366D01*
Y00734568D01*
Y00732536D01*
Y00730504D01*
Y00728472D01*
Y0072644D01*
Y00724408D01*
Y00722376D01*
Y00720344D01*
Y00718312D01*
Y0071628D01*
Y00714248D01*
Y00712216D01*
Y00710184D01*
Y00708152D01*
Y0070612D01*
Y00704088D01*
Y00702056D01*
X00120142D01*
Y00704088D01*
Y0070612D01*
Y00708152D01*
Y00710184D01*
Y00712216D01*
Y00714248D01*
Y0071628D01*
Y00718312D01*
Y00720344D01*
Y00722376D01*
Y00724408D01*
Y0072644D01*
Y00728472D01*
Y00730504D01*
Y00732536D01*
Y00734568D01*
Y007366D01*
Y00738632D01*
Y00740664D01*
X00132334D01*
Y00738632D01*
D02*
G37*
%LPC*%
G36*
X0020955Y0098044D02*
X00201422D01*
Y00978408D01*
X00193294D01*
Y00976376D01*
X00185166D01*
Y00974344D01*
X0017907D01*
Y00972312D01*
X00172974D01*
Y0097028D01*
X00164846D01*
Y00968248D01*
X00162814D01*
Y00966216D01*
Y00964184D01*
Y00962152D01*
Y0096012D01*
X00166878D01*
Y00958088D01*
Y00956056D01*
X0016891D01*
Y00954024D01*
X00170942D01*
Y00951992D01*
X00172974D01*
Y0094996D01*
X00175006D01*
Y00947928D01*
X00177038D01*
Y00945896D01*
Y00943864D01*
X0017907D01*
Y00941832D01*
X00181102D01*
Y009398D01*
X00183134D01*
Y00937768D01*
X00185166D01*
Y00935736D01*
Y00933704D01*
X0018923D01*
Y00931672D01*
Y0092964D01*
X0019939D01*
Y00931672D01*
X00201422D01*
Y00933704D01*
Y00935736D01*
X00203454D01*
Y00937768D01*
Y009398D01*
Y00941832D01*
Y00943864D01*
Y00945896D01*
Y00947928D01*
X00205486D01*
Y0094996D01*
Y00951992D01*
Y00954024D01*
X00207518D01*
Y00951992D01*
Y0094996D01*
Y00947928D01*
Y00945896D01*
Y00943864D01*
Y00941832D01*
Y009398D01*
X00205486D01*
Y00937768D01*
Y00935736D01*
Y00933704D01*
X00203454D01*
Y00931672D01*
Y0092964D01*
X00205486D01*
Y00927608D01*
X00207518D01*
Y00925576D01*
X0020955D01*
Y00923544D01*
X00215646D01*
Y00925576D01*
X00221742D01*
Y00927608D01*
X00225806D01*
Y0092964D01*
X00235966D01*
Y00931672D01*
X0024003D01*
Y00933704D01*
X00246126D01*
Y00935736D01*
X0025019D01*
Y00937768D01*
X00254254D01*
Y009398D01*
Y00941832D01*
Y00943864D01*
Y00945896D01*
X00252222D01*
Y00947928D01*
X0025019D01*
Y0094996D01*
X00248158D01*
Y00951992D01*
X00246126D01*
Y00954024D01*
X00244094D01*
Y00956056D01*
X0024003D01*
Y00958088D01*
X00237998D01*
Y0096012D01*
X00235966D01*
Y00962152D01*
X00233934D01*
Y00964184D01*
X00231902D01*
Y00966216D01*
X0022987D01*
Y00968248D01*
X00227838D01*
Y0097028D01*
X00225806D01*
Y00972312D01*
X00223774D01*
Y00974344D01*
X00221742D01*
Y00976376D01*
X0021971D01*
Y00978408D01*
X00215646D01*
Y00976376D01*
X00213614D01*
Y00974344D01*
X00215646D01*
Y00972312D01*
X00213614D01*
Y0097028D01*
Y00968248D01*
Y00966216D01*
X00211582D01*
Y00964184D01*
Y00962152D01*
Y0096012D01*
X0020955D01*
Y00958088D01*
Y00956056D01*
Y00954024D01*
X00207518D01*
Y00956056D01*
Y00958088D01*
Y0096012D01*
Y00962152D01*
X0020955D01*
Y00964184D01*
Y00966216D01*
Y00968248D01*
X00211582D01*
Y0097028D01*
Y00972312D01*
Y00974344D01*
Y00976376D01*
Y00978408D01*
X0020955D01*
Y0098044D01*
D02*
G37*
G36*
X00164846Y00958088D02*
X0015875D01*
Y00956056D01*
X00150622D01*
Y00954024D01*
X0014859D01*
Y00951992D01*
X00146558D01*
Y0094996D01*
X00144526D01*
Y00947928D01*
X00142494D01*
Y00945896D01*
X00140462D01*
Y00943864D01*
Y00941832D01*
X0013843D01*
Y009398D01*
X00136398D01*
Y00937768D01*
X00134366D01*
Y00935736D01*
X00132334D01*
Y00933704D01*
X00130302D01*
Y00931672D01*
Y0092964D01*
X0012827D01*
Y00927608D01*
X00126238D01*
Y00925576D01*
Y00923544D01*
Y00921512D01*
X0018923D01*
Y00923544D01*
Y00925576D01*
Y00927608D01*
Y0092964D01*
X00185166D01*
Y00931672D01*
Y00933704D01*
X00183134D01*
Y00935736D01*
X00181102D01*
Y00937768D01*
X0017907D01*
Y009398D01*
X00177038D01*
Y00941832D01*
X00175006D01*
Y00943864D01*
Y00945896D01*
X00172974D01*
Y00947928D01*
X00170942D01*
Y0094996D01*
X0016891D01*
Y00951992D01*
X00166878D01*
Y00954024D01*
Y00956056D01*
X00164846D01*
Y00958088D01*
D02*
G37*
G36*
X00122174Y00911352D02*
X0011811D01*
Y0090932D01*
Y00907288D01*
X00116078D01*
Y00905256D01*
Y00903224D01*
Y00901192D01*
Y0089916D01*
Y00897128D01*
Y00895096D01*
X00114046D01*
Y00893064D01*
Y00891032D01*
Y00889D01*
Y00886968D01*
Y00884936D01*
Y00882904D01*
Y00880872D01*
X00112014D01*
Y0087884D01*
Y00876808D01*
Y00874776D01*
Y00872744D01*
Y00870712D01*
Y0086868D01*
X00114046D01*
Y00866648D01*
X00112014D01*
Y00864616D01*
Y00862584D01*
Y00860552D01*
Y0085852D01*
Y00856488D01*
X00114046D01*
Y00854456D01*
Y00852424D01*
Y00850392D01*
X00122174D01*
Y00852424D01*
X0012827D01*
Y00854456D01*
X00134366D01*
Y00856488D01*
X00140462D01*
Y00854456D01*
X00136398D01*
Y00852424D01*
X00130302D01*
Y00850392D01*
X00124206D01*
Y0084836D01*
X00120142D01*
Y00846328D01*
X00116078D01*
Y00844296D01*
X00114046D01*
Y00842264D01*
X00112014D01*
Y00840232D01*
Y008382D01*
Y00836168D01*
X00114046D01*
Y00834136D01*
Y00832104D01*
X00116078D01*
Y00830072D01*
X0011811D01*
Y0082804D01*
Y00826008D01*
Y00823976D01*
X00120142D01*
Y00821944D01*
Y00819912D01*
Y0081788D01*
X00122174D01*
Y00815848D01*
X00124206D01*
Y00813816D01*
Y00811784D01*
X00126238D01*
Y00809752D01*
X0012827D01*
Y0080772D01*
Y00805688D01*
Y00803656D01*
Y00801624D01*
X00130302D01*
Y00803656D01*
X00134366D01*
Y00805688D01*
X00140462D01*
Y0080772D01*
Y00809752D01*
X00142494D01*
Y0080772D01*
Y00805688D01*
Y00803656D01*
X00144526D01*
Y00801624D01*
X00146558D01*
Y00799592D01*
X0014859D01*
Y0079756D01*
Y00795528D01*
Y00793496D01*
Y00791464D01*
X00152654D01*
Y00793496D01*
X0015875D01*
Y00795528D01*
X00164846D01*
Y0079756D01*
X0016891D01*
Y00799592D01*
X00172974D01*
Y00801624D01*
X0017907D01*
Y00803656D01*
X00183134D01*
Y00805688D01*
Y0080772D01*
Y00809752D01*
X00185166D01*
Y00811784D01*
Y00813816D01*
Y00815848D01*
X00195326D01*
Y0081788D01*
X00201422D01*
Y00815848D01*
X0019939D01*
Y00813816D01*
Y00811784D01*
X00201422D01*
Y00809752D01*
X00278638D01*
Y0080772D01*
X00282702D01*
Y00809752D01*
X00284734D01*
Y00811784D01*
Y00813816D01*
X00282702D01*
Y00815848D01*
X00288798D01*
Y0081788D01*
X0029083D01*
Y00819912D01*
Y00821944D01*
Y00823976D01*
Y00826008D01*
Y0082804D01*
Y00830072D01*
Y00832104D01*
Y00834136D01*
Y00836168D01*
Y008382D01*
Y00840232D01*
Y00842264D01*
Y00844296D01*
Y00846328D01*
Y0084836D01*
Y00850392D01*
Y00852424D01*
Y00854456D01*
Y00856488D01*
Y0085852D01*
X00288798D01*
Y00860552D01*
Y00862584D01*
Y00864616D01*
X00284734D01*
Y00866648D01*
X00282702D01*
Y0086868D01*
X0028067D01*
Y00870712D01*
X00274574D01*
Y0086868D01*
X00264414D01*
Y00866648D01*
X00248158D01*
Y00864616D01*
X00244094D01*
Y00862584D01*
Y00860552D01*
Y0085852D01*
Y00856488D01*
X00248158D01*
Y00854456D01*
X0025019D01*
Y00852424D01*
X00252222D01*
Y00850392D01*
X00254254D01*
Y0084836D01*
X00256286D01*
Y00846328D01*
X00258318D01*
Y00844296D01*
X0026035D01*
Y00842264D01*
Y00840232D01*
X00258318D01*
Y00842264D01*
X00256286D01*
Y00844296D01*
X00254254D01*
Y00846328D01*
X00252222D01*
Y0084836D01*
X0025019D01*
Y00850392D01*
Y00852424D01*
X00246126D01*
Y00854456D01*
X00244094D01*
Y00856488D01*
X00242062D01*
Y0085852D01*
X00233934D01*
Y00856488D01*
X00231902D01*
Y00854456D01*
X0022987D01*
Y00856488D01*
Y0085852D01*
Y00860552D01*
Y00862584D01*
X00227838D01*
Y00864616D01*
X00215646D01*
Y00862584D01*
X00201422D01*
Y00860552D01*
X0018923D01*
Y0085852D01*
X00166878D01*
Y00856488D01*
X00164846D01*
Y00854456D01*
X00162814D01*
Y00852424D01*
Y00850392D01*
X00164846D01*
Y0084836D01*
Y00846328D01*
X00166878D01*
Y00844296D01*
Y00842264D01*
X0016891D01*
Y00840232D01*
X00170942D01*
Y008382D01*
X00172974D01*
Y00836168D01*
Y00834136D01*
Y00832104D01*
X00177038D01*
Y00830072D01*
Y0082804D01*
X0017907D01*
Y00826008D01*
Y00823976D01*
X00181102D01*
Y00821944D01*
X00183134D01*
Y00819912D01*
X0017907D01*
Y00821944D01*
Y00823976D01*
X00177038D01*
Y00826008D01*
X00175006D01*
Y0082804D01*
Y00830072D01*
X00172974D01*
Y00832104D01*
X00170942D01*
Y00834136D01*
Y00836168D01*
X00166878D01*
Y008382D01*
Y00840232D01*
X00164846D01*
Y00842264D01*
Y00844296D01*
X00162814D01*
Y00846328D01*
X00160782D01*
Y0084836D01*
X00154686D01*
Y00846328D01*
X00152654D01*
Y00844296D01*
X00150622D01*
Y00842264D01*
Y00840232D01*
Y008382D01*
Y00836168D01*
X0014859D01*
Y00834136D01*
Y00832104D01*
X00150622D01*
Y00830072D01*
X0014859D01*
Y0082804D01*
Y00826008D01*
Y00823976D01*
Y00821944D01*
X00146558D01*
Y00819912D01*
Y0081788D01*
Y00815848D01*
X00144526D01*
Y00813816D01*
Y00811784D01*
Y00809752D01*
X00142494D01*
Y00811784D01*
Y00813816D01*
Y00815848D01*
Y0081788D01*
X00144526D01*
Y00819912D01*
Y00821944D01*
Y00823976D01*
Y00826008D01*
X00146558D01*
Y0082804D01*
Y00830072D01*
X00144526D01*
Y00832104D01*
X00146558D01*
Y00834136D01*
Y00836168D01*
Y008382D01*
Y00840232D01*
X0014859D01*
Y00842264D01*
Y00844296D01*
Y00846328D01*
Y0084836D01*
Y00850392D01*
X00146558D01*
Y00852424D01*
X00144526D01*
Y00854456D01*
Y00856488D01*
X00140462D01*
Y0085852D01*
X00144526D01*
Y00860552D01*
Y00862584D01*
X00146558D01*
Y00864616D01*
Y00866648D01*
Y0086868D01*
Y00870712D01*
X00144526D01*
Y00872744D01*
Y00874776D01*
Y00876808D01*
X00142494D01*
Y0087884D01*
X00140462D01*
Y00880872D01*
X0013843D01*
Y00882904D01*
Y00884936D01*
X00136398D01*
Y00886968D01*
Y00889D01*
X00134366D01*
Y00891032D01*
Y00893064D01*
X00132334D01*
Y00895096D01*
Y00897128D01*
X00130302D01*
Y0089916D01*
Y00901192D01*
X0012827D01*
Y00903224D01*
X00126238D01*
Y00905256D01*
X00124206D01*
Y00907288D01*
Y0090932D01*
X00122174D01*
Y00911352D01*
D02*
G37*
%LPD*%
G36*
X0022987Y00852424D02*
X00227838D01*
Y00850392D01*
Y0084836D01*
X00225806D01*
Y00850392D01*
Y00852424D01*
Y00854456D01*
X0022987D01*
Y00852424D01*
D02*
G37*
G36*
X00225806Y00846328D02*
X00223774D01*
Y00844296D01*
X00221742D01*
Y00842264D01*
X0021971D01*
Y00840232D01*
X00217678D01*
Y008382D01*
Y00836168D01*
X00215646D01*
Y00834136D01*
X00213614D01*
Y00832104D01*
X00211582D01*
Y00830072D01*
X0020955D01*
Y0082804D01*
Y00826008D01*
X00207518D01*
Y00823976D01*
X00205486D01*
Y00821944D01*
X00203454D01*
Y00819912D01*
X0019939D01*
Y00821944D01*
X00201422D01*
Y00823976D01*
X00203454D01*
Y00826008D01*
X00205486D01*
Y0082804D01*
X00207518D01*
Y00830072D01*
Y00832104D01*
X0020955D01*
Y00834136D01*
X00211582D01*
Y00836168D01*
X00213614D01*
Y008382D01*
X00215646D01*
Y00840232D01*
Y00842264D01*
X00217678D01*
Y00844296D01*
X0021971D01*
Y00846328D01*
X00221742D01*
Y0084836D01*
X00225806D01*
Y00846328D01*
D02*
G37*
G36*
X00268478Y00832104D02*
X0027051D01*
Y00830072D01*
X00272542D01*
Y0082804D01*
X00274574D01*
Y00826008D01*
X00276606D01*
Y00823976D01*
X00278638D01*
Y00821944D01*
X0028067D01*
Y00819912D01*
Y0081788D01*
X00278638D01*
Y00819912D01*
X00276606D01*
Y00821944D01*
X00274574D01*
Y00823976D01*
X00272542D01*
Y00826008D01*
X0027051D01*
Y0082804D01*
X00268478D01*
Y00830072D01*
X00266446D01*
Y00832104D01*
Y00834136D01*
X00268478D01*
Y00832104D01*
D02*
G37*
%LPC*%
G36*
X00221742Y00732536D02*
X00213614D01*
Y00730504D01*
Y00728472D01*
Y0072644D01*
Y00724408D01*
X00221742D01*
Y0072644D01*
Y00728472D01*
Y00730504D01*
Y00732536D01*
D02*
G37*
%LPD*%
M02*
