G04*
G04 #@! TF.GenerationSoftware,Altium Limited,Altium Designer,19.1.8 (144)*
G04*
G04 Layer_Color=8388736*
%FSTAX44Y44*%
%MOMM*%
G71*
G01*
G75*
G04:AMPARAMS|DCode=20|XSize=0.45mm|YSize=0.3mm|CornerRadius=0.0495mm|HoleSize=0mm|Usage=FLASHONLY|Rotation=0.000|XOffset=0mm|YOffset=0mm|HoleType=Round|Shape=RoundedRectangle|*
%AMROUNDEDRECTD20*
21,1,0.4500,0.2010,0,0,0.0*
21,1,0.3510,0.3000,0,0,0.0*
1,1,0.0990,0.1755,-0.1005*
1,1,0.0990,-0.1755,-0.1005*
1,1,0.0990,-0.1755,0.1005*
1,1,0.0990,0.1755,0.1005*
%
%ADD20ROUNDEDRECTD20*%
%ADD22R,1.5000X1.0000*%
%ADD34R,2.1000X1.4000*%
G04:AMPARAMS|DCode=47|XSize=1mm|YSize=1.6mm|CornerRadius=0.05mm|HoleSize=0mm|Usage=FLASHONLY|Rotation=0.000|XOffset=0mm|YOffset=0mm|HoleType=Round|Shape=RoundedRectangle|*
%AMROUNDEDRECTD47*
21,1,1.0000,1.5000,0,0,0.0*
21,1,0.9000,1.6000,0,0,0.0*
1,1,0.1000,0.4500,-0.7500*
1,1,0.1000,-0.4500,-0.7500*
1,1,0.1000,-0.4500,0.7500*
1,1,0.1000,0.4500,0.7500*
%
%ADD47ROUNDEDRECTD47*%
%ADD48R,1.7032X1.6032*%
%ADD49R,1.4032X2.9032*%
%ADD50R,4.2032X2.3532*%
%ADD51R,1.3032X1.5532*%
%ADD52R,2.1282X1.1532*%
%ADD53R,1.5532X1.1532*%
%ADD54R,1.2232X1.6732*%
%ADD55R,3.5032X2.6132*%
%ADD56R,0.8532X1.7282*%
%ADD57R,1.0032X1.1032*%
%ADD58R,1.6532X1.4032*%
%ADD59R,1.7032X1.7032*%
%ADD60R,1.4032X1.6532*%
%ADD61R,1.1532X1.5532*%
%ADD62R,1.5532X1.2032*%
%ADD63R,1.2032X1.5532*%
%ADD64R,1.6032X1.1532*%
%ADD65R,1.1532X1.6032*%
%ADD66R,3.0032X5.5032*%
%ADD67R,1.9032X2.7032*%
%ADD68R,2.7032X1.9032*%
%ADD69R,2.7032X4.2032*%
%ADD70R,1.6532X1.3532*%
%ADD71R,1.5532X1.3032*%
%ADD72C,0.5032*%
%ADD73R,1.8532X1.8532*%
%ADD74C,1.8532*%
%ADD75C,2.3782*%
%ADD76R,2.3782X2.3782*%
%ADD77C,1.7032*%
%ADD78R,1.7032X1.7032*%
%ADD79C,2.4532*%
%ADD80C,1.7272*%
%ADD81C,0.5000*%
%ADD82C,1.4732*%
D20*
X0018751Y0017274D02*
D03*
Y0016624D02*
D03*
Y0015974D02*
D03*
X0020701D02*
D03*
Y0016624D02*
D03*
Y0017274D02*
D03*
D22*
X01343914Y00068836D02*
D03*
Y00100836D02*
D03*
X01264158Y00068836D02*
D03*
Y00100836D02*
D03*
X01304036Y00068836D02*
D03*
Y00100836D02*
D03*
X0122428Y00068836D02*
D03*
Y00100836D02*
D03*
D34*
X0039138Y0044668D02*
D03*
X0048238D02*
D03*
X0039138Y0040168D02*
D03*
X0048238D02*
D03*
X0066018Y003077D02*
D03*
X0056918D02*
D03*
X0066018Y003527D02*
D03*
X0056918D02*
D03*
X0066018Y0040168D02*
D03*
X0056918D02*
D03*
X0066018Y0044668D02*
D03*
X0056918D02*
D03*
X0066018Y0049566D02*
D03*
X0056918D02*
D03*
X0066018Y0054066D02*
D03*
X0056918D02*
D03*
D47*
X0019726Y0016624D02*
D03*
D48*
X01343914Y00140956D02*
D03*
Y00170956D02*
D03*
X0122428D02*
D03*
Y00140956D02*
D03*
X01304036Y00170956D02*
D03*
Y00140956D02*
D03*
X01264158Y00170956D02*
D03*
Y00140956D02*
D03*
X0047752Y00945328D02*
D03*
Y00915328D02*
D03*
X0042672D02*
D03*
Y00945328D02*
D03*
D49*
X0102669Y00898652D02*
D03*
X0099769D02*
D03*
D50*
X00622942Y00797932D02*
D03*
X00689942D02*
D03*
D51*
X0036192Y0093347D02*
D03*
X0037592D02*
D03*
X00957184Y00578612D02*
D03*
X00971184D02*
D03*
X01012556Y00184404D02*
D03*
X01026556D02*
D03*
D52*
X01046136Y0086315D02*
D03*
Y0083865D02*
D03*
X00987896D02*
D03*
Y0086315D02*
D03*
D53*
X00268986Y00229994D02*
D03*
Y00245494D02*
D03*
X002794Y0052083D02*
D03*
Y0053633D02*
D03*
Y0049302D02*
D03*
Y0047752D02*
D03*
D54*
X00793242Y00923354D02*
D03*
X00809242D02*
D03*
D55*
X00760102Y00869052D02*
D03*
D56*
X00779152Y00841932D02*
D03*
X00766452D02*
D03*
X00753752D02*
D03*
X00741052D02*
D03*
Y00896172D02*
D03*
X00753752D02*
D03*
X00766452D02*
D03*
X00779152D02*
D03*
D57*
X01083056Y00303624D02*
D03*
X01092556Y00283624D02*
D03*
X01073556D02*
D03*
X01086612Y00518922D02*
D03*
X01096112Y00498922D02*
D03*
X01077112D02*
D03*
X01082294Y00735584D02*
D03*
X01091794Y00715584D02*
D03*
X01072794D02*
D03*
D58*
X00428248Y00986028D02*
D03*
Y00966028D02*
D03*
X0047712Y00986028D02*
D03*
Y00966028D02*
D03*
X00525993D02*
D03*
Y00986028D02*
D03*
X00731774Y00805942D02*
D03*
Y00785942D02*
D03*
D59*
X00527727Y00944828D02*
D03*
Y00909828D02*
D03*
X0031623Y0050038D02*
D03*
X0008763Y0093218D02*
D03*
X003683Y008763D02*
D03*
X0143256Y00929894D02*
D03*
X00572516Y00767334D02*
D03*
D60*
X00768602Y00940172D02*
D03*
X00751602D02*
D03*
D61*
X00206632Y0011303D02*
D03*
X00191132D02*
D03*
X00117732Y00159258D02*
D03*
X00102232D02*
D03*
X00207258Y0026797D02*
D03*
X00222758D02*
D03*
X00187074D02*
D03*
X00171574D02*
D03*
X00191132Y00092964D02*
D03*
X00206632D02*
D03*
D62*
X0036703Y00440546D02*
D03*
Y00422546D02*
D03*
X00756158Y0078221D02*
D03*
Y0080021D02*
D03*
D63*
X005354Y003556D02*
D03*
X005174D02*
D03*
X005354Y0044704D02*
D03*
X005174D02*
D03*
X005354Y0054356D02*
D03*
X005174D02*
D03*
D64*
X0036703Y00467766D02*
D03*
Y00486766D02*
D03*
X0053848Y0039558D02*
D03*
Y0037658D02*
D03*
X00545084Y00487274D02*
D03*
Y00468274D02*
D03*
X005334Y0058354D02*
D03*
Y0056454D02*
D03*
D65*
X0106294Y0026543D02*
D03*
X0104394D02*
D03*
X01075792Y00477774D02*
D03*
X01056792D02*
D03*
X01070864Y00686562D02*
D03*
X01051864D02*
D03*
D66*
X00658502Y00686172D02*
D03*
X00760502D02*
D03*
D67*
X0112268Y003048D02*
D03*
Y003448D02*
D03*
X01126998Y00520258D02*
D03*
Y00560258D02*
D03*
X01121156Y00736092D02*
D03*
Y00776092D02*
D03*
D68*
X00830072Y0074295D02*
D03*
X00790072D02*
D03*
D69*
X00897262Y00844292D02*
D03*
Y00924292D02*
D03*
D70*
X00826142Y00829572D02*
D03*
Y00847572D02*
D03*
D71*
X00228092Y00165638D02*
D03*
Y00151638D02*
D03*
D72*
X00186378Y0017274D02*
X00186944Y00173306D01*
X00180848Y0016624D02*
X00186359D01*
X0020729Y0015974D02*
X00211582D01*
X00180848Y0017274D02*
X00186378D01*
X00207557D02*
X00211847D01*
X00180848Y0015974D02*
X00185138D01*
X0020701Y0016624D02*
X002113D01*
D73*
X013716Y0095504D02*
D03*
D74*
X013366D02*
D03*
D75*
X0121412D02*
D03*
X0117912D02*
D03*
D76*
X0114412D02*
D03*
D77*
X01006094Y00207772D02*
D03*
X00980694D02*
D03*
X00955294D02*
D03*
X00929894D02*
D03*
X00904494D02*
D03*
X00879094D02*
D03*
X00853694D02*
D03*
X00828294D02*
D03*
X00802894D02*
D03*
X00777494D02*
D03*
X00752094D02*
D03*
X00726694D02*
D03*
X00701294D02*
D03*
X00675894D02*
D03*
X00650494D02*
D03*
X00625094D02*
D03*
X00823976Y00548386D02*
D03*
X00849376D02*
D03*
X00874776D02*
D03*
X00900176D02*
D03*
X00925576D02*
D03*
X00950976D02*
D03*
X00976376D02*
D03*
X0031623Y0052578D02*
D03*
Y0055118D02*
D03*
Y0057658D02*
D03*
Y0060198D02*
D03*
Y0062738D02*
D03*
Y0065278D02*
D03*
Y0067818D02*
D03*
Y0070358D02*
D03*
Y0072898D02*
D03*
Y0075438D02*
D03*
Y0077978D02*
D03*
Y0080518D02*
D03*
Y0083058D02*
D03*
Y0085598D02*
D03*
Y0088138D02*
D03*
Y0090678D02*
D03*
Y0093218D02*
D03*
X0008763Y0090678D02*
D03*
Y0088138D02*
D03*
Y0085598D02*
D03*
Y0083058D02*
D03*
Y0080518D02*
D03*
Y0077978D02*
D03*
Y0075438D02*
D03*
Y0072898D02*
D03*
Y0070358D02*
D03*
Y0067818D02*
D03*
Y0065278D02*
D03*
Y0062738D02*
D03*
Y0060198D02*
D03*
Y0057658D02*
D03*
Y0055118D02*
D03*
Y0052578D02*
D03*
Y0050038D02*
D03*
X0041656Y0079248D02*
D03*
X0044196D02*
D03*
X0046736D02*
D03*
X00438912Y00056388D02*
D03*
X00464312D02*
D03*
X00489712D02*
D03*
X00515112D02*
D03*
X003683Y009017D02*
D03*
X0143256Y00955294D02*
D03*
X00572516Y00792734D02*
D03*
X0100584Y00055372D02*
D03*
X0098044D02*
D03*
X0095504D02*
D03*
X0092964D02*
D03*
X0090424D02*
D03*
X0087884D02*
D03*
X0085344D02*
D03*
X0082804D02*
D03*
X0080264D02*
D03*
X0077724D02*
D03*
X0075184D02*
D03*
X0072644D02*
D03*
X0070104D02*
D03*
X0067564D02*
D03*
X0065024D02*
D03*
X0062484D02*
D03*
D78*
X01031494Y00207772D02*
D03*
X00798576Y00548386D02*
D03*
X0049276Y0079248D02*
D03*
X00540512Y00056388D02*
D03*
X0103124Y00055372D02*
D03*
D79*
X011938Y0071532D02*
D03*
X012138Y0065532D02*
D03*
X013358D02*
D03*
Y0077532D02*
D03*
X012138D02*
D03*
X011938Y0028544D02*
D03*
X012138Y0022544D02*
D03*
X013358D02*
D03*
Y0034544D02*
D03*
X012138D02*
D03*
X011938Y0050038D02*
D03*
X012138Y0044038D02*
D03*
X013358D02*
D03*
Y0056038D02*
D03*
X012138D02*
D03*
X010414Y0094996D02*
D03*
D80*
X0004064Y0098044D02*
D03*
Y0003556D02*
D03*
X0148844D02*
D03*
Y0098044D02*
D03*
D81*
X0019726Y0017174D02*
D03*
Y0016074D02*
D03*
D82*
X00515112Y00085979D02*
D03*
X00824738Y00923544D02*
D03*
X00957326Y00682244D02*
D03*
X01244092Y00169926D02*
D03*
X01324102D02*
D03*
X00275336Y00985266D02*
D03*
X01092454Y0014097D02*
D03*
X00592328Y00717296D02*
D03*
X00573024Y00696722D02*
D03*
Y0073787D02*
D03*
X0003683Y00400558D02*
D03*
X00366776Y00402082D02*
D03*
X00508Y0056896D02*
D03*
X01096518Y004064D02*
D03*
X00792734Y00782066D02*
D03*
Y00803402D02*
D03*
X004826Y005842D02*
D03*
X0047752Y0089408D02*
D03*
X0079248Y00427355D02*
D03*
X00545084Y00503174D02*
D03*
X0003683Y00538988D02*
D03*
X0025908Y00501904D02*
D03*
X00334518Y0014097D02*
D03*
X00481584Y00345186D02*
D03*
X00268986Y00267208D02*
D03*
X00158242Y00209296D02*
D03*
X000381Y002667D02*
D03*
X0013335D02*
D03*
X0026035Y0099695D02*
D03*
X0028575Y0097155D02*
D03*
X00635Y008763D02*
D03*
X006604D02*
D03*
X006858D02*
D03*
X007112D02*
D03*
Y009017D02*
D03*
X006858D02*
D03*
X006604D02*
D03*
X00635D02*
D03*
Y009271D02*
D03*
X006604D02*
D03*
X006858D02*
D03*
X007112D02*
D03*
X00386334Y00485394D02*
D03*
X0079756Y005842D02*
D03*
X0053848Y00424434D02*
D03*
M02*
