G04*
G04 #@! TF.GenerationSoftware,Altium Limited,Altium Designer,19.1.8 (144)*
G04*
G04 Layer_Color=255*
%FSTAX44Y44*%
%MOMM*%
G71*
G01*
G75*
%ADD33R,1.5000X1.5000*%
%ADD90R,1.6500X1.6500*%
%ADD91C,1.6500*%
%ADD92C,2.1750*%
%ADD93R,2.1750X2.1750*%
%ADD94C,1.5000*%
%ADD95R,1.5000X1.5000*%
%ADD96C,2.2500*%
%ADD97C,1.5240*%
D33*
X0031623Y0050038D02*
D03*
X0008763Y0093218D02*
D03*
X003683Y008763D02*
D03*
X0143256Y00929894D02*
D03*
X00572516Y00767334D02*
D03*
D90*
X013716Y0095504D02*
D03*
D91*
X013366D02*
D03*
D92*
X0121412D02*
D03*
X0117912D02*
D03*
D93*
X0114412D02*
D03*
D94*
X01006094Y00207772D02*
D03*
X00980694D02*
D03*
X00955294D02*
D03*
X00929894D02*
D03*
X00904494D02*
D03*
X00879094D02*
D03*
X00853694D02*
D03*
X00828294D02*
D03*
X00802894D02*
D03*
X00777494D02*
D03*
X00752094D02*
D03*
X00726694D02*
D03*
X00701294D02*
D03*
X00675894D02*
D03*
X00650494D02*
D03*
X00625094D02*
D03*
X00823976Y00548386D02*
D03*
X00849376D02*
D03*
X00874776D02*
D03*
X00900176D02*
D03*
X00925576D02*
D03*
X00950976D02*
D03*
X00976376D02*
D03*
X0031623Y0052578D02*
D03*
Y0055118D02*
D03*
Y0057658D02*
D03*
Y0060198D02*
D03*
Y0062738D02*
D03*
Y0065278D02*
D03*
Y0067818D02*
D03*
Y0070358D02*
D03*
Y0072898D02*
D03*
Y0075438D02*
D03*
Y0077978D02*
D03*
Y0080518D02*
D03*
Y0083058D02*
D03*
Y0085598D02*
D03*
Y0088138D02*
D03*
Y0090678D02*
D03*
Y0093218D02*
D03*
X0008763Y0090678D02*
D03*
Y0088138D02*
D03*
Y0085598D02*
D03*
Y0083058D02*
D03*
Y0080518D02*
D03*
Y0077978D02*
D03*
Y0075438D02*
D03*
Y0072898D02*
D03*
Y0070358D02*
D03*
Y0067818D02*
D03*
Y0065278D02*
D03*
Y0062738D02*
D03*
Y0060198D02*
D03*
Y0057658D02*
D03*
Y0055118D02*
D03*
Y0052578D02*
D03*
Y0050038D02*
D03*
X0041656Y0079248D02*
D03*
X0044196D02*
D03*
X0046736D02*
D03*
X00438912Y00056388D02*
D03*
X00464312D02*
D03*
X00489712D02*
D03*
X00515112D02*
D03*
X003683Y009017D02*
D03*
X0143256Y00955294D02*
D03*
X00572516Y00792734D02*
D03*
X0100584Y00055372D02*
D03*
X0098044D02*
D03*
X0095504D02*
D03*
X0092964D02*
D03*
X0090424D02*
D03*
X0087884D02*
D03*
X0085344D02*
D03*
X0082804D02*
D03*
X0080264D02*
D03*
X0077724D02*
D03*
X0075184D02*
D03*
X0072644D02*
D03*
X0070104D02*
D03*
X0067564D02*
D03*
X0065024D02*
D03*
X0062484D02*
D03*
D95*
X01031494Y00207772D02*
D03*
X00798576Y00548386D02*
D03*
X0049276Y0079248D02*
D03*
X00540512Y00056388D02*
D03*
X0103124Y00055372D02*
D03*
D96*
X011938Y0071532D02*
D03*
X012138Y0065532D02*
D03*
X013358D02*
D03*
Y0077532D02*
D03*
X012138D02*
D03*
X011938Y0028544D02*
D03*
X012138Y0022544D02*
D03*
X013358D02*
D03*
Y0034544D02*
D03*
X012138D02*
D03*
X011938Y0050038D02*
D03*
X012138Y0044038D02*
D03*
X013358D02*
D03*
Y0056038D02*
D03*
X012138D02*
D03*
D97*
X0004064Y0098044D02*
D03*
Y0003556D02*
D03*
X0148844D02*
D03*
Y0098044D02*
D03*
M02*
