G04*
G04 #@! TF.GenerationSoftware,Altium Limited,Altium Designer,19.1.8 (144)*
G04*
G04 Layer_Color=128*
%FSTAX44Y44*%
%MOMM*%
G71*
G01*
G75*
%ADD100C,0.0508*%
D100*
X013661Y0095504D02*
X013771D01*
X013716Y0094954D02*
Y0096054D01*
X013311Y0095504D02*
X013421D01*
X013366Y0094954D02*
Y0096054D01*
X0120687Y0095504D02*
X0122137D01*
X0121412Y0094779D02*
Y0096229D01*
X0117187Y0095504D02*
X0118637D01*
X0117912Y0094779D02*
Y0096229D01*
X0113687Y0095504D02*
X0115137D01*
X0114412Y0094779D02*
Y0096229D01*
X01001594Y00207772D02*
X01010594D01*
X01006094Y00203272D02*
Y00212272D01*
X00976194Y00207772D02*
X00985194D01*
X00980694Y00203272D02*
Y00212272D01*
X00950794Y00207772D02*
X00959794D01*
X00955294Y00203272D02*
Y00212272D01*
X00925394Y00207772D02*
X00934394D01*
X00929894Y00203272D02*
Y00212272D01*
X00899994Y00207772D02*
X00908994D01*
X00904494Y00203272D02*
Y00212272D01*
X00874594Y00207772D02*
X00883594D01*
X00879094Y00203272D02*
Y00212272D01*
X00849194Y00207772D02*
X00858194D01*
X00853694Y00203272D02*
Y00212272D01*
X00823794Y00207772D02*
X00832794D01*
X00828294Y00203272D02*
Y00212272D01*
X00798394Y00207772D02*
X00807394D01*
X00802894Y00203272D02*
Y00212272D01*
X00772994Y00207772D02*
X00781994D01*
X00777494Y00203272D02*
Y00212272D01*
X00747594Y00207772D02*
X00756594D01*
X00752094Y00203272D02*
Y00212272D01*
X00722194Y00207772D02*
X00731194D01*
X00726694Y00203272D02*
Y00212272D01*
X00696794Y00207772D02*
X00705794D01*
X00701294Y00203272D02*
Y00212272D01*
X00671394Y00207772D02*
X00680394D01*
X00675894Y00203272D02*
Y00212272D01*
X00645994Y00207772D02*
X00654994D01*
X00650494Y00203272D02*
Y00212272D01*
X00620594Y00207772D02*
X00629594D01*
X00625094Y00203272D02*
Y00212272D01*
X01026994Y00207772D02*
X01035994D01*
X01031494Y00203272D02*
Y00212272D01*
X00794076Y00548386D02*
X00803076D01*
X00798576Y00543886D02*
Y00552886D01*
X00819476Y00548386D02*
X00828476D01*
X00823976Y00543886D02*
Y00552886D01*
X00844876Y00548386D02*
X00853876D01*
X00849376Y00543886D02*
Y00552886D01*
X00870276Y00548386D02*
X00879276D01*
X00874776Y00543886D02*
Y00552886D01*
X00895676Y00548386D02*
X00904676D01*
X00900176Y00543886D02*
Y00552886D01*
X00921076Y00548386D02*
X00930076D01*
X00925576Y00543886D02*
Y00552886D01*
X00946476Y00548386D02*
X00955476D01*
X00950976Y00543886D02*
Y00552886D01*
X00971876Y00548386D02*
X00980876D01*
X00976376Y00543886D02*
Y00552886D01*
X011863Y0071532D02*
X012013D01*
X011938Y0070782D02*
Y0072282D01*
X012063Y0065532D02*
X012213D01*
X012138Y0064782D02*
Y0066282D01*
X013283Y0065532D02*
X013433D01*
X013358Y0064782D02*
Y0066282D01*
X013283Y0077532D02*
X013433D01*
X013358Y0076782D02*
Y0078282D01*
X012063Y0077532D02*
X012213D01*
X012138Y0076782D02*
Y0078282D01*
X0031173Y0050038D02*
X0032073D01*
X0031623Y0049588D02*
Y0050488D01*
X0031173Y0052578D02*
X0032073D01*
X0031623Y0052128D02*
Y0053028D01*
X0031173Y0055118D02*
X0032073D01*
X0031623Y0054668D02*
Y0055568D01*
X0031173Y0057658D02*
X0032073D01*
X0031623Y0057208D02*
Y0058108D01*
X0031173Y0060198D02*
X0032073D01*
X0031623Y0059748D02*
Y0060648D01*
X0031173Y0062738D02*
X0032073D01*
X0031623Y0062288D02*
Y0063188D01*
X0031173Y0065278D02*
X0032073D01*
X0031623Y0064828D02*
Y0065728D01*
X0031173Y0067818D02*
X0032073D01*
X0031623Y0067368D02*
Y0068268D01*
X0031173Y0070358D02*
X0032073D01*
X0031623Y0069908D02*
Y0070808D01*
X0031173Y0072898D02*
X0032073D01*
X0031623Y0072448D02*
Y0073348D01*
X0031173Y0075438D02*
X0032073D01*
X0031623Y0074988D02*
Y0075888D01*
X0031173Y0077978D02*
X0032073D01*
X0031623Y0077528D02*
Y0078428D01*
X0031173Y0080518D02*
X0032073D01*
X0031623Y0080068D02*
Y0080968D01*
X0031173Y0083058D02*
X0032073D01*
X0031623Y0082608D02*
Y0083508D01*
X0031173Y0085598D02*
X0032073D01*
X0031623Y0085148D02*
Y0086048D01*
X0031173Y0088138D02*
X0032073D01*
X0031623Y0087688D02*
Y0088588D01*
X0031173Y0090678D02*
X0032073D01*
X0031623Y0090228D02*
Y0091128D01*
X0031173Y0093218D02*
X0032073D01*
X0031623Y0092768D02*
Y0093668D01*
X0008313Y0093218D02*
X0009213D01*
X0008763Y0092768D02*
Y0093668D01*
X0008313Y0090678D02*
X0009213D01*
X0008763Y0090228D02*
Y0091128D01*
X0008313Y0088138D02*
X0009213D01*
X0008763Y0087688D02*
Y0088588D01*
X0008313Y0085598D02*
X0009213D01*
X0008763Y0085148D02*
Y0086048D01*
X0008313Y0083058D02*
X0009213D01*
X0008763Y0082608D02*
Y0083508D01*
X0008313Y0080518D02*
X0009213D01*
X0008763Y0080068D02*
Y0080968D01*
X0008313Y0077978D02*
X0009213D01*
X0008763Y0077528D02*
Y0078428D01*
X0008313Y0075438D02*
X0009213D01*
X0008763Y0074988D02*
Y0075888D01*
X0008313Y0072898D02*
X0009213D01*
X0008763Y0072448D02*
Y0073348D01*
X0008313Y0070358D02*
X0009213D01*
X0008763Y0069908D02*
Y0070808D01*
X0008313Y0067818D02*
X0009213D01*
X0008763Y0067368D02*
Y0068268D01*
X0008313Y0065278D02*
X0009213D01*
X0008763Y0064828D02*
Y0065728D01*
X0008313Y0062738D02*
X0009213D01*
X0008763Y0062288D02*
Y0063188D01*
X0008313Y0060198D02*
X0009213D01*
X0008763Y0059748D02*
Y0060648D01*
X0008313Y0057658D02*
X0009213D01*
X0008763Y0057208D02*
Y0058108D01*
X0008313Y0055118D02*
X0009213D01*
X0008763Y0054668D02*
Y0055568D01*
X0008313Y0052578D02*
X0009213D01*
X0008763Y0052128D02*
Y0053028D01*
X0008313Y0050038D02*
X0009213D01*
X0008763Y0049588D02*
Y0050488D01*
X0041206Y0079248D02*
X0042106D01*
X0041656Y0078798D02*
Y0079698D01*
X0043746Y0079248D02*
X0044646D01*
X0044196Y0078798D02*
Y0079698D01*
X0046286Y0079248D02*
X0047186D01*
X0046736Y0078798D02*
Y0079698D01*
X0048826Y0079248D02*
X0049726D01*
X0049276Y0078798D02*
Y0079698D01*
X00434412Y00056388D02*
X00443412D01*
X00438912Y00051888D02*
Y00060888D01*
X00459812Y00056388D02*
X00468812D01*
X00464312Y00051888D02*
Y00060888D01*
X00485212Y00056388D02*
X00494212D01*
X00489712Y00051888D02*
Y00060888D01*
X00510612Y00056388D02*
X00519612D01*
X00515112Y00051888D02*
Y00060888D01*
X00536012Y00056388D02*
X00545012D01*
X00540512Y00051888D02*
Y00060888D01*
X003638Y009017D02*
X003728D01*
X003683Y008972D02*
Y009062D01*
X003638Y008763D02*
X003728D01*
X003683Y008718D02*
Y008808D01*
X0142806Y00929894D02*
X0143706D01*
X0143256Y00925394D02*
Y00934394D01*
X0142806Y00955294D02*
X0143706D01*
X0143256Y00950794D02*
Y00959794D01*
X00568016Y00767334D02*
X00577016D01*
X00572516Y00762834D02*
Y00771834D01*
X00568016Y00792734D02*
X00577016D01*
X00572516Y00788234D02*
Y00797234D01*
X0100134Y00055372D02*
X0101034D01*
X0100584Y00050872D02*
Y00059872D01*
X0097594Y00055372D02*
X0098494D01*
X0098044Y00050872D02*
Y00059872D01*
X0095054Y00055372D02*
X0095954D01*
X0095504Y00050872D02*
Y00059872D01*
X0092514Y00055372D02*
X0093414D01*
X0092964Y00050872D02*
Y00059872D01*
X0089974Y00055372D02*
X0090874D01*
X0090424Y00050872D02*
Y00059872D01*
X0087434Y00055372D02*
X0088334D01*
X0087884Y00050872D02*
Y00059872D01*
X0084894Y00055372D02*
X0085794D01*
X0085344Y00050872D02*
Y00059872D01*
X0082354Y00055372D02*
X0083254D01*
X0082804Y00050872D02*
Y00059872D01*
X0079814Y00055372D02*
X0080714D01*
X0080264Y00050872D02*
Y00059872D01*
X0077274Y00055372D02*
X0078174D01*
X0077724Y00050872D02*
Y00059872D01*
X0074734Y00055372D02*
X0075634D01*
X0075184Y00050872D02*
Y00059872D01*
X0072194Y00055372D02*
X0073094D01*
X0072644Y00050872D02*
Y00059872D01*
X0069654Y00055372D02*
X0070554D01*
X0070104Y00050872D02*
Y00059872D01*
X0067114Y00055372D02*
X0068014D01*
X0067564Y00050872D02*
Y00059872D01*
X0064574Y00055372D02*
X0065474D01*
X0065024Y00050872D02*
Y00059872D01*
X0062034Y00055372D02*
X0062934D01*
X0062484Y00050872D02*
Y00059872D01*
X0102674Y00055372D02*
X0103574D01*
X0103124Y00050872D02*
Y00059872D01*
X011863Y0028544D02*
X012013D01*
X011938Y0027794D02*
Y0029294D01*
X012063Y0022544D02*
X012213D01*
X012138Y0021794D02*
Y0023294D01*
X013283Y0022544D02*
X013433D01*
X013358Y0021794D02*
Y0023294D01*
X013283Y0034544D02*
X013433D01*
X013358Y0033794D02*
Y0035294D01*
X012063Y0034544D02*
X012213D01*
X012138Y0033794D02*
Y0035294D01*
X011863Y0050038D02*
X012013D01*
X011938Y0049288D02*
Y0050788D01*
X012063Y0044038D02*
X012213D01*
X012138Y0043288D02*
Y0044788D01*
X013283Y0044038D02*
X013433D01*
X013358Y0043288D02*
Y0044788D01*
X013283Y0056038D02*
X013433D01*
X013358Y0055288D02*
Y0056788D01*
X012063Y0056038D02*
X012213D01*
X012138Y0055288D02*
Y0056788D01*
X0001914Y0098044D02*
X0006214D01*
X0004064Y0095894D02*
Y0100194D01*
X0001914Y0003556D02*
X0006214D01*
X0004064Y0001406D02*
Y0005706D01*
X0146694Y0003556D02*
X0150994D01*
X0148844Y0001406D02*
Y0005706D01*
X0146694Y0098044D02*
X0150994D01*
X0148844Y0095894D02*
Y0100194D01*
X0019626Y0017174D02*
X0019826D01*
X0019726Y0017074D02*
Y0017274D01*
X0019626Y0016074D02*
X0019826D01*
X0019726Y0015974D02*
Y0016174D01*
X00511556Y00085979D02*
X00518668D01*
X00515112Y00082423D02*
Y00089535D01*
X00821182Y00923544D02*
X00828294D01*
X00824738Y00919988D02*
Y009271D01*
X0095377Y00682244D02*
X00960882D01*
X00957326Y00678688D02*
Y006858D01*
X01240536Y00169926D02*
X01247648D01*
X01244092Y0016637D02*
Y00173482D01*
X01320546Y00169926D02*
X01327658D01*
X01324102Y0016637D02*
Y00173482D01*
X0027178Y00985266D02*
X00278892D01*
X00275336Y0098171D02*
Y00988822D01*
X01088898Y0014097D02*
X0109601D01*
X01092454Y00137414D02*
Y00144526D01*
X00588772Y00717296D02*
X00595884D01*
X00592328Y0071374D02*
Y00720852D01*
X00569468Y00696722D02*
X0057658D01*
X00573024Y00693166D02*
Y00700278D01*
X00569468Y0073787D02*
X0057658D01*
X00573024Y00734314D02*
Y00741426D01*
X00033274Y00400558D02*
X00040386D01*
X0003683Y00397002D02*
Y00404114D01*
X0036322Y00402082D02*
X00370332D01*
X00366776Y00398526D02*
Y00405638D01*
X00504444Y0056896D02*
X00511556D01*
X00508Y00565404D02*
Y00572516D01*
X01092962Y004064D02*
X01100074D01*
X01096518Y00402844D02*
Y00409956D01*
X00789178Y00782066D02*
X0079629D01*
X00792734Y0077851D02*
Y00785622D01*
X00789178Y00803402D02*
X0079629D01*
X00792734Y00799846D02*
Y00806958D01*
X00479044Y005842D02*
X00486156D01*
X004826Y00580644D02*
Y00587756D01*
X00473964Y0089408D02*
X00481076D01*
X0047752Y00890524D02*
Y00897636D01*
X00788924Y00427355D02*
X00796036D01*
X0079248Y00423799D02*
Y00430911D01*
X01037844Y0094996D02*
X01044956D01*
X010414Y00946404D02*
Y00953516D01*
X00541528Y00503174D02*
X0054864D01*
X00545084Y00499618D02*
Y0050673D01*
X00033274Y00538988D02*
X00040386D01*
X0003683Y00535432D02*
Y00542544D01*
X00255524Y00501904D02*
X00262636D01*
X0025908Y00498348D02*
Y0050546D01*
X00330962Y0014097D02*
X00338074D01*
X00334518Y00137414D02*
Y00144526D01*
X00478028Y00345186D02*
X0048514D01*
X00481584Y0034163D02*
Y00348742D01*
X0026543Y00267208D02*
X00272542D01*
X00268986Y00263652D02*
Y00270764D01*
X00154686Y00209296D02*
X00161798D01*
X00158242Y0020574D02*
Y00212852D01*
X00034544Y002667D02*
X00041656D01*
X000381Y00263144D02*
Y00270256D01*
X00129794Y002667D02*
X00136906D01*
X0013335Y00263144D02*
Y00270256D01*
X00256794Y0099695D02*
X00263906D01*
X0026035Y00993394D02*
Y01000506D01*
X00282194Y0097155D02*
X00289306D01*
X0028575Y00967994D02*
Y00975106D01*
X00631444Y008763D02*
X00638556D01*
X00635Y00872744D02*
Y00879856D01*
X00656844Y008763D02*
X00663956D01*
X006604Y00872744D02*
Y00879856D01*
X00682244Y008763D02*
X00689356D01*
X006858Y00872744D02*
Y00879856D01*
X00707644Y008763D02*
X00714756D01*
X007112Y00872744D02*
Y00879856D01*
X00707644Y009017D02*
X00714756D01*
X007112Y00898144D02*
Y00905256D01*
X00682244Y009017D02*
X00689356D01*
X006858Y00898144D02*
Y00905256D01*
X00656844Y009017D02*
X00663956D01*
X006604Y00898144D02*
Y00905256D01*
X00631444Y009017D02*
X00638556D01*
X00635Y00898144D02*
Y00905256D01*
X00631444Y009271D02*
X00638556D01*
X00635Y00923544D02*
Y00930656D01*
X00656844Y009271D02*
X00663956D01*
X006604Y00923544D02*
Y00930656D01*
X00682244Y009271D02*
X00689356D01*
X006858Y00923544D02*
Y00930656D01*
X00707644Y009271D02*
X00714756D01*
X007112Y00923544D02*
Y00930656D01*
X00382778Y00485394D02*
X0038989D01*
X00386334Y00481838D02*
Y0048895D01*
X00794004Y005842D02*
X00801116D01*
X0079756Y00580644D02*
Y00587756D01*
X00534924Y00424434D02*
X00542036D01*
X0053848Y00420878D02*
Y0042799D01*
M02*
