G04*
G04 #@! TF.GenerationSoftware,Altium Limited,Altium Designer,19.1.8 (144)*
G04*
G04 Layer_Color=16711935*
%FSTAX44Y44*%
%MOMM*%
G71*
G01*
G75*
%ADD59R,1.7032X1.7032*%
%ADD73R,1.8532X1.8532*%
%ADD74C,1.8532*%
%ADD75C,2.3782*%
%ADD76R,2.3782X2.3782*%
%ADD77C,1.7032*%
%ADD78R,1.7032X1.7032*%
%ADD79C,2.4532*%
%ADD80C,1.7272*%
%ADD81C,0.5000*%
%ADD82C,1.4732*%
D59*
X0031623Y0050038D02*
D03*
X0008763Y0093218D02*
D03*
X003683Y008763D02*
D03*
X0143256Y00929894D02*
D03*
X00572516Y00767334D02*
D03*
D73*
X013716Y0095504D02*
D03*
D74*
X013366D02*
D03*
D75*
X0121412D02*
D03*
X0117912D02*
D03*
D76*
X0114412D02*
D03*
D77*
X01006094Y00207772D02*
D03*
X00980694D02*
D03*
X00955294D02*
D03*
X00929894D02*
D03*
X00904494D02*
D03*
X00879094D02*
D03*
X00853694D02*
D03*
X00828294D02*
D03*
X00802894D02*
D03*
X00777494D02*
D03*
X00752094D02*
D03*
X00726694D02*
D03*
X00701294D02*
D03*
X00675894D02*
D03*
X00650494D02*
D03*
X00625094D02*
D03*
X00823976Y00548386D02*
D03*
X00849376D02*
D03*
X00874776D02*
D03*
X00900176D02*
D03*
X00925576D02*
D03*
X00950976D02*
D03*
X00976376D02*
D03*
X0031623Y0052578D02*
D03*
Y0055118D02*
D03*
Y0057658D02*
D03*
Y0060198D02*
D03*
Y0062738D02*
D03*
Y0065278D02*
D03*
Y0067818D02*
D03*
Y0070358D02*
D03*
Y0072898D02*
D03*
Y0075438D02*
D03*
Y0077978D02*
D03*
Y0080518D02*
D03*
Y0083058D02*
D03*
Y0085598D02*
D03*
Y0088138D02*
D03*
Y0090678D02*
D03*
Y0093218D02*
D03*
X0008763Y0090678D02*
D03*
Y0088138D02*
D03*
Y0085598D02*
D03*
Y0083058D02*
D03*
Y0080518D02*
D03*
Y0077978D02*
D03*
Y0075438D02*
D03*
Y0072898D02*
D03*
Y0070358D02*
D03*
Y0067818D02*
D03*
Y0065278D02*
D03*
Y0062738D02*
D03*
Y0060198D02*
D03*
Y0057658D02*
D03*
Y0055118D02*
D03*
Y0052578D02*
D03*
Y0050038D02*
D03*
X0041656Y0079248D02*
D03*
X0044196D02*
D03*
X0046736D02*
D03*
X00438912Y00056388D02*
D03*
X00464312D02*
D03*
X00489712D02*
D03*
X00515112D02*
D03*
X003683Y009017D02*
D03*
X0143256Y00955294D02*
D03*
X00572516Y00792734D02*
D03*
X0100584Y00055372D02*
D03*
X0098044D02*
D03*
X0095504D02*
D03*
X0092964D02*
D03*
X0090424D02*
D03*
X0087884D02*
D03*
X0085344D02*
D03*
X0082804D02*
D03*
X0080264D02*
D03*
X0077724D02*
D03*
X0075184D02*
D03*
X0072644D02*
D03*
X0070104D02*
D03*
X0067564D02*
D03*
X0065024D02*
D03*
X0062484D02*
D03*
D78*
X01031494Y00207772D02*
D03*
X00798576Y00548386D02*
D03*
X0049276Y0079248D02*
D03*
X00540512Y00056388D02*
D03*
X0103124Y00055372D02*
D03*
D79*
X011938Y0071532D02*
D03*
X012138Y0065532D02*
D03*
X013358D02*
D03*
Y0077532D02*
D03*
X012138D02*
D03*
X011938Y0028544D02*
D03*
X012138Y0022544D02*
D03*
X013358D02*
D03*
Y0034544D02*
D03*
X012138D02*
D03*
X011938Y0050038D02*
D03*
X012138Y0044038D02*
D03*
X013358D02*
D03*
Y0056038D02*
D03*
X012138D02*
D03*
X010414Y0094996D02*
D03*
D80*
X0004064Y0098044D02*
D03*
Y0003556D02*
D03*
X0148844D02*
D03*
Y0098044D02*
D03*
D81*
X0019726Y0017174D02*
D03*
Y0016074D02*
D03*
D82*
X00515112Y00085979D02*
D03*
X00824738Y00923544D02*
D03*
X00957326Y00682244D02*
D03*
X01244092Y00169926D02*
D03*
X01324102D02*
D03*
X00275336Y00985266D02*
D03*
X01092454Y0014097D02*
D03*
X00592328Y00717296D02*
D03*
X00573024Y00696722D02*
D03*
Y0073787D02*
D03*
X0003683Y00400558D02*
D03*
X00366776Y00402082D02*
D03*
X00508Y0056896D02*
D03*
X01096518Y004064D02*
D03*
X00792734Y00782066D02*
D03*
Y00803402D02*
D03*
X004826Y005842D02*
D03*
X0047752Y0089408D02*
D03*
X0079248Y00427355D02*
D03*
X00545084Y00503174D02*
D03*
X0003683Y00538988D02*
D03*
X0025908Y00501904D02*
D03*
X00334518Y0014097D02*
D03*
X00481584Y00345186D02*
D03*
X00268986Y00267208D02*
D03*
X00158242Y00209296D02*
D03*
X000381Y002667D02*
D03*
X0013335D02*
D03*
X0026035Y0099695D02*
D03*
X0028575Y0097155D02*
D03*
X00635Y008763D02*
D03*
X006604D02*
D03*
X006858D02*
D03*
X007112D02*
D03*
Y009017D02*
D03*
X006858D02*
D03*
X006604D02*
D03*
X00635D02*
D03*
Y009271D02*
D03*
X006604D02*
D03*
X006858D02*
D03*
X007112D02*
D03*
X00386334Y00485394D02*
D03*
X0079756Y005842D02*
D03*
X0053848Y00424434D02*
D03*
M02*
