M48
;Layer_Color=9474304
;FILE_FORMAT=4:4
METRIC,LZ
;TYPE=PLATED
T1F00S00C0.2000
T2F00S00C0.7112
T3F00S00C0.9000
T4F00S00C1.1000
T5F00S00C1.4500
T6F00S00C1.5000
T7F00S00C4.3000
%
T01
X0019726Y0016074
Y0017174
T02
X00334518Y0014097
X00515112Y00085979
X01092454Y0014097
X01244092Y00169926
X01324102
X01096518Y004064
X0079248Y00427355
X00545084Y00503174
X0053848Y00424434
X00481584Y00345186
X00366776Y00402082
X00386334Y00485394
X0025908Y00501904
X00268986Y00267208
X00158242Y00209296
X0013335Y002667
X000381
X0003683Y00400558
Y00538988
X004826Y005842
X00508Y0056896
X0047752Y0089408
X00635Y009017
Y008763
X006604
X006858
X007112
Y009017
X006858
X006604
Y009271
X00635
X006858
X007112
X00824738Y00923544
X00792734Y00803402
Y00782066
X0079756Y005842
X00573024Y00696722
X00592328Y00717296
X00573024Y0073787
X00957326Y00682244
X010414Y0094996
X0028575Y0097155
X00275336Y00985266
X0026035Y0099695
T03
X00438912Y00056388
X00464312
X00489712
X00515112
X00540512
X0062484Y00055372
X0065024
X0067564
X0070104
X0072644
X0075184
X0077724
X0080264
X0082804
X0085344
X0087884
X0090424
X0092964
X0095504
X0098044
X0100584
X0103124
X01031494Y00207772
X01006094
X00980694
X00955294
X00929894
X00904494
X00879094
X00853694
X00828294
X00802894
X00777494
X00752094
X00726694
X00701294
X00675894
X00650494
X00625094
X0031623Y0050038
Y0052578
X0008763
Y0050038
Y0055118
Y0057658
Y0060198
Y0062738
Y0065278
Y0067818
Y0070358
Y0072898
Y0075438
Y0077978
Y0080518
Y0083058
Y0085598
Y0088138
Y0090678
Y0093218
X0031623
Y0090678
Y0088138
Y0085598
Y0083058
Y0080518
Y0077978
Y0075438
Y0072898
Y0070358
Y0067818
Y0065278
Y0062738
Y0060198
Y0057658
Y0055118
X0041656Y0079248
X0044196
X0046736
X0049276
X003683Y008763
Y009017
X00572516Y00792734
Y00767334
X00798576Y00548386
X00823976
X00849376
X00874776
X00900176
X00925576
X00950976
X00976376
X0143256Y00929894
Y00955294
T04
X013366Y0095504
X013716
T05
X0114412Y0095504
X0117912
X0121412
T06
X013358Y0022544
Y0034544
Y0044038
X012138
X011938Y0050038
X012138Y0034544
X011938Y0028544
X012138Y0022544
Y0056038
Y0065532
X011938Y0071532
X012138Y0077532
X013358
Y0065532
Y0056038
T07
X0004064Y0003556
X0148844
Y0098044
X0004064
M30
