G04*
G04 #@! TF.GenerationSoftware,Altium Limited,Altium Designer,19.1.8 (144)*
G04*
G04 Layer_Physical_Order=1*
G04 Layer_Color=255*
%FSTAX44Y44*%
%MOMM*%
G71*
G01*
G75*
%ADD11C,0.5000*%
G04:AMPARAMS|DCode=20|XSize=0.45mm|YSize=0.3mm|CornerRadius=0.0495mm|HoleSize=0mm|Usage=FLASHONLY|Rotation=0.000|XOffset=0mm|YOffset=0mm|HoleType=Round|Shape=RoundedRectangle|*
%AMROUNDEDRECTD20*
21,1,0.4500,0.2010,0,0,0.0*
21,1,0.3510,0.3000,0,0,0.0*
1,1,0.0990,0.1755,-0.1005*
1,1,0.0990,-0.1755,-0.1005*
1,1,0.0990,-0.1755,0.1005*
1,1,0.0990,0.1755,0.1005*
%
%ADD20ROUNDEDRECTD20*%
%ADD21R,1.5000X1.4000*%
%ADD22R,1.5000X1.0000*%
%ADD23R,1.2000X2.7000*%
%ADD24R,4.0000X2.1500*%
%ADD25R,1.1000X1.3500*%
%ADD26R,1.9250X0.9500*%
%ADD27R,1.3500X0.9500*%
%ADD28R,1.0200X1.4700*%
%ADD29R,3.3000X2.4100*%
%ADD30R,0.6500X1.5250*%
%ADD31R,0.8000X0.9000*%
%ADD32R,1.4500X1.2000*%
%ADD33R,1.5000X1.5000*%
%ADD34R,2.1000X1.4000*%
%ADD35R,1.2000X1.4500*%
%ADD36R,0.9500X1.3500*%
%ADD37R,1.3500X1.0000*%
%ADD38R,1.0000X1.3500*%
%ADD39R,1.4000X0.9500*%
%ADD40R,0.9500X1.4000*%
%ADD41R,2.8000X5.3000*%
%ADD42R,1.7000X2.5000*%
%ADD43R,2.5000X1.7000*%
%ADD44R,2.5000X4.0000*%
%ADD45R,1.4500X1.1500*%
%ADD46R,1.3500X1.1000*%
G04:AMPARAMS|DCode=47|XSize=1mm|YSize=1.6mm|CornerRadius=0.05mm|HoleSize=0mm|Usage=FLASHONLY|Rotation=0.000|XOffset=0mm|YOffset=0mm|HoleType=Round|Shape=RoundedRectangle|*
%AMROUNDEDRECTD47*
21,1,1.0000,1.5000,0,0,0.0*
21,1,0.9000,1.6000,0,0,0.0*
1,1,0.1000,0.4500,-0.7500*
1,1,0.1000,-0.4500,-0.7500*
1,1,0.1000,-0.4500,0.7500*
1,1,0.1000,0.4500,0.7500*
%
%ADD47ROUNDEDRECTD47*%
%ADD81C,0.5000*%
%ADD83C,0.3810*%
%ADD84C,1.0000*%
%ADD85C,0.3000*%
%ADD86C,1.5000*%
%ADD87C,0.7000*%
%ADD88C,0.8000*%
%ADD89C,2.4000*%
%ADD90R,1.6500X1.6500*%
%ADD91C,1.6500*%
%ADD92C,2.1750*%
%ADD93R,2.1750X2.1750*%
%ADD94C,1.5000*%
%ADD95R,1.5000X1.5000*%
%ADD96C,2.2500*%
%ADD97C,1.5240*%
%ADD98C,1.2700*%
G36*
X0111252Y00917956D02*
X0097028D01*
Y0095504D01*
X0081788D01*
Y00958342D01*
X00590042D01*
Y0088355D01*
X00590042Y0088355D01*
Y00783082D01*
X005334D01*
Y008128D01*
X00381D01*
Y0083185D01*
X0037465Y008382D01*
X00322792D01*
X00321293Y0083935D01*
X00318851Y00840362D01*
X0031623Y00840707D01*
X00313609Y00840362D01*
X00311167Y0083935D01*
X00309668Y008382D01*
X00094192D01*
X00092693Y0083935D01*
X00090251Y00840362D01*
X0008763Y00840707D01*
X00085009Y00840362D01*
X00082567Y0083935D01*
X00081068Y008382D01*
X000635D01*
Y002159D01*
X000127D01*
Y0086995D01*
Y00876046D01*
X000127Y00884682D01*
X00076887D01*
X00077771Y00883412D01*
X00077503Y0088138D01*
X00077848Y00878759D01*
X0007886Y00876317D01*
X00080469Y00874219D01*
X00082567Y0087261D01*
X00085009Y00871598D01*
X0008763Y00871253D01*
X00090251Y00871598D01*
X00092693Y0087261D01*
X00094791Y00874219D01*
X000964Y00876317D01*
X00097412Y00878759D01*
X00097757Y0088138D01*
X00097489Y00883412D01*
X00098373Y00884682D01*
X00305487D01*
X00306371Y00883412D01*
X00306103Y0088138D01*
X00306448Y00878759D01*
X0030746Y00876317D01*
X00309069Y00874219D01*
X00311167Y0087261D01*
X00313609Y00871598D01*
X0031623Y00871253D01*
X00318851Y00871598D01*
X00321293Y0087261D01*
X00323391Y00874219D01*
X00325Y00876317D01*
X00326012Y00878759D01*
X00326357Y0088138D01*
X00326264Y00882085D01*
X00328861Y00884682D01*
X0054356D01*
Y0100584D01*
X0111252D01*
Y00917956D01*
D02*
G37*
G36*
X00727964Y00889508D02*
X0073152Y00889D01*
X00735262Y00886583D01*
Y00886007D01*
X00736154D01*
X00743712Y00881126D01*
Y0085725D01*
X00736854D01*
X00728726Y00849122D01*
X00709676D01*
Y00808228D01*
X00671068D01*
X0067056Y00808438D01*
Y00849122D01*
X00608838Y00849122D01*
Y00948944D01*
X00727964D01*
Y00889508D01*
D02*
G37*
G36*
X00642874Y00747776D02*
X00672592Y00718058D01*
Y0065913D01*
X0054483D01*
X00533904Y0065913D01*
X00533532Y00777103D01*
X00534428Y00778002D01*
X0060325Y00778002D01*
X0060325Y0080899D01*
X00642874D01*
Y00747776D01*
D02*
G37*
%LPC*%
G36*
X0031623Y00866107D02*
X00313609Y00865762D01*
X00311167Y0086475D01*
X00309069Y00863141D01*
X0030746Y00861043D01*
X00306448Y00858601D01*
X00306103Y0085598D01*
X00306448Y00853359D01*
X0030746Y00850917D01*
X00309069Y00848819D01*
X00311167Y0084721D01*
X00313609Y00846198D01*
X0031623Y00845853D01*
X00318851Y00846198D01*
X00321293Y0084721D01*
X00323391Y00848819D01*
X00325Y00850917D01*
X00326012Y00853359D01*
X00326357Y0085598D01*
X00326012Y00858601D01*
X00325Y00861043D01*
X00323391Y00863141D01*
X00321293Y0086475D01*
X00318851Y00865762D01*
X0031623Y00866107D01*
D02*
G37*
G36*
X0008763D02*
X00085009Y00865762D01*
X00082567Y0086475D01*
X00080469Y00863141D01*
X0007886Y00861043D01*
X00077848Y00858601D01*
X00077503Y0085598D01*
X00077848Y00853359D01*
X0007886Y00850917D01*
X00080469Y00848819D01*
X00082567Y0084721D01*
X00085009Y00846198D01*
X0008763Y00845853D01*
X00090251Y00846198D01*
X00092693Y0084721D01*
X00094791Y00848819D01*
X000964Y00850917D01*
X00097412Y00853359D01*
X00097757Y0085598D01*
X00097412Y00858601D01*
X000964Y00861043D01*
X00094791Y00863141D01*
X00092693Y0086475D01*
X00090251Y00865762D01*
X0008763Y00866107D01*
D02*
G37*
G36*
X0071247Y009359D02*
Y0092837D01*
X00719999D01*
X00719861Y00929421D01*
X00718965Y00931583D01*
X0071754Y0093344D01*
X00715683Y00934865D01*
X00713521Y00935761D01*
X0071247Y009359D01*
D02*
G37*
G36*
X0070993D02*
X00708879Y00935761D01*
X00706717Y00934865D01*
X0070486Y0093344D01*
X00703435Y00931583D01*
X00702539Y00929421D01*
X00702401Y0092837D01*
X0070993D01*
Y009359D01*
D02*
G37*
G36*
X0068707D02*
Y0092837D01*
X006946D01*
X00694461Y00929421D01*
X00693565Y00931583D01*
X0069214Y0093344D01*
X00690283Y00934865D01*
X00688121Y00935761D01*
X0068707Y009359D01*
D02*
G37*
G36*
X0068453D02*
X00683479Y00935761D01*
X00681317Y00934865D01*
X0067946Y0093344D01*
X00678035Y00931583D01*
X00677139Y00929421D01*
X00677001Y0092837D01*
X0068453D01*
Y009359D01*
D02*
G37*
G36*
X0066167D02*
Y0092837D01*
X006692D01*
X00669061Y00929421D01*
X00668165Y00931583D01*
X0066674Y0093344D01*
X00664883Y00934865D01*
X00662721Y00935761D01*
X0066167Y009359D01*
D02*
G37*
G36*
X0065913D02*
X00658079Y00935761D01*
X00655917Y00934865D01*
X0065406Y0093344D01*
X00652635Y00931583D01*
X00651739Y00929421D01*
X006516Y0092837D01*
X0065913D01*
Y009359D01*
D02*
G37*
G36*
X0063627D02*
Y0092837D01*
X006438D01*
X00643661Y00929421D01*
X00642765Y00931583D01*
X0064134Y0093344D01*
X00639483Y00934865D01*
X00637321Y00935761D01*
X0063627Y009359D01*
D02*
G37*
G36*
X0063373D02*
X00632679Y00935761D01*
X00630517Y00934865D01*
X0062866Y0093344D01*
X00627235Y00931583D01*
X00626339Y00929421D01*
X006262Y0092837D01*
X0063373D01*
Y009359D01*
D02*
G37*
G36*
X00719999Y0092583D02*
X0071247D01*
Y009183D01*
X00713521Y00918439D01*
X00715683Y00919335D01*
X0071754Y0092076D01*
X00718965Y00922617D01*
X00719861Y00924779D01*
X00719999Y0092583D01*
D02*
G37*
G36*
X0070993D02*
X00702401D01*
X00702539Y00924779D01*
X00703435Y00922617D01*
X0070486Y0092076D01*
X00706717Y00919335D01*
X00708879Y00918439D01*
X0070993Y009183D01*
Y0092583D01*
D02*
G37*
G36*
X006946D02*
X0068707D01*
Y009183D01*
X00688121Y00918439D01*
X00690283Y00919335D01*
X0069214Y0092076D01*
X00693565Y00922617D01*
X00694461Y00924779D01*
X006946Y0092583D01*
D02*
G37*
G36*
X0068453D02*
X00677001D01*
X00677139Y00924779D01*
X00678035Y00922617D01*
X0067946Y0092076D01*
X00681317Y00919335D01*
X00683479Y00918439D01*
X0068453Y009183D01*
Y0092583D01*
D02*
G37*
G36*
X006692D02*
X0066167D01*
Y009183D01*
X00662721Y00918439D01*
X00664883Y00919335D01*
X0066674Y0092076D01*
X00668165Y00922617D01*
X00669061Y00924779D01*
X006692Y0092583D01*
D02*
G37*
G36*
X0065913D02*
X006516D01*
X00651739Y00924779D01*
X00652635Y00922617D01*
X0065406Y0092076D01*
X00655917Y00919335D01*
X00658079Y00918439D01*
X0065913Y009183D01*
Y0092583D01*
D02*
G37*
G36*
X006438D02*
X0063627D01*
Y009183D01*
X00637321Y00918439D01*
X00639483Y00919335D01*
X0064134Y0092076D01*
X00642765Y00922617D01*
X00643661Y00924779D01*
X006438Y0092583D01*
D02*
G37*
G36*
X0063373D02*
X006262D01*
X00626339Y00924779D01*
X00627235Y00922617D01*
X0062866Y0092076D01*
X00630517Y00919335D01*
X00632679Y00918439D01*
X0063373Y009183D01*
Y0092583D01*
D02*
G37*
G36*
X0071247Y00910499D02*
Y0090297D01*
X00719999D01*
X00719861Y00904021D01*
X00718965Y00906183D01*
X0071754Y0090804D01*
X00715683Y00909465D01*
X00713521Y00910361D01*
X0071247Y00910499D01*
D02*
G37*
G36*
X0070993D02*
X00708879Y00910361D01*
X00706717Y00909465D01*
X0070486Y0090804D01*
X00703435Y00906183D01*
X00702539Y00904021D01*
X00702401Y0090297D01*
X0070993D01*
Y00910499D01*
D02*
G37*
G36*
X0068707D02*
Y0090297D01*
X006946D01*
X00694461Y00904021D01*
X00693565Y00906183D01*
X0069214Y0090804D01*
X00690283Y00909465D01*
X00688121Y00910361D01*
X0068707Y00910499D01*
D02*
G37*
G36*
X0068453D02*
X00683479Y00910361D01*
X00681317Y00909465D01*
X0067946Y0090804D01*
X00678035Y00906183D01*
X00677139Y00904021D01*
X00677001Y0090297D01*
X0068453D01*
Y00910499D01*
D02*
G37*
G36*
X0066167D02*
Y0090297D01*
X006692D01*
X00669061Y00904021D01*
X00668165Y00906183D01*
X0066674Y0090804D01*
X00664883Y00909465D01*
X00662721Y00910361D01*
X0066167Y00910499D01*
D02*
G37*
G36*
X0065913D02*
X00658079Y00910361D01*
X00655917Y00909465D01*
X0065406Y0090804D01*
X00652635Y00906183D01*
X00651739Y00904021D01*
X006516Y0090297D01*
X0065913D01*
Y00910499D01*
D02*
G37*
G36*
X0063627D02*
Y0090297D01*
X006438D01*
X00643661Y00904021D01*
X00642765Y00906183D01*
X0064134Y0090804D01*
X00639483Y00909465D01*
X00637321Y00910361D01*
X0063627Y00910499D01*
D02*
G37*
G36*
X0063373D02*
X00632679Y00910361D01*
X00630517Y00909465D01*
X0062866Y0090804D01*
X00627235Y00906183D01*
X00626339Y00904021D01*
X006262Y0090297D01*
X0063373D01*
Y00910499D01*
D02*
G37*
G36*
X00719999Y0090043D02*
X0071247D01*
Y008929D01*
X00713521Y00893039D01*
X00715683Y00893935D01*
X0071754Y0089536D01*
X00718965Y00897217D01*
X00719861Y00899379D01*
X00719999Y0090043D01*
D02*
G37*
G36*
X0070993D02*
X00702401D01*
X00702539Y00899379D01*
X00703435Y00897217D01*
X0070486Y0089536D01*
X00706717Y00893935D01*
X00708879Y00893039D01*
X0070993Y008929D01*
Y0090043D01*
D02*
G37*
G36*
X006946D02*
X0068707D01*
Y008929D01*
X00688121Y00893039D01*
X00690283Y00893935D01*
X0069214Y0089536D01*
X00693565Y00897217D01*
X00694461Y00899379D01*
X006946Y0090043D01*
D02*
G37*
G36*
X0068453D02*
X00677001D01*
X00677139Y00899379D01*
X00678035Y00897217D01*
X0067946Y0089536D01*
X00681317Y00893935D01*
X00683479Y00893039D01*
X0068453Y008929D01*
Y0090043D01*
D02*
G37*
G36*
X006692D02*
X0066167D01*
Y008929D01*
X00662721Y00893039D01*
X00664883Y00893935D01*
X0066674Y0089536D01*
X00668165Y00897217D01*
X00669061Y00899379D01*
X006692Y0090043D01*
D02*
G37*
G36*
X0065913D02*
X006516D01*
X00651739Y00899379D01*
X00652635Y00897217D01*
X0065406Y0089536D01*
X00655917Y00893935D01*
X00658079Y00893039D01*
X0065913Y008929D01*
Y0090043D01*
D02*
G37*
G36*
X006438D02*
X0063627D01*
Y008929D01*
X00637321Y00893039D01*
X00639483Y00893935D01*
X0064134Y0089536D01*
X00642765Y00897217D01*
X00643661Y00899379D01*
X006438Y0090043D01*
D02*
G37*
G36*
X0063373D02*
X006262D01*
X00626339Y00899379D01*
X00627235Y00897217D01*
X0062866Y0089536D01*
X00630517Y00893935D01*
X00632679Y00893039D01*
X0063373Y008929D01*
Y0090043D01*
D02*
G37*
G36*
X0071247Y00885099D02*
Y0087757D01*
X00719999D01*
X00719861Y00878621D01*
X00718965Y00880783D01*
X0071754Y0088264D01*
X00715683Y00884065D01*
X00713521Y00884961D01*
X0071247Y00885099D01*
D02*
G37*
G36*
X0070993D02*
X00708879Y00884961D01*
X00706717Y00884065D01*
X0070486Y0088264D01*
X00703435Y00880783D01*
X00702539Y00878621D01*
X00702401Y0087757D01*
X0070993D01*
Y00885099D01*
D02*
G37*
G36*
X0068707D02*
Y0087757D01*
X006946D01*
X00694461Y00878621D01*
X00693565Y00880783D01*
X0069214Y0088264D01*
X00690283Y00884065D01*
X00688121Y00884961D01*
X0068707Y00885099D01*
D02*
G37*
G36*
X0068453D02*
X00683479Y00884961D01*
X00681317Y00884065D01*
X0067946Y0088264D01*
X00678035Y00880783D01*
X00677139Y00878621D01*
X00677001Y0087757D01*
X0068453D01*
Y00885099D01*
D02*
G37*
G36*
X0066167D02*
Y0087757D01*
X006692D01*
X00669061Y00878621D01*
X00668165Y00880783D01*
X0066674Y0088264D01*
X00664883Y00884065D01*
X00662721Y00884961D01*
X0066167Y00885099D01*
D02*
G37*
G36*
X0065913D02*
X00658079Y00884961D01*
X00655917Y00884065D01*
X0065406Y0088264D01*
X00652635Y00880783D01*
X00651739Y00878621D01*
X006516Y0087757D01*
X0065913D01*
Y00885099D01*
D02*
G37*
G36*
X0063627D02*
Y0087757D01*
X006438D01*
X00643661Y00878621D01*
X00642765Y00880783D01*
X0064134Y0088264D01*
X00639483Y00884065D01*
X00637321Y00884961D01*
X0063627Y00885099D01*
D02*
G37*
G36*
X0063373D02*
X00632679Y00884961D01*
X00630517Y00884065D01*
X0062866Y0088264D01*
X00627235Y00880783D01*
X00626339Y00878621D01*
X006262Y0087757D01*
X0063373D01*
Y00885099D01*
D02*
G37*
G36*
X00719999Y0087503D02*
X0071247D01*
Y00867501D01*
X00713521Y00867639D01*
X00715683Y00868535D01*
X0071754Y0086996D01*
X00718965Y00871817D01*
X00719861Y00873979D01*
X00719999Y0087503D01*
D02*
G37*
G36*
X0070993D02*
X00702401D01*
X00702539Y00873979D01*
X00703435Y00871817D01*
X0070486Y0086996D01*
X00706717Y00868535D01*
X00708879Y00867639D01*
X0070993Y00867501D01*
Y0087503D01*
D02*
G37*
G36*
X006946D02*
X0068707D01*
Y00867501D01*
X00688121Y00867639D01*
X00690283Y00868535D01*
X0069214Y0086996D01*
X00693565Y00871817D01*
X00694461Y00873979D01*
X006946Y0087503D01*
D02*
G37*
G36*
X0068453D02*
X00677001D01*
X00677139Y00873979D01*
X00678035Y00871817D01*
X0067946Y0086996D01*
X00681317Y00868535D01*
X00683479Y00867639D01*
X0068453Y00867501D01*
Y0087503D01*
D02*
G37*
G36*
X006692D02*
X0066167D01*
Y00867501D01*
X00662721Y00867639D01*
X00664883Y00868535D01*
X0066674Y0086996D01*
X00668165Y00871817D01*
X00669061Y00873979D01*
X006692Y0087503D01*
D02*
G37*
G36*
X0065913D02*
X006516D01*
X00651739Y00873979D01*
X00652635Y00871817D01*
X0065406Y0086996D01*
X00655917Y00868535D01*
X00658079Y00867639D01*
X0065913Y00867501D01*
Y0087503D01*
D02*
G37*
G36*
X006438D02*
X0063627D01*
Y00867501D01*
X00637321Y00867639D01*
X00639483Y00868535D01*
X0064134Y0086996D01*
X00642765Y00871817D01*
X00643661Y00873979D01*
X006438Y0087503D01*
D02*
G37*
G36*
X0063373D02*
X006262D01*
X00626339Y00873979D01*
X00627235Y00871817D01*
X0062866Y0086996D01*
X00630517Y00868535D01*
X00632679Y00867639D01*
X0063373Y00867501D01*
Y0087503D01*
D02*
G37*
G36*
X00574294Y00746669D02*
Y0073914D01*
X00581824D01*
X00581685Y00740191D01*
X00580789Y00742353D01*
X00579364Y0074421D01*
X00577507Y00745635D01*
X00575345Y00746531D01*
X00574294Y00746669D01*
D02*
G37*
G36*
X00571754D02*
X00570703Y00746531D01*
X00568541Y00745635D01*
X00566684Y0074421D01*
X00565259Y00742353D01*
X00564363Y00740191D01*
X00564225Y0073914D01*
X00571754D01*
Y00746669D01*
D02*
G37*
G36*
X00581824Y007366D02*
X00574294D01*
Y00729071D01*
X00575345Y00729209D01*
X00577507Y00730105D01*
X00579364Y0073153D01*
X00580789Y00733387D01*
X00581685Y00735549D01*
X00581824Y007366D01*
D02*
G37*
G36*
X00571754D02*
X00564225D01*
X00564363Y00735549D01*
X00565259Y00733387D01*
X00566684Y0073153D01*
X00568541Y00730105D01*
X00570703Y00729209D01*
X00571754Y00729071D01*
Y007366D01*
D02*
G37*
G36*
X00593598Y00726096D02*
Y00718566D01*
X00601128D01*
X00600989Y00719617D01*
X00600093Y00721779D01*
X00598668Y00723636D01*
X00596811Y00725061D01*
X00594649Y00725957D01*
X00593598Y00726096D01*
D02*
G37*
G36*
X00591058D02*
X00590007Y00725957D01*
X00587845Y00725061D01*
X00585988Y00723636D01*
X00584563Y00721779D01*
X00583667Y00719617D01*
X00583529Y00718566D01*
X00591058D01*
Y00726096D01*
D02*
G37*
G36*
X00601128Y00716026D02*
X00593598D01*
Y00708496D01*
X00594649Y00708635D01*
X00596811Y00709531D01*
X00598668Y00710956D01*
X00600093Y00712813D01*
X00600989Y00714975D01*
X00601128Y00716026D01*
D02*
G37*
G36*
X00591058D02*
X00583529D01*
X00583667Y00714975D01*
X00584563Y00712813D01*
X00585988Y00710956D01*
X00587845Y00709531D01*
X00590007Y00708635D01*
X00591058Y00708496D01*
Y00716026D01*
D02*
G37*
G36*
X00574294Y00705521D02*
Y00697992D01*
X00581824D01*
X00581685Y00699043D01*
X00580789Y00701205D01*
X00579364Y00703062D01*
X00577507Y00704487D01*
X00575345Y00705383D01*
X00574294Y00705521D01*
D02*
G37*
G36*
X00571754D02*
X00570703Y00705383D01*
X00568541Y00704487D01*
X00566684Y00703062D01*
X00565259Y00701205D01*
X00564363Y00699043D01*
X00564225Y00697992D01*
X00571754D01*
Y00705521D01*
D02*
G37*
G36*
X00581824Y00695452D02*
X00574294D01*
Y00687923D01*
X00575345Y00688061D01*
X00577507Y00688957D01*
X00579364Y00690382D01*
X00580789Y00692239D01*
X00581685Y00694401D01*
X00581824Y00695452D01*
D02*
G37*
G36*
X00571754D02*
X00564225D01*
X00564363Y00694401D01*
X00565259Y00692239D01*
X00566684Y00690382D01*
X00568541Y00688957D01*
X00570703Y00688061D01*
X00571754Y00687923D01*
Y00695452D01*
D02*
G37*
%LPD*%
D11*
X0037592Y0093222D02*
X00397764Y00910376D01*
Y0085257D02*
Y00910376D01*
X0037592Y0093222D02*
Y0093347D01*
X000381Y002413D02*
Y002667D01*
X01031494Y00190592D02*
Y00207772D01*
X01026556Y00185654D02*
X01031494Y00190592D01*
X01030986Y00055626D02*
X0103124Y00055372D01*
X01006094Y00207772D02*
Y00208026D01*
Y00190866D02*
Y00207772D01*
Y00190866D02*
X01012556Y00184404D01*
X0036703Y00402336D02*
Y00422546D01*
X00366776Y00402082D02*
X0036703Y00402336D01*
X00465074Y00827024D02*
X0046736Y00824738D01*
Y0079248D02*
Y00824738D01*
X0095631Y00577738D02*
X00957184Y00578612D01*
X0095631Y00566166D02*
Y00577738D01*
X00950976Y00548386D02*
Y00560832D01*
X0095631Y00566166D01*
X00267964Y0049302D02*
X002794D01*
X0025908Y00501904D02*
X00267964Y0049302D01*
X00268986Y00245494D02*
Y00267208D01*
X0022352D02*
X00268986D01*
X00222758Y0026797D02*
X0022352Y00267208D01*
X00170304Y002667D02*
X00171574Y0026797D01*
X0013335Y002667D02*
X00170304D01*
X00980694Y00055626D02*
Y00208026D01*
D20*
X0018751Y0017274D02*
D03*
Y0016624D02*
D03*
Y0015974D02*
D03*
X0020701D02*
D03*
Y0016624D02*
D03*
Y0017274D02*
D03*
D21*
X01343914Y00140956D02*
D03*
Y00170956D02*
D03*
X0122428D02*
D03*
Y00140956D02*
D03*
X01304036Y00170956D02*
D03*
Y00140956D02*
D03*
X01264158Y00170956D02*
D03*
Y00140956D02*
D03*
X0047752Y00945328D02*
D03*
Y00915328D02*
D03*
X0042672D02*
D03*
Y00945328D02*
D03*
D22*
X01343914Y00068836D02*
D03*
Y00100836D02*
D03*
X01264158Y00068836D02*
D03*
Y00100836D02*
D03*
X01304036Y00068836D02*
D03*
Y00100836D02*
D03*
X0122428Y00068836D02*
D03*
Y00100836D02*
D03*
D23*
X0102669Y00898652D02*
D03*
X0099769D02*
D03*
D24*
X00622942Y00797932D02*
D03*
X00689942D02*
D03*
D25*
X0036192Y0093347D02*
D03*
X0037592D02*
D03*
X00957184Y00578612D02*
D03*
X00971184D02*
D03*
X01012556Y00184404D02*
D03*
X01026556D02*
D03*
D26*
X01046136Y0086315D02*
D03*
Y0083865D02*
D03*
X00987896D02*
D03*
Y0086315D02*
D03*
D27*
X00268986Y00229994D02*
D03*
Y00245494D02*
D03*
X002794Y0052083D02*
D03*
Y0053633D02*
D03*
Y0049302D02*
D03*
Y0047752D02*
D03*
D28*
X00793242Y00923354D02*
D03*
X00809242D02*
D03*
D29*
X00760102Y00869052D02*
D03*
D30*
X00779152Y00841932D02*
D03*
X00766452D02*
D03*
X00753752D02*
D03*
X00741052D02*
D03*
Y00896172D02*
D03*
X00753752D02*
D03*
X00766452D02*
D03*
X00779152D02*
D03*
D31*
X01083056Y00303624D02*
D03*
X01092556Y00283624D02*
D03*
X01073556D02*
D03*
X01086612Y00518922D02*
D03*
X01096112Y00498922D02*
D03*
X01077112D02*
D03*
X01082294Y00735584D02*
D03*
X01091794Y00715584D02*
D03*
X01072794D02*
D03*
D32*
X00428248Y00986028D02*
D03*
Y00966028D02*
D03*
X0047712Y00986028D02*
D03*
Y00966028D02*
D03*
X00525993D02*
D03*
Y00986028D02*
D03*
X00731774Y00805942D02*
D03*
Y00785942D02*
D03*
D33*
X00527727Y00944828D02*
D03*
Y00909828D02*
D03*
X0031623Y0050038D02*
D03*
X0008763Y0093218D02*
D03*
X003683Y008763D02*
D03*
X0143256Y00929894D02*
D03*
X00572516Y00767334D02*
D03*
D34*
X0039138Y0044668D02*
D03*
X0048238D02*
D03*
X0039138Y0040168D02*
D03*
X0048238D02*
D03*
X0066018Y003077D02*
D03*
X0056918D02*
D03*
X0066018Y003527D02*
D03*
X0056918D02*
D03*
X0066018Y0040168D02*
D03*
X0056918D02*
D03*
X0066018Y0044668D02*
D03*
X0056918D02*
D03*
X0066018Y0049566D02*
D03*
X0056918D02*
D03*
X0066018Y0054066D02*
D03*
X0056918D02*
D03*
D35*
X00768602Y00940172D02*
D03*
X00751602D02*
D03*
D36*
X00206632Y0011303D02*
D03*
X00191132D02*
D03*
X00117732Y00159258D02*
D03*
X00102232D02*
D03*
X00207258Y0026797D02*
D03*
X00222758D02*
D03*
X00187074D02*
D03*
X00171574D02*
D03*
X00191132Y00092964D02*
D03*
X00206632D02*
D03*
D37*
X0036703Y00440546D02*
D03*
Y00422546D02*
D03*
X00756158Y0078221D02*
D03*
Y0080021D02*
D03*
D38*
X005354Y003556D02*
D03*
X005174D02*
D03*
X005354Y0044704D02*
D03*
X005174D02*
D03*
X005354Y0054356D02*
D03*
X005174D02*
D03*
D39*
X0036703Y00467766D02*
D03*
Y00486766D02*
D03*
X0053848Y0039558D02*
D03*
Y0037658D02*
D03*
X00545084Y00487274D02*
D03*
Y00468274D02*
D03*
X005334Y0058354D02*
D03*
Y0056454D02*
D03*
D40*
X0106294Y0026543D02*
D03*
X0104394D02*
D03*
X01075792Y00477774D02*
D03*
X01056792D02*
D03*
X01070864Y00686562D02*
D03*
X01051864D02*
D03*
D41*
X00658502Y00686172D02*
D03*
X00760502D02*
D03*
D42*
X0112268Y003048D02*
D03*
Y003448D02*
D03*
X01126998Y00520258D02*
D03*
Y00560258D02*
D03*
X01121156Y00736092D02*
D03*
Y00776092D02*
D03*
D43*
X00830072Y0074295D02*
D03*
X00790072D02*
D03*
D44*
X00897262Y00844292D02*
D03*
Y00924292D02*
D03*
D45*
X00826142Y00829572D02*
D03*
Y00847572D02*
D03*
D46*
X00228092Y00165638D02*
D03*
Y00151638D02*
D03*
D47*
X0019726Y0016624D02*
D03*
D81*
Y0017174D02*
D03*
Y0016074D02*
D03*
D83*
X00758698Y00376174D02*
X0079248Y00409956D01*
X00690927Y00308403D02*
X00758698Y00376174D01*
X00758444D02*
X00758698D01*
X01304036Y00170956D02*
X01343914D01*
X00976188Y00548386D02*
Y00565903D01*
X002235Y00152512D02*
X00227095Y00148917D01*
X00232063D01*
X00660883Y00308403D02*
X00690927D01*
X00732938Y0040168D02*
X00758444Y00376174D01*
X0079248Y00409956D02*
Y00427355D01*
X0018751Y0026797D02*
Y00449384D01*
X0066018Y0040168D02*
X00732938D01*
X0066018D02*
X00661852Y00403352D01*
X00728485Y00427355D02*
X0079248D01*
X0106294Y0026543D02*
Y0026768D01*
X01065785Y00270525D01*
X01068035D01*
X01073151Y00275641D02*
Y00283219D01*
X01068035Y00270525D02*
X01073151Y00275641D01*
Y00283219D02*
X01073556Y00283624D01*
X00535686Y0044704D02*
X0053822Y00449574D01*
Y00456432D01*
X00541829Y00460041D01*
X00544674Y00468274D02*
X00545084D01*
X00541829Y00460041D02*
Y00465429D01*
X00544674Y00468274D01*
X005354Y0044704D02*
X00535686D01*
X00117732Y00159258D02*
X00118214Y0015974D01*
X00180848D01*
X00166116Y0016637D02*
X00180718D01*
X00158242Y00174244D02*
X00166116Y0016637D01*
X00158242Y00174244D02*
Y00209296D01*
X00227614Y00166116D02*
X00228092Y00165638D01*
X00211706Y00166116D02*
X00227614D01*
X0020701Y0017274D02*
Y00267722D01*
Y0026797D02*
Y0040513D01*
Y00267722D02*
X00207258Y0026797D01*
X00333248Y0014224D02*
X00334518Y0014097D01*
X00232937Y00147695D02*
X00238392Y0014224D01*
X00232937Y00147695D02*
Y00148043D01*
X00238392Y0014224D02*
X00333248D01*
X00232063Y00148917D02*
X00232937Y00148043D01*
X00228092Y00165638D02*
X00228393Y00165939D01*
X00239345D02*
X00268986Y0019558D01*
X00228393Y00165939D02*
X00239345D01*
X00186944Y0026784D02*
X00187074Y0026797D01*
X00186944Y00173306D02*
Y0026784D01*
X0051435Y00086741D02*
X00515112Y00085979D01*
X0051435Y00086741D02*
Y000889D01*
X0058039Y00075184D02*
X00688848Y00183642D01*
X00481584Y00075184D02*
X0058039D01*
X0047625Y0006985D02*
X00481584Y00075184D01*
X0047625Y0006985D02*
X00489712Y00056388D01*
X00343281Y00202819D02*
X0047625Y0006985D01*
X00464312Y00986028D02*
X0047712D01*
X00286766Y00996696D02*
X00453644D01*
X00464312Y00986028D01*
X0076962Y0078221D02*
Y00810768D01*
X00756158Y0078221D02*
X0076962D01*
X0079259D01*
X00898652Y00916686D02*
Y00922902D01*
X00897262Y00924292D02*
X00898652Y00922902D01*
X00334518Y00117856D02*
Y0014097D01*
X0019685Y000762D02*
X00292862D01*
X00334518Y00117856D01*
X00809432Y00923544D02*
X00824738D01*
X00809242Y00923354D02*
X00809432Y00923544D01*
X0122428Y00100836D02*
Y00140956D01*
X01264158Y00100836D02*
Y00140956D01*
X01304036Y00100836D02*
Y00140956D01*
X01343914Y00100836D02*
Y00140956D01*
X01245122Y00170956D02*
X01264158D01*
X01244092Y00169926D02*
X01245122Y00170956D01*
X0122428D02*
X01243062D01*
X01244092Y00169926D01*
X01209548Y00042418D02*
X0122428Y0005715D01*
Y00068836D01*
X00713994Y00042418D02*
X01209548D01*
X01246886Y00033528D02*
X01263269Y00049911D01*
Y00067947D02*
X01264158Y00068836D01*
X01263269Y00049911D02*
Y00067947D01*
X00697484Y00033528D02*
X01246886D01*
X00668782Y0001143D02*
X01304544D01*
X0134366Y00068582D02*
X01343914Y00068836D01*
X01304544Y0001143D02*
X0134366Y00050546D01*
Y00068582D01*
X01304036Y00046636D02*
Y00068836D01*
X0128026Y0002286D02*
X01304036Y00046636D01*
X00682752Y0002286D02*
X0128026D01*
X0065024Y00055372D02*
X00682752Y0002286D01*
X0070104Y00055372D02*
X00713994Y00042418D01*
X0067564Y00055372D02*
X00697484Y00033528D01*
X0062484Y00055372D02*
X00668782Y0001143D01*
X0044323Y00297434D02*
X00532892Y00207772D01*
X006282D01*
X00630138Y00228128D02*
X00650494Y00207772D01*
X00554954Y00228128D02*
X00630138D01*
X00461518Y00321564D02*
Y00535432D01*
Y00321564D02*
X00554954Y00228128D01*
X00275336Y00985266D02*
X00286766Y00996696D01*
X0026035Y0099695D02*
X00270764Y01007364D01*
X00500851D02*
X00522187Y00986028D01*
X00270764Y01007364D02*
X00500851D01*
X00300228Y00986028D02*
X00428498D01*
X0028575Y0097155D02*
X00300228Y00986028D01*
X01026556Y00184404D02*
Y00185654D01*
X00549508Y003527D02*
X0056918D01*
X00546608Y003556D02*
X00549508Y003527D01*
X0054048Y003556D02*
X00546608D01*
X0053732D02*
X0054048D01*
X01213348Y00776092D02*
X0121412Y0077532D01*
X01092556Y00141072D02*
Y00283624D01*
X01092454Y0014097D02*
X01092556Y00141072D01*
X00368046Y00901954D02*
X003683Y009017D01*
X0042672Y0090424D02*
X0043688Y0089408D01*
X0047752D01*
X00724408Y0091948D02*
X00731012D01*
X00741052Y00896172D02*
Y0090944D01*
X00731012Y0091948D02*
X00741052Y0090944D01*
X0008763Y0093218D02*
X0031623D01*
X00972708Y00578866D02*
X00973307Y00578267D01*
X00972708Y00696864D02*
X0100203Y00726186D01*
X00972708Y00578866D02*
Y00696864D01*
X0100203Y00726186D02*
X01081192D01*
X01096112Y00406806D02*
Y00498922D01*
Y00406806D02*
X01096518Y004064D01*
X0076962Y00286766D02*
X00865784D01*
X00759206Y00302514D02*
X0085725D01*
X01051864Y00497128D02*
Y00686562D01*
X00865784Y00286766D02*
X01051697Y00472679D01*
X0085725Y00302514D02*
X01051864Y00497128D01*
X01051697Y00472679D02*
X01053947D01*
X01086612Y00518922D02*
X01125662D01*
X01091794Y00715584D02*
Y00716084D01*
X01089699Y00718179D02*
X01091794Y00716084D01*
X01089199Y00718179D02*
X01089699D01*
X01081192Y00726186D02*
X01089199Y00718179D01*
X0079259Y0078221D02*
X00792734Y00782066D01*
X00733024Y00805942D02*
X00734548Y00804418D01*
X00741934D01*
X00755941Y00800427D02*
X00756158Y0080021D01*
X00745925Y00800427D02*
X00755941D01*
X00741934Y00804418D02*
X00745925Y00800427D01*
X00733024Y00805942D02*
X00737119Y00810037D01*
Y00811287D01*
X00741052Y0081522D01*
X00753752Y00826636D02*
X0076962Y00810768D01*
X00753752Y00826636D02*
Y00841932D01*
X00741052Y0081522D02*
Y00841932D01*
X0048326Y0058354D02*
X005334D01*
X004826Y005842D02*
X0048326Y0058354D01*
X0047712Y00941351D02*
Y00966028D01*
X004764Y00945328D02*
Y00949522D01*
Y0094465D02*
Y00945328D01*
Y00941351D02*
Y0094465D01*
X00428248Y00945578D02*
X00428498Y00945328D01*
X00428248Y00945578D02*
Y00966028D01*
X0042672Y0090424D02*
Y00915328D01*
X00511979Y0089408D02*
X00527727Y00909828D01*
X0047752Y0089408D02*
X00511979D01*
X0047752D02*
Y009144D01*
X0066018Y003077D02*
X00660883Y00308403D01*
X0066018Y0049566D02*
X0066368D01*
X00668775Y00490565D01*
Y00487065D02*
Y00490565D01*
Y00487065D02*
X00728485Y00427355D01*
X00545084Y00487274D02*
Y00503174D01*
X0048238Y00345982D02*
Y0040168D01*
X00481584Y00345186D02*
X0048238Y00345982D01*
X00525993Y00946562D02*
Y00966028D01*
Y00946562D02*
X00527727Y00944828D01*
X00117732Y00159258D02*
Y00407292D01*
X0026162Y0055118D01*
X00191132Y00081918D02*
X0019685Y000762D01*
X00191132Y00081918D02*
Y00092964D01*
X0051401Y00057491D02*
X00530098Y00041402D01*
X00354076Y00249174D02*
X0051435Y000889D01*
X00354076Y00249174D02*
Y00589534D01*
X0031623Y0093218D02*
X00317583D01*
X00766452Y00875402D02*
Y00896172D01*
Y00915296D01*
X00343281Y00202819D02*
Y00571881D01*
X00492506Y00028194D02*
X00580769D01*
X00464312Y00056388D02*
Y00056388D01*
Y00056388D02*
X00492506Y00028194D01*
X00332486Y00188214D02*
X00464312Y00056388D01*
X00332486Y00188214D02*
Y00560324D01*
X00530098Y00041402D02*
X0056896D01*
X00713239Y00185681D01*
X0031623Y0062738D02*
X00354076Y00589534D01*
X0032024Y00594921D02*
Y00594942D01*
Y00594921D02*
X0034093Y00574232D01*
Y00574232D02*
Y00574232D01*
Y00574232D02*
X00343281Y00571881D01*
X0031623Y00598952D02*
X0032024Y00594942D01*
X0031623Y00598952D02*
Y0060198D01*
X0036703Y00443704D02*
Y00465175D01*
Y00440546D02*
Y00443704D01*
Y00442214D02*
X00386914D01*
X00364439Y00467766D02*
X0036703Y00465175D01*
X00368402Y00485394D02*
X00386334D01*
X0036703Y00486766D02*
X00368402Y00485394D01*
X0031623Y0057658D02*
X00332486Y00560324D01*
X00386914Y00442214D02*
X0039138Y0044668D01*
X0026162Y0055118D02*
X0031623D01*
X00276555Y00533485D02*
X002794Y0053633D01*
X00271611Y00533485D02*
X00276555D01*
X0018751Y00449384D02*
X00271611Y00533485D01*
X002774Y0047752D02*
X002794D01*
X00274555Y00474675D02*
X002774Y0047752D01*
X00274555Y00472675D02*
Y00474675D01*
X0020701Y0040513D02*
X00274555Y00472675D01*
X00268986Y0019558D02*
Y00229994D01*
X00206632Y00092964D02*
Y0011303D01*
X0020701Y00113408D02*
Y0015974D01*
X00206632Y0011303D02*
X0020701Y00113408D01*
X00351536Y00716788D02*
X00470916Y00597408D01*
X0008763Y0077978D02*
X00150622Y00716788D01*
X00351536D01*
X0032893Y00767588D02*
X00483108Y0061341D01*
X00834964D02*
X00899988Y00548386D01*
X00483108Y0061341D02*
X00834964D01*
X00339598Y00742188D02*
X0047625Y00605536D01*
X00817438D02*
X00874588Y00548386D01*
X0047625Y00605536D02*
X00817438D01*
X00152146Y00767588D02*
X0032893D01*
X00089154Y0083058D02*
X00152146Y00767588D01*
X0008763Y0083058D02*
X00089154D01*
X00150622Y00742188D02*
X00339598D01*
X0008763Y0080518D02*
X00150622Y00742188D01*
X00470916Y00597408D02*
X00800166D01*
X00874588Y00548386D02*
X00874588D01*
X00800166Y00597408D02*
X00849188Y00548386D01*
X0079756Y00551246D02*
Y005842D01*
X00796544Y0055023D02*
X00798388Y00548386D01*
X00796544Y0055023D02*
X0079756Y00551246D01*
X0044323Y00297434D02*
Y00526034D01*
X0031877Y0067818D02*
X00461518Y00535432D01*
X00316484Y0065278D02*
X0044323Y00526034D01*
X00713239Y00185681D02*
Y00230385D01*
X00738639Y00186064D02*
Y00230893D01*
X00580769Y00028194D02*
X00738639Y00186064D01*
X00688848Y00232156D02*
X00759206Y00302514D01*
X00688848Y00183642D02*
Y00232156D01*
X00713239Y00230385D02*
X0076962Y00286766D01*
X01056792Y00475524D02*
Y00477774D01*
X01053947Y00472679D02*
X01056792Y00475524D01*
X00738639Y00230893D02*
X00773176Y0026543D01*
X0104394D01*
X0031623Y0067818D02*
X0031877D01*
X0031623Y0065278D02*
X00316484D01*
X0053848Y0039558D02*
Y00424434D01*
X002794Y0047752D02*
X0029337D01*
X0031623Y0050038D01*
X0041656Y0079248D02*
X00417322Y00791718D01*
X00973307Y00568784D02*
Y00578267D01*
Y00568784D02*
X00976188Y00565903D01*
X00760102Y00869052D02*
X00760492Y00869442D01*
X00800862D02*
X00804272D01*
X00824642Y00847572D02*
X00826142D01*
X00820797Y00851417D02*
X00824642Y00847572D01*
X00820797Y00851417D02*
Y00852917D01*
X00793242Y00917956D02*
Y00928752D01*
X00779152Y00896172D02*
X00780497Y00897517D01*
Y00905211D01*
X00793242Y00917956D01*
X00768602Y00940172D02*
X0076962Y00939154D01*
Y00918464D02*
Y00939154D01*
X00766452Y00915296D02*
X0076962Y00918464D01*
X00753752Y00896172D02*
X00753872Y00896292D01*
Y0091313D01*
X00751602Y009154D02*
Y00940172D01*
Y009154D02*
X00753872Y0091313D01*
X01082294Y00735584D02*
X01120648D01*
X01121156Y00736092D01*
X01125662Y00518922D02*
X01126998Y00520258D01*
X01083056Y00303624D02*
X01121504D01*
X0112268Y003048D01*
X01213678Y00560258D02*
X012138Y0056038D01*
X01070864Y00686562D02*
X01072134Y00687832D01*
Y00714924D02*
X01072794Y00715584D01*
X01072134Y00687832D02*
Y00714924D01*
X01082294Y00735584D02*
X01082614Y00735904D01*
X01075792Y00477774D02*
Y00497602D01*
X01077112Y00498922D01*
X0121848Y003448D02*
X0121912Y0034544D01*
X005354Y0054356D02*
X0056628D01*
X0056918Y0054066D01*
X0053732Y0044704D02*
X0056882D01*
X0056918Y0044668D01*
X0054048Y003556D02*
Y0037458D01*
X0053848Y0037658D02*
X0054048Y0037458D01*
X005354Y0054356D02*
Y005632D01*
X005334Y005652D02*
X005354Y005632D01*
X002794Y0049302D02*
Y0052083D01*
X0030226Y0052578D02*
X0031623D01*
X002794Y0053633D02*
X0029171D01*
X0030226Y0052578D01*
D84*
X0036142Y0093347D02*
X0036192Y0093397D01*
X00956595Y00682244D02*
X00957184Y00681655D01*
X00956595Y00682244D02*
X00957326D01*
X00957184Y00578612D02*
Y00681655D01*
X01039426Y0083865D02*
X01046136D01*
X00317583Y0093218D02*
X0031854Y00933137D01*
X00320722D01*
X00321055Y0093347D01*
X0036142D01*
X0036192Y0093397D02*
Y0093472D01*
X00830072Y0074295D02*
Y00766064D01*
X00792734Y00803402D02*
X00830072Y00766064D01*
X00792734Y00803402D02*
Y00803756D01*
X00830072Y00706374D02*
Y0074295D01*
X0080987Y00686172D02*
X00830072Y00706374D01*
X00760502Y00686172D02*
X0080987D01*
X0098044Y00055372D02*
X00980694Y00055626D01*
D85*
X00186378Y0017274D02*
X00186944Y00173306D01*
X00180848Y0016624D02*
X00186359D01*
X0020729Y0015974D02*
X00211582D01*
X00180848Y0017274D02*
X00186378D01*
X00207557D02*
X00211847D01*
X00180848Y0015974D02*
X00185138D01*
X0020701Y0016624D02*
X002113D01*
D86*
X00934192Y0088009D02*
X00952754Y00898652D01*
X00934078Y00879976D02*
X00934192Y0088009D01*
Y0088009D02*
Y0088009D01*
X0090249Y00911792D02*
X00934192Y0088009D01*
X00760492Y00869442D02*
X00800862D01*
X00902262Y00911792D02*
X0090249D01*
X00897262Y00916792D02*
X00902262Y00911792D01*
X00897262Y00916792D02*
Y00924292D01*
X00934078Y00879976D02*
X00975404Y0083865D01*
X00952754Y00898652D02*
X0099769D01*
X0129667Y0098425D02*
X0134239D01*
X013716Y0095504D01*
X0117475Y0086233D02*
X0129667Y0098425D01*
X01026414Y00851662D02*
X01039426Y0083865D01*
X01026414Y00851662D02*
Y00892652D01*
X00990021Y00861025D02*
X00997678D01*
X00999675Y00859028D01*
X01000101D02*
X01008888Y00850241D01*
X00999675Y00859028D02*
X01000101D01*
X00922419Y00811635D02*
X01000101D01*
X01008888Y00820422D02*
Y00850241D01*
X01000101Y00811635D02*
X01008888Y00820422D01*
X01046136Y0083865D02*
X01074224D01*
X01095516Y00817358D02*
X01198918D01*
X01074224Y0083865D02*
X01095516Y00817358D01*
X01198918D02*
X013366Y0095504D01*
X01048261Y0086233D02*
X0117475D01*
X00897262Y00836792D02*
X00922419Y00811635D01*
X00975404Y0083865D02*
X00987896D01*
X0119412Y0071532D02*
X013716Y008928D01*
Y0095504D01*
X01431544D01*
X00804272Y00869442D02*
X00820797Y00852917D01*
X00800862Y00869442D02*
X00855712Y00924292D01*
X00897262D01*
X00795774Y00829572D02*
X00826142D01*
X00787789Y00837557D02*
X00795774Y00829572D01*
X00826142D02*
X0085294D01*
X00864108Y0084074D01*
X0089371D01*
X00897262Y00844292D01*
D87*
X00102232Y00139068D02*
Y00177168D01*
X000381Y002413D02*
X00102232Y00177168D01*
X00152654Y00088646D02*
X00177038Y0011303D01*
X00191132D01*
X00152654Y00088646D02*
X00184912Y00056388D01*
X00102232Y00139068D02*
X00152654Y00088646D01*
X00689942Y00797932D02*
X00699192D01*
X00702817Y00794307D02*
X00711563Y00785561D01*
X00731393D01*
X00699192Y00797932D02*
X00706442Y00790682D01*
X00731393Y00785561D02*
X00731774Y00785942D01*
Y00772668D02*
Y00785942D01*
X0112268Y003448D02*
X0121848D01*
X00508Y0056896D02*
X005174Y0055956D01*
X00731774Y00772668D02*
X00761492Y0074295D01*
X00790072D01*
X00766318Y00841798D02*
X00766452Y00841932D01*
X00766318Y00830173D02*
Y00841798D01*
Y00830173D02*
X00792734Y00803756D01*
X005174Y00362951D02*
Y0044704D01*
Y0054356D02*
Y0055956D01*
Y0044896D02*
Y0054356D01*
X00184912Y00056388D02*
X00438912D01*
X01121156Y00776092D02*
X01213348D01*
X0112268Y0028448D02*
Y003048D01*
Y0028448D02*
X0118172Y0022544D01*
X01172718Y0065532D02*
X0121412D01*
X01121156Y00706882D02*
Y00736092D01*
Y00706882D02*
X01172718Y0065532D01*
X01126998Y0050038D02*
Y00520258D01*
Y0050038D02*
X01186998Y0044038D01*
X01126998Y00560258D02*
X01213678D01*
X01186998Y0044038D02*
X012138D01*
X0118172Y0022544D02*
X0121912D01*
D88*
X00336804Y00901954D02*
X00368046D01*
X0031623Y0088138D02*
X00336804Y00901954D01*
D89*
X00760052Y00869002D02*
X00760102Y00869052D01*
D90*
X013716Y0095504D02*
D03*
D91*
X013366D02*
D03*
D92*
X0121412D02*
D03*
X0117912D02*
D03*
D93*
X0114412D02*
D03*
D94*
X01006094Y00207772D02*
D03*
X00980694D02*
D03*
X00955294D02*
D03*
X00929894D02*
D03*
X00904494D02*
D03*
X00879094D02*
D03*
X00853694D02*
D03*
X00828294D02*
D03*
X00802894D02*
D03*
X00777494D02*
D03*
X00752094D02*
D03*
X00726694D02*
D03*
X00701294D02*
D03*
X00675894D02*
D03*
X00650494D02*
D03*
X00625094D02*
D03*
X00823976Y00548386D02*
D03*
X00849376D02*
D03*
X00874776D02*
D03*
X00900176D02*
D03*
X00925576D02*
D03*
X00950976D02*
D03*
X00976376D02*
D03*
X0031623Y0052578D02*
D03*
Y0055118D02*
D03*
Y0057658D02*
D03*
Y0060198D02*
D03*
Y0062738D02*
D03*
Y0065278D02*
D03*
Y0067818D02*
D03*
Y0070358D02*
D03*
Y0072898D02*
D03*
Y0075438D02*
D03*
Y0077978D02*
D03*
Y0080518D02*
D03*
Y0083058D02*
D03*
Y0085598D02*
D03*
Y0088138D02*
D03*
Y0090678D02*
D03*
Y0093218D02*
D03*
X0008763Y0090678D02*
D03*
Y0088138D02*
D03*
Y0085598D02*
D03*
Y0083058D02*
D03*
Y0080518D02*
D03*
Y0077978D02*
D03*
Y0075438D02*
D03*
Y0072898D02*
D03*
Y0070358D02*
D03*
Y0067818D02*
D03*
Y0065278D02*
D03*
Y0062738D02*
D03*
Y0060198D02*
D03*
Y0057658D02*
D03*
Y0055118D02*
D03*
Y0052578D02*
D03*
Y0050038D02*
D03*
X0041656Y0079248D02*
D03*
X0044196D02*
D03*
X0046736D02*
D03*
X00438912Y00056388D02*
D03*
X00464312D02*
D03*
X00489712D02*
D03*
X00515112D02*
D03*
X003683Y009017D02*
D03*
X0143256Y00955294D02*
D03*
X00572516Y00792734D02*
D03*
X0100584Y00055372D02*
D03*
X0098044D02*
D03*
X0095504D02*
D03*
X0092964D02*
D03*
X0090424D02*
D03*
X0087884D02*
D03*
X0085344D02*
D03*
X0082804D02*
D03*
X0080264D02*
D03*
X0077724D02*
D03*
X0075184D02*
D03*
X0072644D02*
D03*
X0070104D02*
D03*
X0067564D02*
D03*
X0065024D02*
D03*
X0062484D02*
D03*
D95*
X01031494Y00207772D02*
D03*
X00798576Y00548386D02*
D03*
X0049276Y0079248D02*
D03*
X00540512Y00056388D02*
D03*
X0103124Y00055372D02*
D03*
D96*
X011938Y0071532D02*
D03*
X012138Y0065532D02*
D03*
X013358D02*
D03*
Y0077532D02*
D03*
X012138D02*
D03*
X011938Y0028544D02*
D03*
X012138Y0022544D02*
D03*
X013358D02*
D03*
Y0034544D02*
D03*
X012138D02*
D03*
X011938Y0050038D02*
D03*
X012138Y0044038D02*
D03*
X013358D02*
D03*
Y0056038D02*
D03*
X012138D02*
D03*
X010414Y0094996D02*
D03*
D97*
X0004064Y0098044D02*
D03*
Y0003556D02*
D03*
X0148844D02*
D03*
Y0098044D02*
D03*
D98*
X00515112Y00085979D02*
D03*
X00824738Y00923544D02*
D03*
X00957326Y00682244D02*
D03*
X01244092Y00169926D02*
D03*
X01324102D02*
D03*
X00275336Y00985266D02*
D03*
X01092454Y0014097D02*
D03*
X00592328Y00717296D02*
D03*
X00573024Y00696722D02*
D03*
Y0073787D02*
D03*
X0003683Y00400558D02*
D03*
X00366776Y00402082D02*
D03*
X00508Y0056896D02*
D03*
X01096518Y004064D02*
D03*
X00792734Y00782066D02*
D03*
Y00803402D02*
D03*
X004826Y005842D02*
D03*
X0047752Y0089408D02*
D03*
X0079248Y00427355D02*
D03*
X00545084Y00503174D02*
D03*
X0003683Y00538988D02*
D03*
X0025908Y00501904D02*
D03*
X00334518Y0014097D02*
D03*
X00481584Y00345186D02*
D03*
X00268986Y00267208D02*
D03*
X00158242Y00209296D02*
D03*
X000381Y002667D02*
D03*
X0013335D02*
D03*
X0026035Y0099695D02*
D03*
X0028575Y0097155D02*
D03*
X00635Y008763D02*
D03*
X006604D02*
D03*
X006858D02*
D03*
X007112D02*
D03*
Y009017D02*
D03*
X006858D02*
D03*
X006604D02*
D03*
X00635D02*
D03*
Y009271D02*
D03*
X006604D02*
D03*
X006858D02*
D03*
X007112D02*
D03*
X00386334Y00485394D02*
D03*
X0079756Y005842D02*
D03*
X0053848Y00424434D02*
D03*
M02*
