G04*
G04 #@! TF.GenerationSoftware,Altium Limited,Altium Designer,19.1.8 (144)*
G04*
G04 Layer_Physical_Order=2*
G04 Layer_Color=16711680*
%FSTAX44Y44*%
%MOMM*%
G71*
G01*
G75*
%ADD11C,0.5000*%
%ADD13C,0.2540*%
%ADD33R,1.5000X1.5000*%
%ADD81C,0.5000*%
%ADD83C,0.3810*%
%ADD84C,1.0000*%
%ADD86C,1.5000*%
%ADD87C,0.7000*%
%ADD90R,1.6500X1.6500*%
%ADD91C,1.6500*%
%ADD92C,2.1750*%
%ADD93R,2.1750X2.1750*%
%ADD94C,1.5000*%
%ADD95R,1.5000X1.5000*%
%ADD96C,2.2500*%
%ADD97C,1.5240*%
%ADD98C,1.2700*%
%ADD99C,2.0000*%
G36*
X0102235Y010033D02*
Y0078105D01*
X009398Y006985D01*
Y0052705D01*
X00969891D01*
X00970377Y00525877D01*
X0097028Y0052578D01*
Y0047244D01*
X0097028Y0017907D01*
X01239618D01*
X01239871Y001778D01*
X01239609Y00177691D01*
X01237752Y00176266D01*
X01236327Y00174409D01*
X01235431Y00172247D01*
X01235293Y00171196D01*
X01252891D01*
X01252753Y00172247D01*
X01251857Y00174409D01*
X01250432Y00176266D01*
X01248575Y00177691D01*
X01248313Y001778D01*
X01248566Y0017907D01*
X01319628D01*
X01319881Y001778D01*
X01319619Y00177691D01*
X01317762Y00176266D01*
X01316337Y00174409D01*
X01315441Y00172247D01*
X01315302Y00171196D01*
X01332901D01*
X01332763Y00172247D01*
X01331867Y00174409D01*
X01330442Y00176266D01*
X01328585Y00177691D01*
X01328323Y001778D01*
X01328576Y0017907D01*
X01399032D01*
X01424432Y0020447D01*
Y0088392D01*
X01494282D01*
X01494282Y00098298D01*
X00294132Y00098298D01*
X00294132Y0017907D01*
X0075819D01*
X00762Y0018288D01*
Y00206096D01*
X00762221Y00207772D01*
X00762Y00209448D01*
Y0047244D01*
X00763659D01*
X00763173Y00473613D01*
X0081661Y0052705D01*
X00834644D01*
Y0093345D01*
X0072644D01*
Y0084836D01*
X00374458D01*
Y0086626D01*
X0037834D01*
Y0088634D01*
X0035826D01*
Y0086626D01*
X00362142D01*
Y0084836D01*
X00324639D01*
X00324013Y0084963D01*
X00325Y00850917D01*
X00326012Y00853359D01*
X00326357Y0085598D01*
X00326012Y00858601D01*
X00325Y00861043D01*
X00323391Y00863141D01*
X00321293Y0086475D01*
X00318851Y00865762D01*
X0031623Y00866107D01*
X00313609Y00865762D01*
X00311167Y0086475D01*
X00309069Y00863141D01*
X0030746Y00861043D01*
X00306448Y00858601D01*
X00306103Y0085598D01*
X00306448Y00853359D01*
X0030746Y00850917D01*
X00308447Y0084963D01*
X00307821Y0084836D01*
X003048D01*
Y0094996D01*
X0056515D01*
Y0100965D01*
X01016D01*
X0102235Y010033D01*
D02*
G37*
%LPC*%
G36*
X0071247Y009359D02*
Y0092837D01*
X00719999D01*
X00719861Y00929421D01*
X00718965Y00931583D01*
X0071754Y0093344D01*
X00715683Y00934865D01*
X00713521Y00935761D01*
X0071247Y009359D01*
D02*
G37*
G36*
X0070993D02*
X00708879Y00935761D01*
X00706717Y00934865D01*
X0070486Y0093344D01*
X00703435Y00931583D01*
X00702539Y00929421D01*
X00702401Y0092837D01*
X0070993D01*
Y009359D01*
D02*
G37*
G36*
X0068707D02*
Y0092837D01*
X006946D01*
X00694461Y00929421D01*
X00693565Y00931583D01*
X0069214Y0093344D01*
X00690283Y00934865D01*
X00688121Y00935761D01*
X0068707Y009359D01*
D02*
G37*
G36*
X0068453D02*
X00683479Y00935761D01*
X00681317Y00934865D01*
X0067946Y0093344D01*
X00678035Y00931583D01*
X00677139Y00929421D01*
X00677001Y0092837D01*
X0068453D01*
Y009359D01*
D02*
G37*
G36*
X0066167D02*
Y0092837D01*
X006692D01*
X00669061Y00929421D01*
X00668165Y00931583D01*
X0066674Y0093344D01*
X00664883Y00934865D01*
X00662721Y00935761D01*
X0066167Y009359D01*
D02*
G37*
G36*
X0065913D02*
X00658079Y00935761D01*
X00655917Y00934865D01*
X0065406Y0093344D01*
X00652635Y00931583D01*
X00651739Y00929421D01*
X006516Y0092837D01*
X0065913D01*
Y009359D01*
D02*
G37*
G36*
X0063627D02*
Y0092837D01*
X006438D01*
X00643661Y00929421D01*
X00642765Y00931583D01*
X0064134Y0093344D01*
X00639483Y00934865D01*
X00637321Y00935761D01*
X0063627Y009359D01*
D02*
G37*
G36*
X0063373D02*
X00632679Y00935761D01*
X00630517Y00934865D01*
X0062866Y0093344D01*
X00627235Y00931583D01*
X00626339Y00929421D01*
X006262Y0092837D01*
X0063373D01*
Y009359D01*
D02*
G37*
G36*
X00719999Y0092583D02*
X0071247D01*
Y009183D01*
X00713521Y00918439D01*
X00715683Y00919335D01*
X0071754Y0092076D01*
X00718965Y00922617D01*
X00719861Y00924779D01*
X00719999Y0092583D01*
D02*
G37*
G36*
X0070993D02*
X00702401D01*
X00702539Y00924779D01*
X00703435Y00922617D01*
X0070486Y0092076D01*
X00706717Y00919335D01*
X00708879Y00918439D01*
X0070993Y009183D01*
Y0092583D01*
D02*
G37*
G36*
X006946D02*
X0068707D01*
Y009183D01*
X00688121Y00918439D01*
X00690283Y00919335D01*
X0069214Y0092076D01*
X00693565Y00922617D01*
X00694461Y00924779D01*
X006946Y0092583D01*
D02*
G37*
G36*
X0068453D02*
X00677001D01*
X00677139Y00924779D01*
X00678035Y00922617D01*
X0067946Y0092076D01*
X00681317Y00919335D01*
X00683479Y00918439D01*
X0068453Y009183D01*
Y0092583D01*
D02*
G37*
G36*
X006692D02*
X0066167D01*
Y009183D01*
X00662721Y00918439D01*
X00664883Y00919335D01*
X0066674Y0092076D01*
X00668165Y00922617D01*
X00669061Y00924779D01*
X006692Y0092583D01*
D02*
G37*
G36*
X0065913D02*
X006516D01*
X00651739Y00924779D01*
X00652635Y00922617D01*
X0065406Y0092076D01*
X00655917Y00919335D01*
X00658079Y00918439D01*
X0065913Y009183D01*
Y0092583D01*
D02*
G37*
G36*
X006438D02*
X0063627D01*
Y009183D01*
X00637321Y00918439D01*
X00639483Y00919335D01*
X0064134Y0092076D01*
X00642765Y00922617D01*
X00643661Y00924779D01*
X006438Y0092583D01*
D02*
G37*
G36*
X0063373D02*
X006262D01*
X00626339Y00924779D01*
X00627235Y00922617D01*
X0062866Y0092076D01*
X00630517Y00919335D01*
X00632679Y00918439D01*
X0063373Y009183D01*
Y0092583D01*
D02*
G37*
G36*
X0071247Y00910499D02*
Y0090297D01*
X00719999D01*
X00719861Y00904021D01*
X00718965Y00906183D01*
X0071754Y0090804D01*
X00715683Y00909465D01*
X00713521Y00910361D01*
X0071247Y00910499D01*
D02*
G37*
G36*
X0070993D02*
X00708879Y00910361D01*
X00706717Y00909465D01*
X0070486Y0090804D01*
X00703435Y00906183D01*
X00702539Y00904021D01*
X00702401Y0090297D01*
X0070993D01*
Y00910499D01*
D02*
G37*
G36*
X0068707D02*
Y0090297D01*
X006946D01*
X00694461Y00904021D01*
X00693565Y00906183D01*
X0069214Y0090804D01*
X00690283Y00909465D01*
X00688121Y00910361D01*
X0068707Y00910499D01*
D02*
G37*
G36*
X0068453D02*
X00683479Y00910361D01*
X00681317Y00909465D01*
X0067946Y0090804D01*
X00678035Y00906183D01*
X00677139Y00904021D01*
X00677001Y0090297D01*
X0068453D01*
Y00910499D01*
D02*
G37*
G36*
X0066167D02*
Y0090297D01*
X006692D01*
X00669061Y00904021D01*
X00668165Y00906183D01*
X0066674Y0090804D01*
X00664883Y00909465D01*
X00662721Y00910361D01*
X0066167Y00910499D01*
D02*
G37*
G36*
X0065913D02*
X00658079Y00910361D01*
X00655917Y00909465D01*
X0065406Y0090804D01*
X00652635Y00906183D01*
X00651739Y00904021D01*
X006516Y0090297D01*
X0065913D01*
Y00910499D01*
D02*
G37*
G36*
X0063627D02*
Y0090297D01*
X006438D01*
X00643661Y00904021D01*
X00642765Y00906183D01*
X0064134Y0090804D01*
X00639483Y00909465D01*
X00637321Y00910361D01*
X0063627Y00910499D01*
D02*
G37*
G36*
X0063373D02*
X00632679Y00910361D01*
X00630517Y00909465D01*
X0062866Y0090804D01*
X00627235Y00906183D01*
X00626339Y00904021D01*
X006262Y0090297D01*
X0063373D01*
Y00910499D01*
D02*
G37*
G36*
X0031623Y00916907D02*
X00313609Y00916562D01*
X00311167Y0091555D01*
X00309069Y00913941D01*
X0030746Y00911843D01*
X00306448Y00909401D01*
X00306103Y0090678D01*
X00306448Y00904159D01*
X0030746Y00901717D01*
X00309069Y00899619D01*
X00311167Y0089801D01*
X00313609Y00896998D01*
X0031623Y00896653D01*
X00318851Y00896998D01*
X00321293Y0089801D01*
X00323391Y00899619D01*
X00325Y00901717D01*
X00326012Y00904159D01*
X00326357Y0090678D01*
X00326012Y00909401D01*
X00325Y00911843D01*
X00323391Y00913941D01*
X00321293Y0091555D01*
X00318851Y00916562D01*
X0031623Y00916907D01*
D02*
G37*
G36*
X0047879Y00902879D02*
Y0089535D01*
X0048632D01*
X00486181Y00896401D01*
X00485285Y00898563D01*
X0048386Y0090042D01*
X00482003Y00901845D01*
X00479841Y00902741D01*
X0047879Y00902879D01*
D02*
G37*
G36*
X0047625D02*
X00475199Y00902741D01*
X00473037Y00901845D01*
X0047118Y0090042D01*
X00469755Y00898563D01*
X00468859Y00896401D01*
X00468721Y0089535D01*
X0047625D01*
Y00902879D01*
D02*
G37*
G36*
X00719999Y0090043D02*
X0071247D01*
Y008929D01*
X00713521Y00893039D01*
X00715683Y00893935D01*
X0071754Y0089536D01*
X00718965Y00897217D01*
X00719861Y00899379D01*
X00719999Y0090043D01*
D02*
G37*
G36*
X0070993D02*
X00702401D01*
X00702539Y00899379D01*
X00703435Y00897217D01*
X0070486Y0089536D01*
X00706717Y00893935D01*
X00708879Y00893039D01*
X0070993Y008929D01*
Y0090043D01*
D02*
G37*
G36*
X006946D02*
X0068707D01*
Y008929D01*
X00688121Y00893039D01*
X00690283Y00893935D01*
X0069214Y0089536D01*
X00693565Y00897217D01*
X00694461Y00899379D01*
X006946Y0090043D01*
D02*
G37*
G36*
X0068453D02*
X00677001D01*
X00677139Y00899379D01*
X00678035Y00897217D01*
X0067946Y0089536D01*
X00681317Y00893935D01*
X00683479Y00893039D01*
X0068453Y008929D01*
Y0090043D01*
D02*
G37*
G36*
X006692D02*
X0066167D01*
Y008929D01*
X00662721Y00893039D01*
X00664883Y00893935D01*
X0066674Y0089536D01*
X00668165Y00897217D01*
X00669061Y00899379D01*
X006692Y0090043D01*
D02*
G37*
G36*
X0065913D02*
X006516D01*
X00651739Y00899379D01*
X00652635Y00897217D01*
X0065406Y0089536D01*
X00655917Y00893935D01*
X00658079Y00893039D01*
X0065913Y008929D01*
Y0090043D01*
D02*
G37*
G36*
X006438D02*
X0063627D01*
Y008929D01*
X00637321Y00893039D01*
X00639483Y00893935D01*
X0064134Y0089536D01*
X00642765Y00897217D01*
X00643661Y00899379D01*
X006438Y0090043D01*
D02*
G37*
G36*
X0063373D02*
X006262D01*
X00626339Y00899379D01*
X00627235Y00897217D01*
X0062866Y0089536D01*
X00630517Y00893935D01*
X00632679Y00893039D01*
X0063373Y008929D01*
Y0090043D01*
D02*
G37*
G36*
X003683Y00911827D02*
X00365679Y00911482D01*
X00363237Y0091047D01*
X00361139Y00908861D01*
X0035953Y00906763D01*
X00358518Y00904321D01*
X00358173Y009017D01*
X00358518Y00899079D01*
X0035953Y00896637D01*
X00361139Y00894539D01*
X00363237Y0089293D01*
X00365679Y00891918D01*
X003683Y00891573D01*
X00370921Y00891918D01*
X00373363Y0089293D01*
X00375461Y00894539D01*
X0037707Y00896637D01*
X00378082Y00899079D01*
X00378427Y009017D01*
X00378082Y00904321D01*
X0037707Y00906763D01*
X00375461Y00908861D01*
X00373363Y0091047D01*
X00370921Y00911482D01*
X003683Y00911827D01*
D02*
G37*
G36*
X0048632Y0089281D02*
X0047879D01*
Y00885281D01*
X00479841Y00885419D01*
X00482003Y00886315D01*
X0048386Y0088774D01*
X00485285Y00889597D01*
X00486181Y00891759D01*
X0048632Y0089281D01*
D02*
G37*
G36*
X0047625D02*
X00468721D01*
X00468859Y00891759D01*
X00469755Y00889597D01*
X0047118Y0088774D01*
X00473037Y00886315D01*
X00475199Y00885419D01*
X0047625Y00885281D01*
Y0089281D01*
D02*
G37*
G36*
X0071247Y00885099D02*
Y0087757D01*
X00719999D01*
X00719861Y00878621D01*
X00718965Y00880783D01*
X0071754Y0088264D01*
X00715683Y00884065D01*
X00713521Y00884961D01*
X0071247Y00885099D01*
D02*
G37*
G36*
X0070993D02*
X00708879Y00884961D01*
X00706717Y00884065D01*
X0070486Y0088264D01*
X00703435Y00880783D01*
X00702539Y00878621D01*
X00702401Y0087757D01*
X0070993D01*
Y00885099D01*
D02*
G37*
G36*
X0068707D02*
Y0087757D01*
X006946D01*
X00694461Y00878621D01*
X00693565Y00880783D01*
X0069214Y0088264D01*
X00690283Y00884065D01*
X00688121Y00884961D01*
X0068707Y00885099D01*
D02*
G37*
G36*
X0068453D02*
X00683479Y00884961D01*
X00681317Y00884065D01*
X0067946Y0088264D01*
X00678035Y00880783D01*
X00677139Y00878621D01*
X00677001Y0087757D01*
X0068453D01*
Y00885099D01*
D02*
G37*
G36*
X0066167D02*
Y0087757D01*
X006692D01*
X00669061Y00878621D01*
X00668165Y00880783D01*
X0066674Y0088264D01*
X00664883Y00884065D01*
X00662721Y00884961D01*
X0066167Y00885099D01*
D02*
G37*
G36*
X0065913D02*
X00658079Y00884961D01*
X00655917Y00884065D01*
X0065406Y0088264D01*
X00652635Y00880783D01*
X00651739Y00878621D01*
X006516Y0087757D01*
X0065913D01*
Y00885099D01*
D02*
G37*
G36*
X0063627D02*
Y0087757D01*
X006438D01*
X00643661Y00878621D01*
X00642765Y00880783D01*
X0064134Y0088264D01*
X00639483Y00884065D01*
X00637321Y00884961D01*
X0063627Y00885099D01*
D02*
G37*
G36*
X0063373D02*
X00632679Y00884961D01*
X00630517Y00884065D01*
X0062866Y0088264D01*
X00627235Y00880783D01*
X00626339Y00878621D01*
X006262Y0087757D01*
X0063373D01*
Y00885099D01*
D02*
G37*
G36*
X0031623Y00891507D02*
X00313609Y00891162D01*
X00311167Y0089015D01*
X00309069Y00888541D01*
X0030746Y00886443D01*
X00306448Y00884001D01*
X00306103Y0088138D01*
X00306448Y00878759D01*
X0030746Y00876317D01*
X00309069Y00874219D01*
X00311167Y0087261D01*
X00313609Y00871598D01*
X0031623Y00871253D01*
X00318851Y00871598D01*
X00321293Y0087261D01*
X00323391Y00874219D01*
X00325Y00876317D01*
X00326012Y00878759D01*
X00326357Y0088138D01*
X00326012Y00884001D01*
X00325Y00886443D01*
X00323391Y00888541D01*
X00321293Y0089015D01*
X00318851Y00891162D01*
X0031623Y00891507D01*
D02*
G37*
G36*
X00719999Y0087503D02*
X0071247D01*
Y00867501D01*
X00713521Y00867639D01*
X00715683Y00868535D01*
X0071754Y0086996D01*
X00718965Y00871817D01*
X00719861Y00873979D01*
X00719999Y0087503D01*
D02*
G37*
G36*
X0070993D02*
X00702401D01*
X00702539Y00873979D01*
X00703435Y00871817D01*
X0070486Y0086996D01*
X00706717Y00868535D01*
X00708879Y00867639D01*
X0070993Y00867501D01*
Y0087503D01*
D02*
G37*
G36*
X006946D02*
X0068707D01*
Y00867501D01*
X00688121Y00867639D01*
X00690283Y00868535D01*
X0069214Y0086996D01*
X00693565Y00871817D01*
X00694461Y00873979D01*
X006946Y0087503D01*
D02*
G37*
G36*
X0068453D02*
X00677001D01*
X00677139Y00873979D01*
X00678035Y00871817D01*
X0067946Y0086996D01*
X00681317Y00868535D01*
X00683479Y00867639D01*
X0068453Y00867501D01*
Y0087503D01*
D02*
G37*
G36*
X006692D02*
X0066167D01*
Y00867501D01*
X00662721Y00867639D01*
X00664883Y00868535D01*
X0066674Y0086996D01*
X00668165Y00871817D01*
X00669061Y00873979D01*
X006692Y0087503D01*
D02*
G37*
G36*
X0065913D02*
X006516D01*
X00651739Y00873979D01*
X00652635Y00871817D01*
X0065406Y0086996D01*
X00655917Y00868535D01*
X00658079Y00867639D01*
X0065913Y00867501D01*
Y0087503D01*
D02*
G37*
G36*
X006438D02*
X0063627D01*
Y00867501D01*
X00637321Y00867639D01*
X00639483Y00868535D01*
X0064134Y0086996D01*
X00642765Y00871817D01*
X00643661Y00873979D01*
X006438Y0087503D01*
D02*
G37*
G36*
X0063373D02*
X006262D01*
X00626339Y00873979D01*
X00627235Y00871817D01*
X0062866Y0086996D01*
X00630517Y00868535D01*
X00632679Y00867639D01*
X0063373Y00867501D01*
Y0087503D01*
D02*
G37*
G36*
X00925576Y00558513D02*
X00922955Y00558168D01*
X00920513Y00557156D01*
X00918415Y00555547D01*
X00916806Y00553449D01*
X00915794Y00551007D01*
X00915449Y00548386D01*
X00915794Y00545765D01*
X00916806Y00543323D01*
X00918415Y00541225D01*
X00920513Y00539616D01*
X00922955Y00538604D01*
X00925576Y00538259D01*
X00928197Y00538604D01*
X00930639Y00539616D01*
X00932737Y00541225D01*
X00934346Y00543323D01*
X00935358Y00545765D01*
X00935703Y00548386D01*
X00935358Y00551007D01*
X00934346Y00553449D01*
X00932737Y00555547D01*
X00930639Y00557156D01*
X00928197Y00558168D01*
X00925576Y00558513D01*
D02*
G37*
G36*
X00900176D02*
X00897555Y00558168D01*
X00895113Y00557156D01*
X00893015Y00555547D01*
X00891406Y00553449D01*
X00890394Y00551007D01*
X00890049Y00548386D01*
X00890394Y00545765D01*
X00891406Y00543323D01*
X00893015Y00541225D01*
X00895113Y00539616D01*
X00897555Y00538604D01*
X00900176Y00538259D01*
X00902797Y00538604D01*
X00905239Y00539616D01*
X00907337Y00541225D01*
X00908946Y00543323D01*
X00909958Y00545765D01*
X00910303Y00548386D01*
X00909958Y00551007D01*
X00908946Y00553449D01*
X00907337Y00555547D01*
X00905239Y00557156D01*
X00902797Y00558168D01*
X00900176Y00558513D01*
D02*
G37*
G36*
X00874776D02*
X00872155Y00558168D01*
X00869713Y00557156D01*
X00867615Y00555547D01*
X00866006Y00553449D01*
X00864994Y00551007D01*
X00864649Y00548386D01*
X00864994Y00545765D01*
X00866006Y00543323D01*
X00867615Y00541225D01*
X00869713Y00539616D01*
X00872155Y00538604D01*
X00874776Y00538259D01*
X00877397Y00538604D01*
X00879839Y00539616D01*
X00881937Y00541225D01*
X00883546Y00543323D01*
X00884558Y00545765D01*
X00884903Y00548386D01*
X00884558Y00551007D01*
X00883546Y00553449D01*
X00881937Y00555547D01*
X00879839Y00557156D01*
X00877397Y00558168D01*
X00874776Y00558513D01*
D02*
G37*
G36*
X00849376D02*
X00846755Y00558168D01*
X00844313Y00557156D01*
X00842215Y00555547D01*
X00840606Y00553449D01*
X00839594Y00551007D01*
X00839249Y00548386D01*
X00839594Y00545765D01*
X00840606Y00543323D01*
X00842215Y00541225D01*
X00844313Y00539616D01*
X00846755Y00538604D01*
X00849376Y00538259D01*
X00851997Y00538604D01*
X00854439Y00539616D01*
X00856537Y00541225D01*
X00858146Y00543323D01*
X00859158Y00545765D01*
X00859503Y00548386D01*
X00859158Y00551007D01*
X00858146Y00553449D01*
X00856537Y00555547D01*
X00854439Y00557156D01*
X00851997Y00558168D01*
X00849376Y00558513D01*
D02*
G37*
G36*
X00955294Y00217899D02*
X00952673Y00217554D01*
X00950231Y00216542D01*
X00948133Y00214933D01*
X00946524Y00212835D01*
X00945512Y00210393D01*
X00945167Y00207772D01*
X00945512Y00205151D01*
X00946524Y00202709D01*
X00948133Y00200611D01*
X00950231Y00199002D01*
X00952673Y0019799D01*
X00955294Y00197645D01*
X00957915Y0019799D01*
X00960357Y00199002D01*
X00962455Y00200611D01*
X00964064Y00202709D01*
X00965076Y00205151D01*
X00965421Y00207772D01*
X00965076Y00210393D01*
X00964064Y00212835D01*
X00962455Y00214933D01*
X00960357Y00216542D01*
X00957915Y00217554D01*
X00955294Y00217899D01*
D02*
G37*
G36*
X00929894D02*
X00927273Y00217554D01*
X00924831Y00216542D01*
X00922733Y00214933D01*
X00921124Y00212835D01*
X00920112Y00210393D01*
X00919767Y00207772D01*
X00920112Y00205151D01*
X00921124Y00202709D01*
X00922733Y00200611D01*
X00924831Y00199002D01*
X00927273Y0019799D01*
X00929894Y00197645D01*
X00932515Y0019799D01*
X00934957Y00199002D01*
X00937055Y00200611D01*
X00938664Y00202709D01*
X00939676Y00205151D01*
X00940021Y00207772D01*
X00939676Y00210393D01*
X00938664Y00212835D01*
X00937055Y00214933D01*
X00934957Y00216542D01*
X00932515Y00217554D01*
X00929894Y00217899D01*
D02*
G37*
G36*
X00904494D02*
X00901873Y00217554D01*
X00899431Y00216542D01*
X00897333Y00214933D01*
X00895724Y00212835D01*
X00894712Y00210393D01*
X00894367Y00207772D01*
X00894712Y00205151D01*
X00895724Y00202709D01*
X00897333Y00200611D01*
X00899431Y00199002D01*
X00901873Y0019799D01*
X00904494Y00197645D01*
X00907115Y0019799D01*
X00909557Y00199002D01*
X00911655Y00200611D01*
X00913264Y00202709D01*
X00914276Y00205151D01*
X00914621Y00207772D01*
X00914276Y00210393D01*
X00913264Y00212835D01*
X00911655Y00214933D01*
X00909557Y00216542D01*
X00907115Y00217554D01*
X00904494Y00217899D01*
D02*
G37*
G36*
X00879094D02*
X00876473Y00217554D01*
X00874031Y00216542D01*
X00871933Y00214933D01*
X00870324Y00212835D01*
X00869312Y00210393D01*
X00868967Y00207772D01*
X00869312Y00205151D01*
X00870324Y00202709D01*
X00871933Y00200611D01*
X00874031Y00199002D01*
X00876473Y0019799D01*
X00879094Y00197645D01*
X00881715Y0019799D01*
X00884157Y00199002D01*
X00886255Y00200611D01*
X00887864Y00202709D01*
X00888876Y00205151D01*
X00889221Y00207772D01*
X00888876Y00210393D01*
X00887864Y00212835D01*
X00886255Y00214933D01*
X00884157Y00216542D01*
X00881715Y00217554D01*
X00879094Y00217899D01*
D02*
G37*
G36*
X00853694D02*
X00851073Y00217554D01*
X00848631Y00216542D01*
X00846533Y00214933D01*
X00844924Y00212835D01*
X00843912Y00210393D01*
X00843567Y00207772D01*
X00843912Y00205151D01*
X00844924Y00202709D01*
X00846533Y00200611D01*
X00848631Y00199002D01*
X00851073Y0019799D01*
X00853694Y00197645D01*
X00856315Y0019799D01*
X00858757Y00199002D01*
X00860855Y00200611D01*
X00862464Y00202709D01*
X00863476Y00205151D01*
X00863821Y00207772D01*
X00863476Y00210393D01*
X00862464Y00212835D01*
X00860855Y00214933D01*
X00858757Y00216542D01*
X00856315Y00217554D01*
X00853694Y00217899D01*
D02*
G37*
G36*
X00828294D02*
X00825673Y00217554D01*
X00823231Y00216542D01*
X00821133Y00214933D01*
X00819524Y00212835D01*
X00818512Y00210393D01*
X00818167Y00207772D01*
X00818512Y00205151D01*
X00819524Y00202709D01*
X00821133Y00200611D01*
X00823231Y00199002D01*
X00825673Y0019799D01*
X00828294Y00197645D01*
X00830915Y0019799D01*
X00833357Y00199002D01*
X00835455Y00200611D01*
X00837064Y00202709D01*
X00838076Y00205151D01*
X00838421Y00207772D01*
X00838076Y00210393D01*
X00837064Y00212835D01*
X00835455Y00214933D01*
X00833357Y00216542D01*
X00830915Y00217554D01*
X00828294Y00217899D01*
D02*
G37*
G36*
X00802894D02*
X00800273Y00217554D01*
X00797831Y00216542D01*
X00795733Y00214933D01*
X00794124Y00212835D01*
X00793112Y00210393D01*
X00792767Y00207772D01*
X00793112Y00205151D01*
X00794124Y00202709D01*
X00795733Y00200611D01*
X00797831Y00199002D01*
X00800273Y0019799D01*
X00802894Y00197645D01*
X00805515Y0019799D01*
X00807957Y00199002D01*
X00810055Y00200611D01*
X00811664Y00202709D01*
X00812676Y00205151D01*
X00813021Y00207772D01*
X00812676Y00210393D01*
X00811664Y00212835D01*
X00810055Y00214933D01*
X00807957Y00216542D01*
X00805515Y00217554D01*
X00802894Y00217899D01*
D02*
G37*
G36*
X00777494D02*
X00774873Y00217554D01*
X00772431Y00216542D01*
X00770333Y00214933D01*
X00768724Y00212835D01*
X00767712Y00210393D01*
X00767367Y00207772D01*
X00767712Y00205151D01*
X00768724Y00202709D01*
X00770333Y00200611D01*
X00772431Y00199002D01*
X00774873Y0019799D01*
X00777494Y00197645D01*
X00780115Y0019799D01*
X00782557Y00199002D01*
X00784655Y00200611D01*
X00786264Y00202709D01*
X00787276Y00205151D01*
X00787621Y00207772D01*
X00787276Y00210393D01*
X00786264Y00212835D01*
X00784655Y00214933D01*
X00782557Y00216542D01*
X00780115Y00217554D01*
X00777494Y00217899D01*
D02*
G37*
G36*
X01332901Y00168656D02*
X01325372D01*
Y00161126D01*
X01326423Y00161265D01*
X01328585Y00162161D01*
X01330442Y00163586D01*
X01331867Y00165443D01*
X01332763Y00167605D01*
X01332901Y00168656D01*
D02*
G37*
G36*
X01322832D02*
X01315302D01*
X01315441Y00167605D01*
X01316337Y00165443D01*
X01317762Y00163586D01*
X01319619Y00162161D01*
X01321781Y00161265D01*
X01322832Y00161126D01*
Y00168656D01*
D02*
G37*
G36*
X01252891D02*
X01245362D01*
Y00161126D01*
X01246413Y00161265D01*
X01248575Y00162161D01*
X01250432Y00163586D01*
X01251857Y00165443D01*
X01252753Y00167605D01*
X01252891Y00168656D01*
D02*
G37*
G36*
X01242822D02*
X01235293D01*
X01235431Y00167605D01*
X01236327Y00165443D01*
X01237752Y00163586D01*
X01239609Y00162161D01*
X01241771Y00161265D01*
X01242822Y00161126D01*
Y00168656D01*
D02*
G37*
G36*
X01093724Y00149769D02*
Y0014224D01*
X01101254D01*
X01101115Y00143291D01*
X01100219Y00145453D01*
X01098794Y0014731D01*
X01096937Y00148735D01*
X01094775Y00149631D01*
X01093724Y00149769D01*
D02*
G37*
G36*
X01091184D02*
X01090133Y00149631D01*
X01087971Y00148735D01*
X01086114Y0014731D01*
X01084689Y00145453D01*
X01083793Y00143291D01*
X01083654Y0014224D01*
X01091184D01*
Y00149769D01*
D02*
G37*
G36*
X01101254Y001397D02*
X01093724D01*
Y0013217D01*
X01094775Y00132309D01*
X01096937Y00133205D01*
X01098794Y0013463D01*
X01100219Y00136487D01*
X01101115Y00138649D01*
X01101254Y001397D01*
D02*
G37*
G36*
X01091184D02*
X01083654D01*
X01083793Y00138649D01*
X01084689Y00136487D01*
X01086114Y0013463D01*
X01087971Y00133205D01*
X01090133Y00132309D01*
X01091184Y0013217D01*
Y001397D01*
D02*
G37*
%LPD*%
D11*
X01123973Y00864385D02*
X01124735D01*
X0013462Y0026797D02*
X00135382Y00267208D01*
X00365303Y00400609D02*
X00366776Y00402082D01*
X00360048Y00400609D02*
X00365303D01*
X00359997Y00400558D02*
X00360048Y00400609D01*
X0003683Y00400558D02*
X00359997D01*
X010414Y0094772D02*
Y0094996D01*
X00222344Y0053864D02*
X0025908Y00501904D01*
X00082436Y0053864D02*
X00222344D01*
X00082088Y00538988D02*
X00082436Y0053864D01*
X0003683Y00538988D02*
X00082088D01*
X00135382Y00267208D02*
X00268986D01*
X0013335Y002667D02*
X0013462Y0026797D01*
X000381Y002667D02*
X0013335D01*
D13*
X0133096Y0065532D02*
X0133612D01*
D33*
X0031623Y0050038D02*
D03*
X0008763Y0093218D02*
D03*
X003683Y008763D02*
D03*
X0143256Y00929894D02*
D03*
X00572516Y00767334D02*
D03*
D81*
X0019726Y0017174D02*
D03*
Y0016074D02*
D03*
D83*
X0077724Y00573024D02*
X0079915D01*
X0063627D02*
X0077724D01*
Y00543814D02*
Y00573024D01*
X00709422Y00475996D02*
X0077724Y00543814D01*
X00491236Y00475996D02*
X00709422D01*
X00515112Y00061557D02*
Y00085979D01*
X00792734Y00803402D02*
X00824738Y00835406D01*
Y00923544D01*
X00089154Y0072898D02*
X00273558Y00913384D01*
X00273635Y00983565D02*
X00275336Y00985266D01*
X00273635Y00978666D02*
Y00983565D01*
X00273558Y00978589D02*
X00273635Y00978666D01*
X00273558Y00913384D02*
Y00978589D01*
X01030986Y00146558D02*
X01031494Y00147066D01*
Y00207772D01*
X0103124Y00055372D02*
Y00142748D01*
X01030986Y00143002D02*
X0103124Y00142748D01*
X00926592Y004064D02*
X01096518D01*
X00572516Y00767334D02*
X00778002D01*
X00792734Y00782066D01*
X00462534Y00564134D02*
X004826Y005842D01*
Y005842D01*
X0065024D02*
X0079756D01*
X0044196Y0079248D02*
X0065024Y005842D01*
X0063246Y0057658D02*
X00632714D01*
X0041656Y0079248D02*
X0063246Y0057658D01*
X00632714D02*
X0063627Y00573024D01*
X00100076Y00564134D02*
X00462534D01*
X0049276Y0079248D02*
Y0087376D01*
X0086868Y0042672D02*
X00976376Y00534416D01*
Y00548386D01*
X0030353Y00538734D02*
X00459232D01*
X00494792Y00503174D02*
X00545084D01*
X00459232Y00538734D02*
X00494792Y00503174D01*
X0008763Y0055118D02*
X00291084D01*
X0030353Y00538734D01*
X00508254Y0045466D02*
X0053848Y00424434D01*
X0006985Y00465328D02*
X00080518Y0045466D01*
X00508254D01*
X0043688Y00465328D02*
X0071533D01*
X00401828Y0050038D02*
X0043688Y00465328D01*
X0071533D02*
X00798388Y00548386D01*
X00441452Y0052578D02*
X00491236Y00475996D01*
X0006985Y00465328D02*
Y00519684D01*
X00539042Y0015006D02*
X00539442Y0014966D01*
X00334518Y0014097D02*
X00336924D01*
X00340226Y00144272D01*
X0053721D01*
X00539442Y00146504D01*
Y0014966D01*
X00539042Y0015006D02*
Y00153216D01*
X00260096Y00209296D02*
X00328422Y0014097D01*
X00334518D01*
X00481584Y00149098D02*
X00482346Y00148336D01*
X00481584Y00149098D02*
Y00345186D01*
X00158242Y00209296D02*
X00260096D01*
X0006985Y00519684D02*
X00075946Y0052578D01*
X000889Y0075438D02*
X0026035Y0092583D01*
Y0099695D01*
X0028575Y00900684D02*
Y0097155D01*
X00088646Y0070358D02*
X0028575Y00900684D01*
X0008763Y0088138D02*
X00089408Y00883158D01*
X0053975Y0005715D02*
Y0010795D01*
Y0005715D02*
X00540512Y00056388D01*
X00515112Y00061557D02*
X00516171Y00060498D01*
X0008763Y0050038D02*
X00102616Y00485394D01*
X00386334D01*
X0079915Y00573024D02*
X00823788Y00548386D01*
X0008763Y0075438D02*
X000889D01*
X0008763Y0072898D02*
X00089154D01*
X0008763Y0070358D02*
X00088646D01*
X0008763Y0057658D02*
X00100076Y00564134D01*
X0031623Y0052578D02*
X00441452D01*
X0031623Y0050038D02*
X00401828D01*
X00075946Y0052578D02*
X0008763D01*
D84*
X00957277Y00697689D02*
X01123973Y00864385D01*
X0121318Y007747D02*
X012138Y0077532D01*
X00957277Y00682293D02*
X00957326Y00682244D01*
X00957277Y00682293D02*
Y00697689D01*
X010153Y00219243D02*
Y00219243D01*
X01006094Y00207772D02*
Y00209125D01*
X01008594Y00211625D01*
Y00212537D01*
X010153Y00219243D01*
Y00219243D02*
X01034055Y00237998D01*
X0118491D01*
X012138Y00266888D02*
Y0034544D01*
X0118491Y00237998D02*
X012138Y00266888D01*
D86*
X013366Y0095504D02*
X01361746Y00929894D01*
X0143256D01*
X01192365Y00501815D02*
X011938Y0050038D01*
X01192365Y00501815D02*
Y00507118D01*
X01191768Y00507715D02*
X01192365Y00507118D01*
X01191768Y00507715D02*
Y00711258D01*
X011938Y0071329D02*
Y0071532D01*
X01191768Y00711258D02*
X011938Y0071329D01*
X01191768Y00292775D02*
Y00496319D01*
X01192365Y00286875D02*
X011938Y0028544D01*
X01192365Y00286875D02*
Y00292178D01*
X01191768Y00292775D02*
X01192365Y00292178D01*
X01191768Y00496319D02*
X011938Y0049835D01*
D87*
X003683Y0076454D02*
Y008763D01*
Y0076454D02*
X00508Y0062484D01*
Y0056896D02*
Y0062484D01*
D90*
X013716Y0095504D02*
D03*
D91*
X013366D02*
D03*
D92*
X0121412D02*
D03*
X0117912D02*
D03*
D93*
X0114412D02*
D03*
D94*
X01006094Y00207772D02*
D03*
X00980694D02*
D03*
X00955294D02*
D03*
X00929894D02*
D03*
X00904494D02*
D03*
X00879094D02*
D03*
X00853694D02*
D03*
X00828294D02*
D03*
X00802894D02*
D03*
X00777494D02*
D03*
X00752094D02*
D03*
X00726694D02*
D03*
X00701294D02*
D03*
X00675894D02*
D03*
X00650494D02*
D03*
X00625094D02*
D03*
X00823976Y00548386D02*
D03*
X00849376D02*
D03*
X00874776D02*
D03*
X00900176D02*
D03*
X00925576D02*
D03*
X00950976D02*
D03*
X00976376D02*
D03*
X0031623Y0052578D02*
D03*
Y0055118D02*
D03*
Y0057658D02*
D03*
Y0060198D02*
D03*
Y0062738D02*
D03*
Y0065278D02*
D03*
Y0067818D02*
D03*
Y0070358D02*
D03*
Y0072898D02*
D03*
Y0075438D02*
D03*
Y0077978D02*
D03*
Y0080518D02*
D03*
Y0083058D02*
D03*
Y0085598D02*
D03*
Y0088138D02*
D03*
Y0090678D02*
D03*
Y0093218D02*
D03*
X0008763Y0090678D02*
D03*
Y0088138D02*
D03*
Y0085598D02*
D03*
Y0083058D02*
D03*
Y0080518D02*
D03*
Y0077978D02*
D03*
Y0075438D02*
D03*
Y0072898D02*
D03*
Y0070358D02*
D03*
Y0067818D02*
D03*
Y0065278D02*
D03*
Y0062738D02*
D03*
Y0060198D02*
D03*
Y0057658D02*
D03*
Y0055118D02*
D03*
Y0052578D02*
D03*
Y0050038D02*
D03*
X0041656Y0079248D02*
D03*
X0044196D02*
D03*
X0046736D02*
D03*
X00438912Y00056388D02*
D03*
X00464312D02*
D03*
X00489712D02*
D03*
X00515112D02*
D03*
X003683Y009017D02*
D03*
X0143256Y00955294D02*
D03*
X00572516Y00792734D02*
D03*
X0100584Y00055372D02*
D03*
X0098044D02*
D03*
X0095504D02*
D03*
X0092964D02*
D03*
X0090424D02*
D03*
X0087884D02*
D03*
X0085344D02*
D03*
X0082804D02*
D03*
X0080264D02*
D03*
X0077724D02*
D03*
X0075184D02*
D03*
X0072644D02*
D03*
X0070104D02*
D03*
X0067564D02*
D03*
X0065024D02*
D03*
X0062484D02*
D03*
D95*
X01031494Y00207772D02*
D03*
X00798576Y00548386D02*
D03*
X0049276Y0079248D02*
D03*
X00540512Y00056388D02*
D03*
X0103124Y00055372D02*
D03*
D96*
X011938Y0071532D02*
D03*
X012138Y0065532D02*
D03*
X013358D02*
D03*
Y0077532D02*
D03*
X012138D02*
D03*
X011938Y0028544D02*
D03*
X012138Y0022544D02*
D03*
X013358D02*
D03*
Y0034544D02*
D03*
X012138D02*
D03*
X011938Y0050038D02*
D03*
X012138Y0044038D02*
D03*
X013358D02*
D03*
Y0056038D02*
D03*
X012138D02*
D03*
X010414Y0094996D02*
D03*
D97*
X0004064Y0098044D02*
D03*
Y0003556D02*
D03*
X0148844D02*
D03*
Y0098044D02*
D03*
D98*
X00515112Y00085979D02*
D03*
X00824738Y00923544D02*
D03*
X00957326Y00682244D02*
D03*
X01244092Y00169926D02*
D03*
X01324102D02*
D03*
X00275336Y00985266D02*
D03*
X01092454Y0014097D02*
D03*
X00592328Y00717296D02*
D03*
X00573024Y00696722D02*
D03*
Y0073787D02*
D03*
X0003683Y00400558D02*
D03*
X00366776Y00402082D02*
D03*
X00508Y0056896D02*
D03*
X01096518Y004064D02*
D03*
X00792734Y00782066D02*
D03*
Y00803402D02*
D03*
X004826Y005842D02*
D03*
X0047752Y0089408D02*
D03*
X0079248Y00427355D02*
D03*
X00545084Y00503174D02*
D03*
X0003683Y00538988D02*
D03*
X0025908Y00501904D02*
D03*
X00334518Y0014097D02*
D03*
X00481584Y00345186D02*
D03*
X00268986Y00267208D02*
D03*
X00158242Y00209296D02*
D03*
X000381Y002667D02*
D03*
X0013335D02*
D03*
X0026035Y0099695D02*
D03*
X0028575Y0097155D02*
D03*
X00635Y008763D02*
D03*
X006604D02*
D03*
X006858D02*
D03*
X007112D02*
D03*
Y009017D02*
D03*
X006858D02*
D03*
X006604D02*
D03*
X00635D02*
D03*
Y009271D02*
D03*
X006604D02*
D03*
X006858D02*
D03*
X007112D02*
D03*
X00386334Y00485394D02*
D03*
X0079756Y005842D02*
D03*
X0053848Y00424434D02*
D03*
D99*
X01124735Y00864385D02*
X012138Y0077532D01*
X010414Y0094772D02*
X01124735Y00864385D01*
X0123952Y0037116D02*
Y0056038D01*
X012138D02*
X0123952D01*
Y007496D01*
X012138Y0034544D02*
X0123952Y0037116D01*
X012138Y0077532D02*
X0123952Y007496D01*
X01273302Y00287938D02*
Y00819658D01*
Y00287938D02*
X013358Y0022544D01*
X01144995Y00947965D02*
X01273302Y00819658D01*
X01179995Y00953605D02*
X01310132Y00823468D01*
Y00466048D02*
X013358Y0044038D01*
X01310132Y00466048D02*
Y00823468D01*
X01219535Y00954705D02*
X0136652Y0080772D01*
X01214455Y00954705D02*
X01219535D01*
X0136652Y0068572D02*
Y0080772D01*
X0121412Y0095504D02*
X01214455Y00954705D01*
X0117912Y00954566D02*
Y0095504D01*
Y00954566D02*
X01179995Y00953691D01*
Y00953605D02*
Y00953691D01*
X0114412Y0095504D02*
X01144995Y00954165D01*
Y00947965D02*
Y00954165D01*
X0133612Y0065532D02*
X0136652Y0068572D01*
M02*
