G04*
G04 #@! TF.GenerationSoftware,Altium Limited,Altium Designer,19.1.8 (144)*
G04*
G04 Layer_Color=8421504*
%FSTAX44Y44*%
%MOMM*%
G71*
G01*
G75*
G04:AMPARAMS|DCode=20|XSize=0.45mm|YSize=0.3mm|CornerRadius=0.0495mm|HoleSize=0mm|Usage=FLASHONLY|Rotation=0.000|XOffset=0mm|YOffset=0mm|HoleType=Round|Shape=RoundedRectangle|*
%AMROUNDEDRECTD20*
21,1,0.4500,0.2010,0,0,0.0*
21,1,0.3510,0.3000,0,0,0.0*
1,1,0.0990,0.1755,-0.1005*
1,1,0.0990,-0.1755,-0.1005*
1,1,0.0990,-0.1755,0.1005*
1,1,0.0990,0.1755,0.1005*
%
%ADD20ROUNDEDRECTD20*%
%ADD21R,1.5000X1.4000*%
%ADD22R,1.5000X1.0000*%
%ADD23R,1.2000X2.7000*%
%ADD24R,4.0000X2.1500*%
%ADD25R,1.1000X1.3500*%
%ADD26R,1.9250X0.9500*%
%ADD27R,1.3500X0.9500*%
%ADD28R,1.0200X1.4700*%
%ADD29R,3.3000X2.4100*%
%ADD30R,0.6500X1.5250*%
%ADD31R,0.8000X0.9000*%
%ADD32R,1.4500X1.2000*%
%ADD33R,1.5000X1.5000*%
%ADD34R,2.1000X1.4000*%
%ADD35R,1.2000X1.4500*%
%ADD36R,0.9500X1.3500*%
%ADD37R,1.3500X1.0000*%
%ADD38R,1.0000X1.3500*%
%ADD39R,1.4000X0.9500*%
%ADD40R,0.9500X1.4000*%
%ADD41R,2.8000X5.3000*%
%ADD42R,1.7000X2.5000*%
%ADD43R,2.5000X1.7000*%
%ADD44R,2.5000X4.0000*%
%ADD45R,1.4500X1.1500*%
%ADD46R,1.3500X1.1000*%
G36*
X0019226Y0016474D02*
Y00164839D01*
X00192336Y00165023D01*
X00192477Y00165164D01*
X00192661Y0016524D01*
X0019276D01*
D01*
X0020176D01*
X00201859D01*
X00202043Y00165164D01*
X00202184Y00165023D01*
X0020226Y00164839D01*
Y0016474D01*
D01*
Y0015874D01*
Y0015864D01*
X00202184Y00158457D01*
X00202043Y00158316D01*
X00201859Y0015824D01*
X0020176D01*
D01*
X0019276D01*
X00192661D01*
X00192477Y00158316D01*
X00192336Y00158457D01*
X0019226Y0015864D01*
Y0015874D01*
D01*
Y0016474D01*
D02*
G37*
G36*
X0020176Y0017424D02*
X00201859D01*
X00202043Y00174164D01*
X00202184Y00174023D01*
X0020226Y00173839D01*
Y0017374D01*
D01*
Y0016774D01*
Y0016764D01*
X00202184Y00167457D01*
X00202043Y00167316D01*
X00201859Y0016724D01*
X0020176D01*
D01*
X0019276D01*
X00192661D01*
X00192477Y00167316D01*
X00192336Y00167457D01*
X0019226Y0016764D01*
Y0016774D01*
D01*
Y0017374D01*
Y00173839D01*
X00192336Y00174023D01*
X00192477Y00174164D01*
X00192661Y0017424D01*
X0019276D01*
D01*
X0020176D01*
D02*
G37*
D20*
X0018751Y0017274D02*
D03*
Y0016624D02*
D03*
Y0015974D02*
D03*
X0020701D02*
D03*
Y0016624D02*
D03*
Y0017274D02*
D03*
D21*
X01343914Y00140956D02*
D03*
Y00170956D02*
D03*
X0122428D02*
D03*
Y00140956D02*
D03*
X01304036Y00170956D02*
D03*
Y00140956D02*
D03*
X01264158Y00170956D02*
D03*
Y00140956D02*
D03*
X0047752Y00945328D02*
D03*
Y00915328D02*
D03*
X0042672D02*
D03*
Y00945328D02*
D03*
D22*
X01343914Y00068836D02*
D03*
Y00100836D02*
D03*
X01264158Y00068836D02*
D03*
Y00100836D02*
D03*
X01304036Y00068836D02*
D03*
Y00100836D02*
D03*
X0122428Y00068836D02*
D03*
Y00100836D02*
D03*
D23*
X0102669Y00898652D02*
D03*
X0099769D02*
D03*
D24*
X00622942Y00797932D02*
D03*
X00689942D02*
D03*
D25*
X0036192Y0093347D02*
D03*
X0037592D02*
D03*
X00957184Y00578612D02*
D03*
X00971184D02*
D03*
X01012556Y00184404D02*
D03*
X01026556D02*
D03*
D26*
X01046136Y0086315D02*
D03*
Y0083865D02*
D03*
X00987896D02*
D03*
Y0086315D02*
D03*
D27*
X00268986Y00229994D02*
D03*
Y00245494D02*
D03*
X002794Y0052083D02*
D03*
Y0053633D02*
D03*
Y0049302D02*
D03*
Y0047752D02*
D03*
D28*
X00793242Y00923354D02*
D03*
X00809242D02*
D03*
D29*
X00760102Y00869052D02*
D03*
D30*
X00779152Y00841932D02*
D03*
X00766452D02*
D03*
X00753752D02*
D03*
X00741052D02*
D03*
Y00896172D02*
D03*
X00753752D02*
D03*
X00766452D02*
D03*
X00779152D02*
D03*
D31*
X01083056Y00303624D02*
D03*
X01092556Y00283624D02*
D03*
X01073556D02*
D03*
X01086612Y00518922D02*
D03*
X01096112Y00498922D02*
D03*
X01077112D02*
D03*
X01082294Y00735584D02*
D03*
X01091794Y00715584D02*
D03*
X01072794D02*
D03*
D32*
X00428248Y00986028D02*
D03*
Y00966028D02*
D03*
X0047712Y00986028D02*
D03*
Y00966028D02*
D03*
X00525993D02*
D03*
Y00986028D02*
D03*
X00731774Y00805942D02*
D03*
Y00785942D02*
D03*
D33*
X00527727Y00944828D02*
D03*
Y00909828D02*
D03*
D34*
X0039138Y0044668D02*
D03*
X0048238D02*
D03*
X0039138Y0040168D02*
D03*
X0048238D02*
D03*
X0066018Y003077D02*
D03*
X0056918D02*
D03*
X0066018Y003527D02*
D03*
X0056918D02*
D03*
X0066018Y0040168D02*
D03*
X0056918D02*
D03*
X0066018Y0044668D02*
D03*
X0056918D02*
D03*
X0066018Y0049566D02*
D03*
X0056918D02*
D03*
X0066018Y0054066D02*
D03*
X0056918D02*
D03*
D35*
X00768602Y00940172D02*
D03*
X00751602D02*
D03*
D36*
X00206632Y0011303D02*
D03*
X00191132D02*
D03*
X00117732Y00159258D02*
D03*
X00102232D02*
D03*
X00207258Y0026797D02*
D03*
X00222758D02*
D03*
X00187074D02*
D03*
X00171574D02*
D03*
X00191132Y00092964D02*
D03*
X00206632D02*
D03*
D37*
X0036703Y00440546D02*
D03*
Y00422546D02*
D03*
X00756158Y0078221D02*
D03*
Y0080021D02*
D03*
D38*
X005354Y003556D02*
D03*
X005174D02*
D03*
X005354Y0044704D02*
D03*
X005174D02*
D03*
X005354Y0054356D02*
D03*
X005174D02*
D03*
D39*
X0036703Y00467766D02*
D03*
Y00486766D02*
D03*
X0053848Y0039558D02*
D03*
Y0037658D02*
D03*
X00545084Y00487274D02*
D03*
Y00468274D02*
D03*
X005334Y0058354D02*
D03*
Y0056454D02*
D03*
D40*
X0106294Y0026543D02*
D03*
X0104394D02*
D03*
X01075792Y00477774D02*
D03*
X01056792D02*
D03*
X01070864Y00686562D02*
D03*
X01051864D02*
D03*
D41*
X00658502Y00686172D02*
D03*
X00760502D02*
D03*
D42*
X0112268Y003048D02*
D03*
Y003448D02*
D03*
X01126998Y00520258D02*
D03*
Y00560258D02*
D03*
X01121156Y00736092D02*
D03*
Y00776092D02*
D03*
D43*
X00830072Y0074295D02*
D03*
X00790072D02*
D03*
D44*
X00897262Y00844292D02*
D03*
Y00924292D02*
D03*
D45*
X00826142Y00829572D02*
D03*
Y00847572D02*
D03*
D46*
X00228092Y00165638D02*
D03*
Y00151638D02*
D03*
M02*
